<svg id="Layer_1" data-name="Layer 1" xmlns="http://www.w3.org/2000/svg" viewBox="0 0 960 1080"><defs><style>.cls-1{fill:#fff;}.cls-2{fill:#202020;}</style></defs><rect class="cls-1" x="0.92" y="0.37" width="959" height="1079"/><path class="cls-1" d="M959.42.87v1078H1.42V.87h958m1-1H.42v1080h960V-.13Z"/><path class="cls-2" d="M264.47,379.67c-.83-.86-.61-.21,1.33,2.51l.86.87.81.94A37.22,37.22,0,0,0,264.47,379.67Z"/><path class="cls-2" d="M262.31,399.57c-2.33,3.1-4.48,7-2.67,5.23,1.85-3.33,2.64-3.85,4.84-7.41,1-1.3,1.9-2.47,2.47-3.27s.86-1.22.81-.93a10.43,10.43,0,0,0,.87-3.35,7.42,7.42,0,0,0-.88-3.79,11.33,11.33,0,0,1,.5,3.51,9,9,0,0,1-1.09,3.67,58.3,58.3,0,0,1-4.75,6.73C261.56,400.83,262.2,399.84,262.31,399.57Z"/><path class="cls-2" d="M196.29,514.51l-1.77,1.09C195,515.32,195.62,514.94,196.29,514.51Z"/><path class="cls-2" d="M263.35,564a10.14,10.14,0,0,0-.07-2.22A14.28,14.28,0,0,0,263.35,564Z"/><path class="cls-2" d="M260.3,597.75c.1-.72.18-1.33.27-2A16.24,16.24,0,0,0,260.3,597.75Z"/><path class="cls-2" d="M196.29,514.51c1.52-.94,3-1.92,4.5-2.91C201,511.25,198.49,513.1,196.29,514.51Z"/><path class="cls-2" d="M239.18,437.36c.59-.95,1.06-1.75,1.47-2.5l-1.44,2.31A.49.49,0,0,1,239.18,437.36Z"/><path class="cls-2" d="M126.18,545.4a5.78,5.78,0,0,1,.71-1.85,9.36,9.36,0,0,1,.85-1.42A6.25,6.25,0,0,0,126.18,545.4Z"/><path class="cls-2" d="M150.6,520a6,6,0,0,0-1.83,2,24.58,24.58,0,0,1,2.56-2.12C151.3,519.76,151.09,519.8,150.6,520Z"/><path class="cls-2" d="M229.3,448.92l1-1.58Z"/><path class="cls-2" d="M162.75,535.58a1.81,1.81,0,0,0,.6-.19S163.09,535.43,162.75,535.58Z"/><path class="cls-2" d="M285.51,335.35c.06,0,0-.05.05-.06C285.26,335.09,285.16,335,285.51,335.35Z"/><path class="cls-2" d="M263.59,380.33l-.66-.86c-.13-.05-.26-.1-.33-.05Z"/><path class="cls-2" d="M253.46,659.91l0-.28C253.26,658,253.34,658.91,253.46,659.91Z"/><path class="cls-2" d="M360.39,699.55c-.58-3.18.16-.66.81,1.47s1.17,3.87.26-.92C361.51,701,358.73,691.68,360.39,699.55Z"/><path class="cls-2" d="M238.18,438.79c-.51.76-1,1.54-1.53,2.31C237.37,440.06,237.83,439.35,238.18,438.79Z"/><path class="cls-2" d="M361.46,700.1h0l-.2-1C361.34,699.53,361.39,699.76,361.46,700.1Z"/><path class="cls-2" d="M222.14,775.14l-.15-.45-.63-1.89,1.56-.34c.27-.06.8-.23,1.35-.34-.05,0-.32,0-1.35.34l-.93,2.23.93-2.23h0L222,774.7h0v0C222,774.83,222.07,775,222.14,775.14Z"/><path class="cls-2" d="M259.72,696l.12,2.61C259.81,697.57,259.76,696.72,259.72,696Z"/><path class="cls-2" d="M252.8,784.69c1.42-.31,1.92-.39,3.83-1l-.6.11A23.36,23.36,0,0,1,252.8,784.69Z"/><path class="cls-2" d="M281.65,742.72l0,1.06.12,1.83Z"/><path class="cls-2" d="M342.65,327.73a17.45,17.45,0,0,1,.89,2.62c-.07-.48.89,1.23,1.21,1.9.18.34.23.4,0-.23S343.88,330.07,342.65,327.73Z"/><path class="cls-2" d="M239,437.25a6.49,6.49,0,0,1-.79,1.54l1-1.62C239.25,437,239.22,436.93,239,437.25Z"/><path class="cls-2" d="M254.25,780.89c1.46-.33,2.86-.81,4.29-1.22l2.09-.74,1-.37,1-.43c-1.13.5-2.5.92-3.91,1.44S255.81,780.52,254.25,780.89Z"/><path class="cls-2" d="M306.18,509.56l-.33-2.08C306,508.29,306.06,509,306.18,509.56Z"/><path class="cls-2" d="M279.25,761.77c.13-1.52.09-3.31.07-5.09-.05-.38-.1-.81-.16-1.06C279.19,757.68,279.28,759.84,279.25,761.77Z"/><path class="cls-2" d="M343.55,330.37v0Z"/><path class="cls-2" d="M334,388.4a31.12,31.12,0,0,0,2.78-3.58c.47-.71.59-1,.57-1.12s-.63.21-.21-.66c3-4.43,3.55-5.51,3.89-5.73s.25.35,1.26-1.18a61.5,61.5,0,0,0,5.51-15.94c.18-.35.4-1.31.28-.16a62.74,62.74,0,0,0,.68-6.44,44.11,44.11,0,0,0-.33-7.87,42.63,42.63,0,0,0-4.56-14.32,7,7,0,0,1-.33-1c.31,1.32.14,1.61-.16,1.45-1.65-3.61-3.71-6.32-4.19-7.76a34.25,34.25,0,0,0,2.13,3.11c-.35-.6-.72-1.18-1.1-1.76s-.76-1.16-1.16-1.73c-.8-1.71,0-.55,1,1s2.15,3.68,2.31,3.6a69,69,0,0,0-7.17-10.4c-2.63-3.21-5.29-6.05-7.37-8.33-.26-.64,2.27,1.94,4.1,4s3,3.51.55.18a87.13,87.13,0,0,1,5.75,7.74c-1.8-3.25-1-2-.08-.78s1.8,2.64.22-.43a70,70,0,0,0-4.79-6.2c-1.39-1.62-2.6-2.92-3.84-4.19-2.47-2.54-5-5-9.53-9.34-2.26-1.71.4.94-1.86-.76-3.36-2.91-5.61-5-7.38-6.62s-3-2.7-4.21-3.66a19.44,19.44,0,0,0-4.07-2.61,17.47,17.47,0,0,0-3.18-1.09,19.54,19.54,0,0,0-2.1-.35c-.75-.08-1.52-.11-2.34-.15-1.44,0-2.46.14-3.81.05a8,8,0,0,1-2.23-.47l-.55-.27a2.94,2.94,0,0,1-.39-.26,2.2,2.2,0,0,1-.65-.86,3.25,3.25,0,0,1,.63-.66,2.46,2.46,0,0,1,.41-.28,5.25,5.25,0,0,1,.75-.4c-.87.67-.82,1-.8,1.26a2.25,2.25,0,0,1,.36-.34L289,283l.26-.16.51-.26,7.91-3.65-8.59.21a3.14,3.14,0,0,1-2-.95,2.29,2.29,0,0,1-.32-.47,1.16,1.16,0,0,1-.1-.28.75.75,0,0,1,0-.16s0-.06,0-.08l.06,0a2.27,2.27,0,0,1,.82-.35,1.75,1.75,0,0,1,.36-.06,6.06,6.06,0,0,1,.64-.06,7.48,7.48,0,0,1,1.53.08l4.3.66-3.3-2.9a11,11,0,0,1-2.09-2.47,15.17,15.17,0,0,0,2.25,2.28l4.12,3.27L290,277a8.51,8.51,0,0,0-1.59,0l-.65.08-.24,0c-.28.08-.37.14-.17.1l.42,0s.27,0,.39,0h.43a12.14,12.14,0,0,1,1.38.1l5.91.85-4.53-3.95c-1.13-1-1.61-1.48-2.21-2.1l-.2-.24-.13-.11-.27-.33a4,4,0,0,1-.54-1.23,1.09,1.09,0,0,1,.64.16l.07,0a1.68,1.68,0,0,1,.86.13,1.75,1.75,0,0,1,.43.22l.11.07.21.16c.19.16.37.34.55.52l7.85,8.07-5-10a6.51,6.51,0,0,1-.34-4.94l-2.69.63,8.11,7.48,2.07-1.68c-.24.12-.11,0,.19.11.06,0,.06-.08.17-.15a.86.86,0,0,1,.28-.15h.08a1.06,1.06,0,0,1,.23,0c.69.16,1.56,1.21,2.53,2.26,1.89,2.07,3.84,4.11,5.84,6.09-.66-.46-2.51-2.1-.25.4,6.47,6.36,13.73,12.69,20.6,19.22s13.35,13.32,18.17,20.27c1.36,1.67,2.71,3.38,3.95,5.15.82,1.27,1.23,2.53.37,1.14,3.09,5.83.41.16,2.12,2.85,1.73,3.36,2,4.56.82,2.48A54.35,54.35,0,0,1,362.32,352a37.64,37.64,0,0,1-5.18,21.8l.52-1.06c.16-.36.29-.73.44-1.1-2.17,4.18-3.55,6.48-5,8.69a33.44,33.44,0,0,1-2.42,3.34c-.49.58-1,1.2-1.64,1.87s-1.36,1.35-2.18,2.11l1.15-1.28c-7.32,7.51-16.37,14.07-24.5,20.9l-3,2.58-2.89,2.62c-1.86,1.75-3.67,3.49-5.35,5.29a37.14,37.14,0,0,0-7.75,11.54c-.15.82-.63,2.55-1,4.76-.09.55-.17,1.13-.27,1.73s-.12,1.23-.18,1.87c-.09,1.23-.18,2.51-.27,3.78-.31,5.05-.44,9.91,0,10.6-.34,6.08-.44,8.26-.55,11.06s-.2,6.23.16,14.83c.27,4.58,1,6.79,1.73,12.41l-.45.19c.44,2.53.9,5.06,1.38,7.57l0,4.13.81,5.23c-.25-2.09-.39-4.47-.21-4.17.65,4.09,1.25,9.09,1.63,13.09a55.37,55.37,0,0,1,.41,7.13c.86,6.43,1.57,12.87,1.89,19.32-.18-.42-.38-3.66-.67-6.21.54,5.14.4,5.62.29,6s-.2.62,0,5.33c.1-1.26.27.69.36.9-.06,1.18-.15,2.73-.25,4.52,0,.85-.08,1.93-.07,3,.05.55.09,1.11.13,1.68s.19,1.13.28,1.71a36.39,36.39,0,0,0,5.52,12.49l-1.11-1.19c3.89,6.49,9.15,12.29,14.67,18,2.78,2.83,5.64,5.62,8.5,8.44s5.69,5.67,8.28,8.69c-1.82-2.22-2.47-3.12-2.21-3.09a12.71,12.71,0,0,1,3,2.8l.87,1.76c2.21,2.14-3.07-3.89,1.28.66,1.91,2.33,2.37,3.23,2.15,3.18a13.5,13.5,0,0,1-2.32-2.27,62.21,62.21,0,0,1,4.44,5.65c.11.42-.87-.92-1.28-1.16a25.21,25.21,0,0,1,3.7,6.64c1.18,3,2,6.25,2.79,8.26l-.05.43c3.55,15.86,5.15,23,8,36,.47.16,1.47,5.25,2.64,9,.95,4.77,1.94,9.82,3,15.1.53,2.64,1.08,5.35,1.64,8.11a82.74,82.74,0,0,0,2.12,8.52,31,31,0,0,0,1.52,3.78c.3.63.43.76.48.76s-.06-.54.88,1.14a7.72,7.72,0,0,0,.83,2,15.72,15.72,0,0,0,.94,1.59c.36.54.71,1.08,1,1.58,1.41,1.88,2.39,3,.18.68a44,44,0,0,0,6.75,6.58c1.08.81,2.1,1.58,3.13,2.3s2.06,1.42,3.12,2.08c2.11,1.36,4.35,2.7,7,4.32a85.84,85.84,0,0,1,9,6.2c-1.32-1.34-3-2.65-2.05-2.09.63.48,1.33,1,1.93,1.52s1.18,1.08,1.66,1.54c.94,1,1.45,1.7,1.24,1.59l-.61-.55a24.24,24.24,0,0,1,2.29,2.35l.73.84c.16.21.3.44.46.66l.22.33.12.17,0,.09s-.07,0-.11,0l-1.06.07-2.14.12.11,2.71a3.23,3.23,0,0,1,2.56,1.53,1.75,1.75,0,0,1,.3.86,1,1,0,0,1,0,.43c0,.1-.09.08-.16.09l-.22,0c-.35,0-.38,0-1.33.16l-3.41.49-3.77.54c-1.9.22-.78.25-2.77.69,1.91,1,3.56,1.91,4.82,2.64l.73.51.18.12.11.14.22.26.22.26a1.85,1.85,0,0,1,.14.26,1.76,1.76,0,0,1,.09.2.71.71,0,0,1,.06.49.69.69,0,0,1-.18.31.62.62,0,0,1-.41.15,2.74,2.74,0,0,1-1-.1,5.3,5.3,0,0,1-1.15-.44c-.42-.23-.85-.44-1.26-.68a21.21,21.21,0,0,1-4.38-3.63c-2.61-2.78-4.79-5.83-7.09-8.33l.61.68a36.89,36.89,0,0,0-6.19-6,44.17,44.17,0,0,0-7.48-4.13c-6.76-3.44,4.21,1.76-.72-1-4-1.79-7.43-3.56-9.59-6.08s-3-5.58-3.63-8.76c-1.18-6.5-2.38-12.72-4.29-19.82-.76-5.68-3.3-15.49-6.3-25.65s-6.35-20.71-8.24-28.16v.93c-1.43-3.74-1.3-4.68-2.36-7.54,0,.48,1.33,4.25.33,1.92a43.51,43.51,0,0,0-2.75-6,32.47,32.47,0,0,0-3.92-5.45,87.07,87.07,0,0,0-9.66-8.85,155,155,0,0,1-18.34-18c-2.84-3.25-5.57-6.61-8.21-10-1.33-1.71-2.62-3.45-3.91-5.19l-1.91-2.62c-.55-.77-1.13-1.72-1.74-2.65a28.27,28.27,0,0,0-4.41-5.54,7.76,7.76,0,0,0-4-2.09,5.14,5.14,0,0,0-2.89.45,5,5,0,0,0-1.26.9,6.11,6.11,0,0,0-.8,1A14.15,14.15,0,0,0,281.9,581a34.21,34.21,0,0,0-.93,3.34c-.51,2.2-.89,4.38-1.21,6.54a55.52,55.52,0,0,0-.69,10.25c0,2.23-.34,4.83-1.6,12.71l.07-4.56a455.78,455.78,0,0,0-1.57,77,29.59,29.59,0,0,1-.42-3.94c-.07,2.64.12,7.5.4,11.7.13,2.1.29,4,.42,5.46a10.6,10.6,0,0,0,.34,2.34c.16,3.87-.22.91-.25,3.3.05,5.27,1.12,13.18.9,16a14.17,14.17,0,0,1-.26-2.43c.34,3.42.76,16,1,12.67.27,9.33,1.08,17.81,1.21,25.26.17,1.19.32,2.84.38,4.51a12.89,12.89,0,0,1-.56,4.77,10.21,10.21,0,0,1-2.21,3.41,19.32,19.32,0,0,0-1.68,1.93c0-.23-.77.25-2,1.15s-3.05,2.07-5.11,3.22a70.18,70.18,0,0,1-12.06,5.24c.89-.39-.31,0-1.51.19s-2.34.47-1.28,0c-3.18.81-6.28,1.41-8.45,1.82s-3.37.69-2.77.78c-2.21.15-4.42.33-6.61.52l-6.34.57-.91.13a.74.74,0,0,1-.08-.75,1.23,1.23,0,0,1,.21-.37.9.9,0,0,1,.14-.14,2.41,2.41,0,0,1,.32-.24,1.89,1.89,0,0,1,1.38-.25l.15-3.19a6.23,6.23,0,0,1-3-.26c-.22-.08-.44-.18-.64-.27l-.31-.16a.27.27,0,0,1-.11-.09.36.36,0,0,1-.12-.28,1.75,1.75,0,0,1-.51-.43.86.86,0,0,1,.45-.29,1.62,1.62,0,0,1,.64,0l.29-3.69a1.78,1.78,0,0,1-1-.31,1.93,1.93,0,0,1-.66-.76l-.94,2.26a7.49,7.49,0,0,1,1.86-.56,7.63,7.63,0,0,1,.92-.08h.51c.29,0,.6.08.89.12l.22-1.15.15-.49c0-.1.11.11.18.2l.27.34.52.67.13.17.06.09,0,0c-1.69-2.93-.48-.81-.85-1.47h-.08a.86.86,0,0,0-.16,0c-.18,0-.23.35-.33.7s-.25.9-.52.67l-.36-.12-.17-.06s-.06,0-.09,0l0-.27c0-.17-.08-.39-.12-.51l-.13-.16c-.08-.11-.15-.23-.22-.35a4.64,4.64,0,0,1-.31-.79c0-.08-.11-.19-.15-.3l-.07-.16c0-.06-.06-.11-.18-.34a1.85,1.85,0,0,1-.25-.88,1.71,1.71,0,0,1,1.37-1.69,2,2,0,0,1,.73,0l.22,0h.34c.39,0,.6,0,.88,0a3.38,3.38,0,0,1,1.49.4c.13.05.19.14.36.2s.5.1.55.22a1.7,1.7,0,0,1,.27.33c0,.06,0,.13,0,.2s.14.13-.37.19l-1.06.16c-.27.06-.1,0-.1,0l.11-.1.41-.4.41-.39.1-.1s.07-.07,0-.1l-.15-.21-.55-.83-.07-.09h0l-.05-.05s0,0,0,0l.21-.06.84-.24,2.07-.59c.77-.22,1.53-.44,2.28-.69a61.17,61.17,0,0,0,8.78-3.47,32.58,32.58,0,0,0,7.79-5.27,9.31,9.31,0,0,1-2.57,2.46,32.93,32.93,0,0,1-6.06,3.53c-4.51,2.09-9.06,3.3-8.57,3.56a55.6,55.6,0,0,0,11.1-4.65,28.26,28.26,0,0,0,8.37-6.92,22.73,22.73,0,0,0,4.5-9.88c.72-3.67.92-7.45,1.4-11.65.5-4.37.06,2.51,0,4,.69-8.51,1.43-16.75,1.71-24.82a130.88,130.88,0,0,0-1-23.55,24.61,24.61,0,0,1,.53,3.23c-.28-3-.74-7-1-6.63.16,1,.34,1.94.47,2.92.05,2.42-.47-.55-1.25-4.12s-1.77-7.76-1.93-8c.91,2.41.26-1.28-.27-4.61s-.89-6.28.33-2.43c-.4-1.91-.92-4.3-1.06-3.83-.36-2.87-.36-3.79.28-.93-.83-5.22-1-6.9-1.2-8.46a42.11,42.11,0,0,1-.21-7.8c.14,0,.13,2,.3,3A81.93,81.93,0,0,1,258,634.83c0,.5.26-.42-.07,2,1.91-13.94,2.68-23.86,4.78-39.18.12,4.61.82-5.21,1.44-6,.24-2.77.43-5.54.61-8.32l-.56,3.31c.68-7.27.67-13.73,1-20,.05,1.81,0,3.62,0,5.43.2-4.56.26-9.12.21-13.69-.07,2.58-.15,5.17-.3,7.75-.05-3.7-.24-3.5-.36-3.6s-.18-.48-.11-5.33a24.74,24.74,0,0,0,0-3.38c0-1.27,0-2.72-.08-4.1s0-2.67,0-3.62v0c-.44-3.59-1-7.25-1.48-12.61,0-1.41.73,1.05.75.14-.85-3.49-2-16.94-2.95-21.36.28,1.48.58,1.53.59,1l-.7-2.92c-.25-3.37-.24-3.87.05-3.35-1-10.09-.36,3.28-1.35-8.72.13.94.14.48.41,2.43-.58-6-1.34-11.8-2.05-17.48-.34-2.82-.76-5.66-1-8.4s-.16-5.56-.24-8.35c.21-1.66.37.79.44,3.16s.18,4.64.35,2.78a98.76,98.76,0,0,0-.86-12.29,22.48,22.48,0,0,0-.75-3.15,13.06,13.06,0,0,0-.61-1.57,10.11,10.11,0,0,0-.87-1.48,8.88,8.88,0,0,0-2.4-2.5,5.12,5.12,0,0,0-3.6-.88,7.24,7.24,0,0,0-3.21,1.38,15.76,15.76,0,0,0-2.41,2.18,38.17,38.17,0,0,0-3.76,5c-2.24,3.42-4.09,7-6,10.27.5-.8,1-1.63,1.48-2.45a9.06,9.06,0,0,1-1.16,2.58c-.67,1.12-1.56,2.48-2.55,4-2,3-4.34,6.61-6.26,10,1-1.65.95-2.36.75-1.87a163.19,163.19,0,0,1-9.47,13.73,78,78,0,0,1-14.87,14.36c.49-.44,1-.88,1.46-1.34-2.51,1.81-5.89,4.12-9.41,6.35s-7.14,4.41-10.06,6.12c-1.61,1.21-4.93,3.18-2.77,2.22C164.16,531.49,150.7,541,136.88,549l1,.8q1.46-3.52,2.9-7l-2.35.36,2.54-.52c-.75,2.08-1.32,3.83-.64,2.08l.84-2.25L127,545.28l1.11,1a3.86,3.86,0,0,1,.29-1.24,2.23,2.23,0,0,0-.56,1.23l-.79-.69c.78-.09,1.84-.27,3.73-.47-.83.24-2.1.57-3.64.92l.24.21a4.56,4.56,0,0,1,1.12-2.82,5.11,5.11,0,0,1,2.79-1.71,4.54,4.54,0,0,0-1.59.74,3.22,3.22,0,0,0-.69.62c-.24.3-.15.29.14.1a5.94,5.94,0,0,1,1.46-.72,4.17,4.17,0,0,1,2.1-.16l0-1.44h-1.58c.52.08-.52.26-.26.35-6.72-.07-3.36.5-8,.88l.14.15a4.67,4.67,0,0,1,2.55-3.44,3.92,3.92,0,0,0-.37.46,4.81,4.81,0,0,1,3.8-1l0-.5a3.11,3.11,0,0,1-3.9-3.31l-.09.08,1.89-.25c1,.08-.33.3-1.85.55l.34-.33a2.37,2.37,0,0,0,.33,1.52c.25.39.52.61.62.59a2.55,2.55,0,0,1-.78-2.08l-.49.47c2.2-.37,4.37-.79,6.5-1.18l-.31-.2a.43.43,0,0,1,0,.3.57.57,0,0,1-.33.16,1.52,1.52,0,0,1-1-.2.77.77,0,0,1-.41-.76,1.68,1.68,0,0,1,.45-.9,4.21,4.21,0,0,1,1.84-1c.69-.2,1.4-.39,2.1-.57l-2,.7a4.52,4.52,0,0,0-1.82,1.06,1.35,1.35,0,0,0-.35.82c0,.21.13.4.39.52a1.16,1.16,0,0,0,.78.12c.11,0,.14-.07.13-.07a.87.87,0,0,0,0-.11l.52.33-.42.07.43,0-.58-.37s0,.09,0,.08.05,0,.09,0h0c-.12-.12-.05-.06-.16-.07a1,1,0,0,1-.55-.15c-.16-.08-.25-.2-.25-.25s0,0,.05-.21a2.38,2.38,0,0,1,1.42-1.06c.61-.23,1.3-.41,2.09-.66s1.66-.55,2.74-1l-.44.16a61.25,61.25,0,0,0,9.87-4.72c-.82.44-1.63.88-2.46,1.29,3.26-2.43,6.59-4.74,10.17-7.31s7.41-5.37,11.53-8.82c-8,6.7-1.16,1.32-1.54,2.16,2.29-1.51,5.72-3.89,4.84-3.08,3.85-3.33,7-4.83,12.32-9.66.35-.06,4.28-3.35,3.61-2.35,5.1-4.22-1.38.78-1.06.28,3.84-3.35,8.57-7,13.58-11.25A134.41,134.41,0,0,0,212,472.49c2.1-2.37,3.75-4.28,5.1-6s2.48-3.18,3.56-4.64c2.13-2.94,4.15-5.82,7.48-10.63,1.24-1.54.88-.8.21.32s-1.69,2.61-1.69,2.61a146.7,146.7,0,0,0,9.83-14.1c-.57,1.08.22.1,1.36-1.34,2.61-4.06,1.32-3,5-8.21-.46,1-1,2.32-2.13,4.36,1.5-2.42,2.94-4.84,4.39-7.3s2.84-5,4.28-7.55c1-1.21-1.47,3.25-2.42,5.11,1.69-2.86,3.79-6.58,5.62-9.8s3.4-5.91,3.78-6.87c-.81,1.15-1.6,2.31-2.39,3.48,1.27-2,1-.86.08.68-2.67,5-4.3,6.92-4.6,7.12l2.05-3.65c-1.48,1.62-3.55,5.28-5.91,9.36s-5.06,8.58-7.39,12.1l1.4-3.28-4.32,7.51c-1.16,1.43-2.14,2.28.09-1.23-3.62,4.84-2.79,4.57-6.05,8.62-.37.43-.25.21,0-.24-1.09,1.64-2.18,3.27-3.3,4.89.57-1-.93.53,1.27-2.34-6.46,8.35-10.15,13.7-13.13,16.38l.55-.69c-4.84,5.49-5.08,5.76-4.88,5.81s.75-.21-3,3.88c-2,1.48-4.08,2.91-6.14,4.31l-.74,1.32c-1.14,1-3.39,3-3.1,2.47-4,3.95.86-.47-1.41,1.9-2.87,2.25-6.7,5.51-10.05,8.23s-6.24,4.91-7.11,5.12c-1.86,1.88,5.67-4.06-.33.9-2.23.74-7.07,5.58-12.66,9.24,1.41-1.54,6.6-5.13,1-1.45-2.82,2.94-10.53,7.61-15,11,.09.52-9.69,7.63-18.66,10.43.05,0-.1,0-.44.07a9.47,9.47,0,0,0-1.59.55,3.88,3.88,0,0,0-1.11.75,2.33,2.33,0,0,0-.73,1.66,1.61,1.61,0,0,0,.54,1.09,2.23,2.23,0,0,0,1,.49,2,2,0,0,0,1.21,0,1.19,1.19,0,0,0,.66-.65,1.31,1.31,0,0,0,.09-.47,2.44,2.44,0,0,0-.06-.39l-.12-.56-.62.08-6.55.8-.55.07-.1.56a4.14,4.14,0,0,0,5.1,4.52l3-.92-3.05-.73a5.89,5.89,0,0,0-3.6.32,6.62,6.62,0,0,0-2.54,1.9,2.71,2.71,0,0,1,.13-.3,8.09,8.09,0,0,0-1.09,3l-.11,1,.89-.11c2.46-.3,6.19-.56,9.85-.83l0-1.09a5.58,5.58,0,0,0-4.69,1.83c0-.2.15-.57.78-1.14a5.5,5.5,0,0,1,1.42-.85,5.65,5.65,0,0,1,2.56-.38l4.37.38-4.44,1.78-.28,0,.28,0,.07-2.19a6.3,6.3,0,0,0-6.06,3.1,6.5,6.5,0,0,0-.63,2.6l-.05,1.25,1.14-.29c1.11-.28,2.73-.64,5.08-1.13l-1.45.7,4.27-.86,2.51-.56-.54,1.58-.33.94-.54,1.46-.93,2.54,2.27-1.41c3.23-2,6.7-4.12,10.58-6.31.31-.64-7.78,3.43,1.7-2.57.46,0,1,0-1.47,1.64.81-.52,2.85-1.92,4.56-2.85l-3.66,2.62c4.22-2.37,2-1.56,5.34-3.52.08.29,2.55-1.3,2.2-.81-.83.53-2.95,1.63-4.16,2.5,3.76-2.21,8.36-4.78,10-5.49-.41,0-.21-.34,2.5-2,7.05-4.29,2.61-1.16,6.8-3.51,1.61-1.21,6.22-3.75,6.11-4.2a18,18,0,0,1,3.42-1.68c1.77-1.19,6-3.76,9.3-5.85s5.48-3.66,3.33-2.54l-.94.57.58-.39,0,0,0,0a139.63,139.63,0,0,0,17.09-13.19A84.62,84.62,0,0,0,224.41,486l.11.1c2.19-3.55,4.54-7.53,6.71-11.26,1.08-1.86,2.12-3.67,3.09-5.32s1.71-3.24,2.38-4.56c1.2-2.14,3.22-4.79,2.81-3.81a38.89,38.89,0,0,1,4-5.64,13.56,13.56,0,0,1,2.61-2.31,4,4,0,0,1,4.41-.42,3,3,0,0,0-.79-.28l-.3-.07h-.26a1.62,1.62,0,0,0-.57.06c-.17.05,0,.06.08.06s.14,0-.26,0a5.86,5.86,0,0,0-2.9,1.43,7.42,7.42,0,0,1,2.14-1.22,3.5,3.5,0,0,1,1.79-.11,4.82,4.82,0,0,1,2.53,1.94,10.39,10.39,0,0,1,1.67,3.31,31.9,31.9,0,0,1,1.06,5.21c-.33-1.44-.27.07-.2,2.44s.11,5.65.25,7.63l.1-5.78.22,6.27c0,1,.1,2,.21,3l.31,2.91-.74-2c.67,8.4,1.82,15.91,2.81,22.93a188.13,188.13,0,0,1,2,20c.83,4.39-.75-9.12.09-5.21.77,7.71.93,15.81,1.19,18.22.41,5.28.93,7.74,1.3,10.22a60.3,60.3,0,0,1,.9,10.58c.11-1.42.64-2.78.89,5.51a36.75,36.75,0,0,1-.52,7c-.22.79-.4,0-.42-2.43a12.37,12.37,0,0,1,.15-2.67c-.06-2.49-.13-5.76-.33-2.7l.17,1c-.06,1.91-.19,5.52-.33,8.33s-.34,4.84-.43,3.59c-.16,5.82.19,2.51.47-1.81-.74,9.87-1,15.45-2.26,25.58.28-1.6.63-3.07.47-1.46-1,7.43-1.11,9.07-1.11,10.13a39.76,39.76,0,0,1-.53,6.55c-1,5.69-.36-2.13-1.53,8-1,6.16-.65,1.24-.45-1.24-.91,9.3-2.72,17.19-3.4,22.56.14-1.66.31-3.3.48-4.94-.32,3-.59,5.37-.86,7.83l.66-2.78a52.1,52.1,0,0,1-.74,5.29c0,3,.72-2.25.68,3.73a55.36,55.36,0,0,0,0,7.57,44.57,44.57,0,0,1,.22,5.66c-.31-3.05-.37-4.51-.44-5.12s-.13-.38-.19-.09-.12.65-.21.28a24.59,24.59,0,0,1-.26-4.11c.06,2,.14,4.5.37,7.45,0,.45-.15-.4-.23-1.21a50.3,50.3,0,0,0,.59,6,18.37,18.37,0,0,0,.6,2.58,67.54,67.54,0,0,1,2,8.65c-.54-1.45,0,2.83.43,4.73-.88-4.74,0-2.35,1,2,.55,3.77.84,5.82,1.07,7.42a47.61,47.61,0,0,1,.6,4.74c-.1-1.52-.18-3-.34-4.55a61.79,61.79,0,0,1,1.08,10.64c-.17.46-.36-4.83-.36-2.93.79,5.91-.2,13.37-.41,21.62-.44,3.81-.52.34-.88,3.69a91.3,91.3,0,0,1-.83,9.68c-.17,1.27-.35,2.56-.52,4.15s-.32,3.45-.61,5.76c.39-1.3.53-2.11.56-1.72a14.87,14.87,0,0,1-.1,1.52,31.12,31.12,0,0,1-.57,3.65,44.76,44.76,0,0,0,1.13-7.71l.63-8c-.15,3.43-.28,6.9-.48,10.29.52-4.78.77-10.19,1.08-13.07-.14,4.92-.19,4.41.32,2.12a98.38,98.38,0,0,0-1,10c-.28,3.35-.63,6.95-2.53,10.16l-.7-.59c-2.55,4.64-6.43,7.73-11.14,10.23a52,52,0,0,1-7.9,3.28c-1.47.47-3,.93-4.64,1.35-1.24.32-2.58.64-3.92,1l-1,.25c-.08,0-.2,0-.23.07l.17.26.34.52c.45.7.91,1.41,1.38,2.12L227,767.88l-.57-.91c-.21-.19.06-.18.2-.22l.46-.1,3.63-.82c-.7.26-1.83.59-3.24,1-1.27-.07-.09,1,.34,1.78.4.62.83,1.27,1.28,1.94l.26.42a.89.89,0,0,0-.45-.36,1.12,1.12,0,0,0-1.11.2,1,1,0,0,0,.75,1.67c-.07-.05-.08-.09-.06-.13s-.14-.1-.23-.15a2,2,0,0,0-.35-.14l-.16,0-.1,0-.22,0a8.78,8.78,0,0,0-1,0,10.63,10.63,0,0,0-2.14.24,11.61,11.61,0,0,1-1.26.55l-1.35.61.54,1.33a5.17,5.17,0,0,0,4.83,3.22l.23-2.92a8.58,8.58,0,0,0-4.69.59,10.47,10.47,0,0,0-1.58.89l-.63.44-.29.21c-.1.07-.18.14-.18.22a7.83,7.83,0,0,0,1,1.15,10.45,10.45,0,0,0,3,3.12c.34.21.73.43,1.08.61a8.56,8.56,0,0,0,.88.4,11.57,11.57,0,0,0,1.85.54,10,10,0,0,0,3.05,0l6.77-1.13L231,780.23a4.86,4.86,0,0,0-2.49,0,5.44,5.44,0,0,0-1.91,1,5.64,5.64,0,0,0-2.08,3.6,4.46,4.46,0,0,0,.07,1.68c.08.26.13.51.23.77l.14.37c0,.09.09.06.15.06h.21c1.09,0,2.11,0,3.12-.07a19.86,19.86,0,0,0,2.6-.27l2.63-.34,6.68-.77c-3.47.72,1.85.38-5.93,1.39,3.89-.33,7.39-.74,7.43-1a22,22,0,0,0,2.7-.36c1.16-.19,2.54-.46,3.95-.78,2.83-.59,5.77-1.41,7.56-1.75.79-.27,1.28-.57,2.11-.91.41-.18.91-.36,1.56-.61s1.45-.57,2.49-.94c.48-.11,0,.14,0,.14s6.27-2.93,2.61-1.66a38.65,38.65,0,0,0,9.33-4.92,40,40,0,0,0,4.65-3.94,14.05,14.05,0,0,0,1.95-2.59,10.19,10.19,0,0,0,1.12-3.11,26.25,26.25,0,0,0,.17-6.23c-.1-2-.19-3.9-.28-5.73-.15-3.66-.23-7-.16-9.57-.53-8.46-1.14-18.65-1.55-26.33.12.49.15,0,.2,1.47-.26-10.62-1.19-6.48-1.48-18.55.18-6.19.57,6.39.57,2.54.89-1.72-.87-14.55-.57-22.69l.13,2c.1-6.21-.9-15.12-.84-25.25,0,0,.08.49.14,0a257.31,257.31,0,0,1,.16-29.79c.17,3.06-.07,4.44.42,2.61.22-4.36-.74,1.24-.17-7.47.45-2.81,1.29-9.05,1.84-9.82-.37,2.72-.58,5.45-.86,8.17.93-4.13,1.09-10.57,1.85-14.83l.15.58.57-4.14c.18-1.25.28-2.4.36-3.39.15-2,.28-3.61.4-5.27s.29-3.31.6-5.39c.16-1,.35-2.18.64-3.46a24.14,24.14,0,0,1,1.26-4.17c-.22.38-.44.78-.64,1.19a6.81,6.81,0,0,1,1.69-3.48,2.16,2.16,0,0,1,2.06-.24,6.5,6.5,0,0,1,1.94,1.28,26.61,26.61,0,0,1,2.78,3c.28.71.53,1.42.78,2.15l1.24,1.76c.24.33.5.7.8,1.08l.89,1.12c1.23,1.56,2.66,3.32,4.18,5.17,3,3.7,6.52,7.67,9.47,10.92-1.82-1.71-4.43-4.51-7.05-7.54s-5.25-6.28-7.25-8.76c1.44,2,4,5.25,6.4,8.23a85.65,85.65,0,0,0,5.75,6.51c-1.32-1.45-3-3.26-4.18-4.82,4.15,4.33,9.4,10.18,16.39,16.91-1-.2,3.45,4.33,9.2,9.05a71.67,71.67,0,0,1,8.06,7.44,21.3,21.3,0,0,1,4.19,6.61,61.73,61.73,0,0,1,4.46,11.7c1.25,4.11,2.48,8.26,3.7,12.5,2.45,8.49,4.9,17.32,7.47,26.92-.94-7,1.51,5.6,2.06,4.2,1.21,4.47,1.58,6.2,1.63,6.61q1.37,6.9,2.5,13.82c.4,3.3-1.08-4.27-1.21-3.81,1,5,1.09,6,1.1,6.66a18.34,18.34,0,0,0,.43,4.23c0-.73.28.13.79,1.94.26.91.59,2.06,1.1,3.36a17.48,17.48,0,0,0,2.23,4.06,20.34,20.34,0,0,1-3.12-8.34,22.49,22.49,0,0,0,3.51,8,22.25,22.25,0,0,0,3.88,4,28,28,0,0,0,4.51,3c1.85,1,4.23,2.06,7.27,3.62-1.3-.63-2.64-1.21-4-1.78a43.2,43.2,0,0,1,6.24,3.41,32.05,32.05,0,0,1,6.48,6.41,92.08,92.08,0,0,0,6.42,7.54,19.59,19.59,0,0,0,6.54,4.47c.56.38,1.42.79,1.62.93s0,.1-.3,0a7.52,7.52,0,0,1-1.72-.68,9.52,9.52,0,0,0,3.23,1.14,6.16,6.16,0,0,0,2.12-.07,4.46,4.46,0,0,0,2.21-1.23,4.18,4.18,0,0,0,1.13-2.3,4.79,4.79,0,0,0,0-1.31,4.87,4.87,0,0,0-.34-1.16c-.06-.18-.15-.33-.22-.49s0-.06,0-.06l0,0a.64.64,0,0,0-.1-.13,1.84,1.84,0,0,0-.25-.23c-.1-.11-.48-.22-.18-.23l.5-.11.26-.06.15,0,.48-.08,1.39-.24,1-.16c.16,0,.33-.05.47-.09l.39-.15.76-.29.39-.14s.07,0,.08,0l0-.11,0-.22a10.29,10.29,0,0,0,.14-1.74,6.37,6.37,0,0,0-1.17-3.43,6.29,6.29,0,0,0-5.14-2.73l.12,3.2,4.68-.4,2.27-.2,1.13-.09h.14s-.05-.09-.08-.13l-.17-.26-.35-.52c-.93-1.38-1.82-2.78-2.72-4.05l-1.27-1.53a12.62,12.62,0,0,0-1-1.16,60.41,60.41,0,0,0-8.35-7.2l1.24.59c-2.77-1.9-5-2.9-8.38-5.29.23,0,1.23.51,0-.31-1.51-.86-7.57-4.25-10.69-7.08.94.73,2,1.34,3,2-6.73-5-10.65-9.78-12.92-15.32s-3.53-11.34-5.19-18.32c.65-.1-2-13.32-3.31-19.91l.14.21c-2.07-9.76-4-18-5.92-26.06-1-4-1.94-8-2.92-12.12a70.94,70.94,0,0,0-4.15-12.77,38.76,38.76,0,0,0-5.84-10c-1.4-1.81-2.94-3.64-4.57-5.54s-3.47-3.83-5.33-5.73c-3.72-3.81-7.66-7.64-11.31-11.47a112.72,112.72,0,0,1-9.64-11.32c1.6,2.24-.75,0-2.61-2.61a70.6,70.6,0,0,1-3.76-6.24,18.16,18.16,0,0,1-1.1-2.55c-.21-.62-.23-1,0-.86.15.46.34.92.51,1.37a40.38,40.38,0,0,1-1.31-7.4c0-1.46.08-3.47.12-5.33s0-3.77,0-5.52l-.82-1.14a118.86,118.86,0,0,0-.51-15.34c-.49-5.48-1.26-11.13-2-16.51-1.58-10.75-3-20.45-2.9-25.41-.63-4.3-1-9.68-1.4-14l.43.22c-.22-6-.23-10.55-.21-15.42s.14-10.1.51-17.55l.14,3c.11-2.09.14-3.82.13-5.31s0-2.67.11-3.9a19.56,19.56,0,0,1,.61-3.77,17.49,17.49,0,0,1,1.84-4.41c.56-.55,1.15-1.06,1.74-1.55a52.88,52.88,0,0,1,7.16-8c2.65-2.54,5.41-4.9,8.25-7.23,5.68-4.65,11.59-9.12,16.95-14.2-.13.22-.32.67-2.15,2.25a109.13,109.13,0,0,0,11.63-11c3.78-4.27,6-8.25,4.95-7.37.13,0,.81-.72,1.6-2.13.41-.7.89-1.53,1.4-2.47l1.4-3.2a43.65,43.65,0,0,0,2.18-7.52,41.56,41.56,0,0,0,.71-7.16l.34,1.31c0-.88,0-1.65,0-2.34s-.13-1.31-.18-1.88-.11-1.1-.16-1.62-.16-1-.23-1.55c-.18-1-.28-2.19-.61-3.63-.15-.72-.29-1.53-.49-2.44s-.5-1.92-.8-3.07-.37-1.59-.25-1.45a8.23,8.23,0,0,1,.71,2.39,29.5,29.5,0,0,0-2.15-6.57c-.35-.76-.67-1.58-1.21-2.7-.26-.57-.55-1.22-.89-2s-.78-1.63-1.26-2.67c.57,1,1.21,1.93,1.73,2.94-.79-1.77-1.48-3-2-4s-1-1.62-1.31-2.19c-.71-1.15-1.31-1.85-2.56-3.57l-2.48-3.57c-1-1.29-1.92-2.71-2.91-4-1.91-2.56-3.65-4.66-3.87-5.22a91.69,91.69,0,0,1-7.09-6.73c-.33-.53.9.56,1.52,1.11-4.45-4.63-8.07-7.73-11.27-10.53s-6.05-5.22-9.11-8.36a3.93,3.93,0,0,0-.9-1.2c3.67,3.47,7.06,6.53,9.43,8.71s3.72,3.45,3.43,3.2c.26-.3-5.75-5.88-.57-1.87-5.06-4.24-13.85-11.24-19.21-17.08a8.5,8.5,0,0,1-.62-.85l.59.56c-1.22-1.35-2.39-2.5-3.45-3.61-.84-.95-1.4-1.7-2.29-2.61a5.81,5.81,0,0,0-1.76-1.23,4.46,4.46,0,0,0-1.33-.34,3.56,3.56,0,0,0-1.66.29,3,3,0,0,0-1.38.84,3.26,3.26,0,0,0-.82,1.36,3,3,0,0,0,.25,2.38l2.92-2.31c-2.15-2.13-5.81-5.53-7.88-7.51,0,0,0,.05-.16-.05l-6.37-4.55,3.42,5.25c.11.16-.2,1.44-.17,2.06,0,.32,0,.46.09.21a14.43,14.43,0,0,1,.65-2.06h0l1.95-.47.1.12a24.12,24.12,0,0,1,2.57,2.35c.46.42,1,.91,1.29,1.17l-.22-.16,4.3,4.07-2,1.57a2.47,2.47,0,0,1-.15-2.13,3.2,3.2,0,0,1,1.08-1.37,3.37,3.37,0,0,1,1.58-.64,3.53,3.53,0,0,1,1.65.25,3.58,3.58,0,0,0-1.58-.19,3.34,3.34,0,0,0-1.51.62,3.18,3.18,0,0,0-1,1.33,2.29,2.29,0,0,0,.14,2l1.66-1.31c-1.52-1.35-3.14-2.89-4.95-4.8l-3.37-2.46-.75-.55-.2.77a7,7,0,0,0-.27,1.65,8.4,8.4,0,0,0,.39,5.16l1.37-.93a8.76,8.76,0,0,0-1.66-1.56,9.72,9.72,0,0,0-2.31-1.23,10.36,10.36,0,0,0-2.34-.57c-.38-.06-.76-.1-1.15-.14l-.59,0-.3,0a.89.89,0,0,0-.17.08,23,23,0,0,0,.93,4.77,12.92,12.92,0,0,0,.72,1.77c.22.5.45.88.48,1a14.12,14.12,0,0,0,2.78,3l1.29-2.9a10.92,10.92,0,0,0-3,0,11.13,11.13,0,0,0-2.07.5c-.66.23-1.27.51-1.92.79a2,2,0,0,0-.08.63v.66a6.17,6.17,0,0,0,.14,1.34,6.08,6.08,0,0,0,1.28,2.53,5.7,5.7,0,0,0,.91.88,6,6,0,0,0,1,.64,5.48,5.48,0,0,0,2.4.58l-.57-2.9A8.57,8.57,0,0,0,286.2,281a11.92,11.92,0,0,0-2,2.4,8.87,8.87,0,0,0,2.37,3,6.21,6.21,0,0,0,.78.52c.23.12.45.24.67.34a12.36,12.36,0,0,0,1.33.46,23.46,23.46,0,0,0,4.84.64c1.46.08,2.81.11,3.95.28a22.89,22.89,0,0,1,3.15.69,11.3,11.3,0,0,1,3,1.6c.58.42.89.78,1.39,1.18a20.93,20.93,0,0,0-4.77-2.35,22.8,22.8,0,0,1,5.29,2.8,60.35,60.35,0,0,1,5.42,4.32c3.42,3,6.36,5.59,7.16,6,6.29,6.31-3.94-3.11,4.92,5.31l-1.29-1c4.14,4.35,7.79,8.34,11,12.36A71.41,71.41,0,0,1,341.65,332a44.78,44.78,0,0,1,4.65,14.73A36.8,36.8,0,0,1,344,364.33c.63-1.71.88-2.58,1.06-2.92A66.86,66.86,0,0,1,335,381.79a57.44,57.44,0,0,1-7.6,8.66,37.68,37.68,0,0,1-9.47,6.42,25.46,25.46,0,0,1-11,2.52,23.42,23.42,0,0,1-5.58-.8,24.88,24.88,0,0,1-5.19-2.17,22.92,22.92,0,0,1-4.5-3.29,19.89,19.89,0,0,1-1.85-2.06c-.28-.37-.57-.72-.83-1.1l-.7-1.17a14.58,14.58,0,0,1-1.59-10.33,27,27,0,0,1,1.48-4.71l1.3-3.1c.75-1.82,1.34-3.24,2.35-5.67.39-.5.79-1,1.17-1.54a31.64,31.64,0,0,0,1.8-9,33.31,33.31,0,0,0-.51-9.16,23.7,23.7,0,0,0-3.39-8.27,20.55,20.55,0,0,0-7.07-6.66,17.81,17.81,0,0,0-5.15-1.95,14.16,14.16,0,0,0-2.94-.32,16.29,16.29,0,0,0-3.1.19c.74.05,1.46.08,2.18.17A19.34,19.34,0,0,0,264,332c-3.18,2.16-5,4.53-4.84,4-.18.25-.44.67-.84,1.24s-.92,1.32-1.58,2.27l-.29,0a25.8,25.8,0,0,0-3.52,13.91v1.82l.06,1.34,0,1.54c0,.62-.12.58-.22.7s-.19.4,0,1.67a32.47,32.47,0,0,0,2.07,7.4,48.1,48.1,0,0,0,5.3,9.26c1.94,2.64,3.47,4.25,2.85,3.31l-1.14-1.63-1.08-1.73a8.08,8.08,0,0,1-1-2.13c1,1.53,2,3,3.12,4.48.57.19,1.62,1,1.59.42a7.48,7.48,0,0,0-1-2.2c-.68-1.28-1.83-3.15-3.25-6.06a46.52,46.52,0,0,1-3.9-8.11c-.17-1-.31-1.92-.41-2.88a41.12,41.12,0,0,0,2.37,7.13c-.71-2-1.24-3.67-1.73-5.18a43.58,43.58,0,0,1-1.22-4.34c.07-.74,0-2,0-3.72a25.46,25.46,0,0,1,.45-8.57c.28-.46.13.51.14.89,0,.2,0,.25.2-.09s.38-1.06,1-2.35c.27-1,.39-1.19.27-1.17a2.24,2.24,0,0,0-.53.62c-.18.27-.33.46-.29.19a10.86,10.86,0,0,1,1-2.51,22.89,22.89,0,0,1,2.35-2.88c.6-.59,1.12-1.35,2.82-3.14.33-.15.3,0,0,.28s-.76.87-1.38,1.6a20.2,20.2,0,0,1,5.86-4.75,27.57,27.57,0,0,1,5.6-2.06c.54,0,1.16,0,1.84,0s1.42.09,2.18.21a16.94,16.94,0,0,1,4.48,1.35c2.77,1.26,4.53,3.08,4.16,3.15A16.37,16.37,0,0,1,289,338.6a18.19,18.19,0,0,1,3.13,6c-.75-1.69-.85-1.6-.57-.63a27.36,27.36,0,0,1,1,5.14,23.31,23.31,0,0,1-.28,6.26c-.32,1.68-.71,2.64-.8,2.12A20.09,20.09,0,0,1,290,362.8c-.84,2.13-2.1,4.53-3.37,7.21a30.21,30.21,0,0,0-2.9,8.9l-.11,1.2v1.21l0,1.2c0,.39.11.78.17,1.16l.2,1.14a9,9,0,0,0,.32,1.08,12.09,12.09,0,0,0,.77,2,10.7,10.7,0,0,1-1-2.66l.6,2.11.72,1.69a13,13,0,0,0,.72,1.4c.25.42.46.83.69,1.2.51.71,1,1.39,1.48,2a27.3,27.3,0,0,0,1.86,2,7,7,0,0,1,1.83,1l1.62.94c.58.36,1.29.64,2,1a24.53,24.53,0,0,0,8.91,2.33l1.14.24c.32,0,.57.07.77.11.39.07.54.13.52.17a4.34,4.34,0,0,1-1.68.2c-.9,0-2,0-2.67-.12s-1,0-.47.25c-.15-.25,3.15.35,6.2.09l2.16-.27,1.63-.38c.87-.21,1.18-.41.55-.34a33.77,33.77,0,0,0,4.8-1.2c.82-.31,1.37-.39,2.79-.85.29-.55,1.44-1.17,3-2.11a25.15,25.15,0,0,0,4.94-3.91c3.13-2.55,3.53-2.9,4.05-3.26a6.75,6.75,0,0,0,1-1l1.07-1.23c.43-.56,1-1.24,1.63-2.13,1.36-1.61.91-.81.11.4-.42.59-.93,1.28-1.33,1.83S334,388.4,334,388.4ZM310.29,279.11h0c-1.26-1.24-2.31-2.33-3-3C307.93,276.72,308.77,277.61,310.29,279.11Zm12.51,11.82-5.47-5.06c-.35-.52.23-.18,1.5,1C318.07,286.31,321,289.12,322.8,290.93Zm-23.58-22.36c.84.77,1.44,1.34,1.82,1.72l-2.81,2.24a2.83,2.83,0,0,1-.38-1.44,2.79,2.79,0,0,1,.18-1,3.1,3.1,0,0,1,.54-.89,3.52,3.52,0,0,0-.56,1.23,2.85,2.85,0,0,0,.33,2l2.61-2.07-2.39-2.22-.26-.19A5.06,5.06,0,0,1,299.22,268.57Z"/><path class="cls-2" d="M295.3,265.6l-.83-.75,1.11,1.19.79.57Z"/><path class="cls-2" d="M194.21,515.78l.31-.18c-.26.15-.51.28-.67.36C194.06,515.84,194.07,515.86,194.21,515.78Z"/><polygon class="cls-2" points="303.58 490.58 303.68 490.55 303.43 489.06 303.58 490.58"/><path class="cls-2" d="M131.18,540.82a9.67,9.67,0,0,0-1.25,0C130,540.82,130.53,540.82,131.18,540.82Z"/><path class="cls-2" d="M136.46,530.4a54.91,54.91,0,0,0,5.4-2.33C139.56,529.17,137.85,529.88,136.46,530.4Z"/><path class="cls-2" d="M163.2,513.67a1.69,1.69,0,0,0,.39-.51l-.05,0Z"/><path class="cls-2" d="M262.34,693.59l.13,1.22C262.76,697.67,262.62,695.72,262.34,693.59Z"/><path class="cls-2" d="M264.53,546.15c.21,1.58.33,3.13.47,4.78C264.9,548.28,264.8,546.21,264.53,546.15Z"/><path class="cls-2" d="M253.31,781.13h0l1-.25Z"/><path class="cls-2" d="M265.18,557.86c0-2.65,0-4.88-.18-6.93C265.09,553.11,265.07,555.67,265.18,557.86Z"/><path class="cls-2" d="M254,413.58l.8-1.27s0-.08,0-.19Z"/><path class="cls-2" d="M254.84,412.12l.84-1.44A15.61,15.61,0,0,0,254.84,412.12Z"/><path class="cls-2" d="M257.51,407.69c-.62,1-1.22,2-1.83,3A35,35,0,0,0,257.51,407.69Z"/><path class="cls-2" d="M231.46,448.55l-.15.48C231.43,448.8,231.49,448.63,231.46,448.55Z"/><path class="cls-2" d="M224,458.8c1.88-2.37,4.85-5.86,7.19-9.38l.13-.39C230.37,450.8,225.58,456.4,224,458.8Z"/><path class="cls-2" d="M185.27,494.53c2.76-2.19,5.49-4.4,8.19-6.67-1.51,1.09-3.49,2.49.12-.66-5.21,4.13-4.65,3.73-4.08,3.45S190.66,490.19,185.27,494.53Z"/><path class="cls-2" d="M159,514.15c4.54-3.42-.19-.15,0-.4C156.2,516,155.52,516.54,159,514.15Z"/><path class="cls-2" d="M240.93,459.27V460C243.35,456.44,240.82,459.82,240.93,459.27Z"/><polygon class="cls-2" points="257.94 481.99 257.69 477.73 257.12 475.77 257.94 481.99"/><polygon class="cls-2" points="258.24 508.9 257.98 507 258.9 514.25 258.24 508.9"/><path class="cls-2" d="M282.54,753l-.4,1.35C282.37,757.25,282.93,757.85,282.54,753Z"/><path class="cls-2" d="M285.18,582.08c.2-.4.45-1,.78-1.57a4.65,4.65,0,0,1,1.11-1.49,1.51,1.51,0,0,1,.62-.2,2,2,0,0,1,.78.1,6.5,6.5,0,0,1,1.73,1,5.18,5.18,0,0,0-1.92-1.18,1.56,1.56,0,0,0-1.46.25,4.9,4.9,0,0,0-1,1.55A11.94,11.94,0,0,0,285.18,582.08Z"/><path class="cls-2" d="M312.66,535.52c.14,1.15.27,2.31.37,3.47-.14-2.19-.36-4.37-.57-6.55C312.55,533.46,312.59,534.49,312.66,535.52Z"/><path class="cls-2" d="M146.13,177.21c.18.08.57,0,.47-.24l-.67-.14Z"/><path class="cls-2" d="M147.25,175.46a1.54,1.54,0,0,0-1.51-.33c.65.24.39.33,1.16.59.1.24-.18.45-.43.42.18.08-.12.39.3.5.5-.35.49-.77,0-1.17C147,175.37,147.13,175.45,147.25,175.46Z"/><path class="cls-2" d="M143.81,151.12l0,.18A.29.29,0,0,0,143.81,151.12Z"/><path class="cls-2" d="M133.51,141.58a.19.19,0,0,0,.1-.21C133.53,141.46,133.46,141.54,133.51,141.58Z"/><path class="cls-2" d="M130.72,142.43l.16-.06C130.8,142.36,130.72,142.37,130.72,142.43Z"/><path class="cls-2" d="M143.81,151.12l.08-.45C143.67,150.71,143.8,150.92,143.81,151.12Z"/><path class="cls-2" d="M145.38,172.25a.48.48,0,0,0,.2.2.82.82,0,0,1-.09-.19Z"/><path class="cls-2" d="M146.1,157.52l0,.12.29,0Z"/><path class="cls-2" d="M147.29,162.59c0-.12-.55-.05-.8-.05.24,0,.36.08.42.18A1.56,1.56,0,0,0,147.29,162.59Z"/><path class="cls-2" d="M147.53,170.88l.1.13S147.57,170.92,147.53,170.88Z"/><path class="cls-2" d="M145.29,153.87a.82.82,0,0,0,.19-.1A.69.69,0,0,0,145.29,153.87Z"/><path class="cls-2" d="M84.42,154.13l.1,0C84.46,154.09,84.41,154.09,84.42,154.13Z"/><path class="cls-2" d="M86,147.68l0,.07.31,0Z"/><path class="cls-2" d="M126.34,145.51h0C126.41,145.35,126.36,145.42,126.34,145.51Z"/><path class="cls-2" d="M115.08,141.07c.06.74-1.08-.11-.86.85C114.31,141.7,115.36,141.78,115.08,141.07Z"/><path class="cls-2" d="M145.44,172.12a1.49,1.49,0,0,1,0-.21A.33.33,0,0,0,145.44,172.12Z"/><path class="cls-2" d="M114.22,141.92h0l0,.09Z"/><path class="cls-2" d="M121.4,156.61a.71.71,0,0,0,.27-.08A.47.47,0,0,0,121.4,156.61Z"/><path class="cls-2" d="M125.42,148.66l-.18.15A.57.57,0,0,0,125.42,148.66Z"/><path class="cls-2" d="M121.82,161.31c0,.12-.13.16,0,.32,0,0,0,0,.06,0A.18.18,0,0,1,121.82,161.31Z"/><path class="cls-2" d="M125.37,163.8l-.1.1,0,.14Z"/><path class="cls-2" d="M88.66,167.18a1.56,1.56,0,0,1,.4-.37C88.71,167,88.34,166.45,88.66,167.18Z"/><path class="cls-2" d="M145.7,172.22c-.15,0-.22,0-.26-.1a.78.78,0,0,0,.05.14A.35.35,0,0,0,145.7,172.22Z"/><path class="cls-2" d="M126.25,161.32c0,.2,0,.4,0,.6A2.32,2.32,0,0,0,126.25,161.32Z"/><path class="cls-2" d="M97.07,156.07l.05.17A.15.15,0,0,0,97.07,156.07Z"/><path class="cls-2" d="M126.54,163.65a1,1,0,0,0-.33.41.65.65,0,0,0,.16,0Z"/><path class="cls-2" d="M89.06,166.81Z"/><path class="cls-2" d="M86.24,162.78c.19.67.79.09,1.23.09.46.71-.39.53-.66.92.35.42,1.12.57,1.21.93-.1.07-.12.15-.29.12.73.31.57,1.5,1.47,1.82a.51.51,0,0,1-.14.15,2.87,2.87,0,0,1,.92-.45c.12.28.63.35.22.63,0-.18-.24-.12-.41-.15l.31.22c-.55.52-.38-.31-.86-.13.44.5,1.22,1,1.22,1.47-.6.35-.62-1-.95-.13l0-.79c-.8.92-.1-.44-1,.45.17,1,.72.9.91,1.87.43.06.49-.27.92-.22,1.15,1-1.15,1.67.08,2.25.52.06,1.34-.19,1.23.64l-.8.1c.32.89,1.22,0,1.16,1.14-.34,0-.54-.57-.56-.4-.28.84.58.23.79.67l-.57.38c.53.87,1.46,1.65,2.07,2.57-.21,0-.48,0-.55.29l.12.15,9.58,11.94-5.33-13.38a7.16,7.16,0,0,1-.06-4l-.64-.42c0-.11.24-.23.36-.13.17-.51-.37,0-.62-.19-.07-.28.29-.41.49-.25-.6-.81-1.29-2.42-.71-3.39l.18.18c.21-.73-1.24-.77-.71-1.47l.1.13c.21-1.58-.31-3.34.62-4.51-.84-.26.45-1.53-.71-1.7.64-.86.83-.59,1.33-1.8.08-.33-.68-.57-.76-1l.61.06-.58-.64.77-.21-.11-.4a.48.48,0,0,1-.49.24,1.28,1.28,0,0,1,.94-1.38l-.29-1.48c.24.08.28.32.41.52-.49-.82.66,0,.21-.76-.15.06-.35-.12-.47-.16a1.86,1.86,0,0,0,.59-1.56l.39.21c.36-.92.4-2.06.84-3.08-.33.29-1-.06-.92-.41l.65.13c-.29-.36-.36.23-.64-.38.25-.36.79.05.89.35v-.55c.18.06.23.21.44.34-.28-.37.94-.48.46-1l.18.07c.25-.47.4-.81.55-1.13a3.94,3.94,0,0,1,.51-1c-.42-.35-.14-.56-.31-1a16.15,16.15,0,0,0,1.85-1c.23-.5-.17-.46-.17-.87a.65.65,0,0,0,.54.2c.17,0,.27.06.22.29.66-.43.78-.57,1.67-1.2-.15-.18-.31-.25-.28-.43s.49.12.5.37l0,.07a.87.87,0,0,1,.91-.2,2.28,2.28,0,0,1,.92.46c.57.41,1,.85,1.57.53l-.07,0a6.08,6.08,0,0,1,1.14-.07c.38.31-.43.2-.28.65a1.44,1.44,0,0,1,1.36.48,2,2,0,0,0,1.1.77c-.23.81.25,1.23.8,1.7s1.16,1,1.12,1.69l.24-.27c.45,0,0,.39.11.61.2-.2.07-.44.33-.42,1.8,1.67,2.34,4.39,3,6.68.27.83,1.89-.29,1.56,1.09l-.74,0c1.44,1.37,1.26,3.43,2.32,5-.17-.06-.36,0-.4-.19-.38.48.29,1.34.67,1.27,0,.28-.33.14-.49.34-.21.42.79.81.34,1.09-.07,0-.17-.08-.22-.14.27.2.12,1.12.63.81-.13.6.26,1.09.21,1.57l4.62-.76a.79.79,0,0,1,0-.22c-.66-.2.11-1.09-.78-1.06.89-.09.63-1.15.17-1.53.27.12.27-.35.65-.21,0-.44-.18-.84-.64-.77.52-.41.34-.81.2-1.21s-.27-.74.46-.88a10.24,10.24,0,0,1-.07-4c.84.34-.36,1.33.59,1.55,0-1.17-.52-2.12.17-3.12.23-.22.28.33.38.48.13-1.24,1.08-2,1.24-3.09a.49.49,0,0,1,.08.32c.09-.19.37-.32,0-.54l0,.24c-.34,0-.49-.38-.57-.75s-.07-.77-.18-.88c.72,1,.89-.69,1.71.69a.58.58,0,0,0-.26-.56c.19-.12.35-.06.47.3.3-.7-.2-.79.26-1.29.15.14.11.29.24.5-.07-.51-.12-1.06.43-1.33.06.11.22.18.09.29.64-.72.58-1.92,1.7-2.3.24.88.48,0,.95.61l.34-.49-.38-.18c.41-.28.55-1,1.06-1l-.19.45.78-.58h-.61c.29-.59-.49-.81.24-1-.11.13.5-.23.9.09h0c.14-.31.33-.64.74-.55.14.21.12.82.21,1,.12-.69.72-.29,1.11-.86a1.31,1.31,0,0,0-.2.61,4.25,4.25,0,0,1,.27-.46c.14.22.12.3,0,.59.18.12.25-.09.31-.29s.13-.36.32,0c-.06,0-.09.08-.21.09a4.87,4.87,0,0,0,.73.6,1.5,1.5,0,0,1,.59.92c-.57.52-.46-.47-.9.05.58.7,1.71,1.75,2,2.9v-.23c1.06-.2-.2,1,.46,1.39-.12-.11-.62,0-.5,0,.1.81.77,1.46,1.45,2.52l-.3-.06a8.79,8.79,0,0,0,.25,1.75c.31.07.35.36.68.08-1.06,1.93,1.61,2.69.7,4.37,0-.16-.33-.33-.3-.2l.52,1.09c.43-.19.24-.21.53-.54a.94.94,0,0,1,.65.65c-.42-.45-.72.18-.91.46.12-.07.29,0,.43-.08-.66.79.94-.11.58.85h-.25c.19.28.57.5.57.86-.49.25-.31-.29-.75-.21.13.46,1.2.72.76,1.26-.18-.17-.25-.46-.44-.63-.51.59-.35.61-.38,1v0l-.12.85.13-.24c1.48.33.48,1.16,1.52,1.8-1-.63-.52,0-1.13,0-.13.24-.26.58-.44.52.55.29-.27.68.52,1.1-.19.05,0,.41-.45.4.23.46.31-.17.56-.17.79.66-.52,1.89.53,2.86.49.89,1.16,1,1.59,1.84-.27.33-.73-.17-.73-.17a1.22,1.22,0,0,0,.13,1.3c-.18-.08-.32,0-.52.19.09.36.73.17.49.68a2.73,2.73,0,0,1-.81-.29c.22.41.62.8.83,1.23-.33.14-.53-.23-.77-.36.19.48.41,1.26,1,1.37l.17-.34c0,.19-.46.13-.56,0-.46-.39.13-.63.32-.67l.15.3c1.12-.42-.28-1.26-.28-1.89l.85.18-.75-.58c.2-.16.65-.31.81,0,.36-.51-.33-.38.08-.82a.08.08,0,0,1,.14,0l-.3-.42c.19.06.58-.15.49.14.38-.86-.77-1.22-.18-1.6l.05.06c-.42-1.08-.62,0-1.44-.77l1.41-.77-.61,0c0-.12,0-.36.26-.35-.47-.37-.25.11-.67-.08.46-.63-.5-1.48.44-1.76-.49-.12-.27.59-.68.05,1-.34-.29-.65.09-1.23.56.06.37.59.75,0-.95-.14,0-1-.23-1.41-.71.11-.48-.87-.85-1.53.25,0,.1-1.42.22-2.14h.12c-.74,0-.77-.68-1-1.14a.88.88,0,0,1,.88.19l-.12-.46a.77.77,0,0,1-.56-.46h.56c-.17-.62-.94-1.08-.78-2-.51.09-1.22,1-1.76.24.25-.1.7-.25.87-.06-.05-.06-.29-.2-.21-.37l.54.21c.1-.41-.43-.08-.46-.38.38-.1.21-.29.52-.33.06.07-.08.3.09.37a1.32,1.32,0,0,1,.35-1c-.2.09-.51.14-.62-.08-.2-.6.4-.34.49-.75-.3-.08-.14-.55-.71-.39,0-.18.2-.29.33-.4-.34-.25-.51-1.46-1-.92l0,.09s0,0,0,0h0c-.87-.85-.34-2.24-.93-3.17l.19-.06c-.42-.53-.58-1.3-1.14-1.59-.06-.17.19-.54.44-.54-.31-.41-.53-.37-.48-1.17.5.35.23-.26.42.4-.06-.66.17-1-.63-1.42.57,0,.34-.77,0-1,0,.22,0,.43-.07.64a5.49,5.49,0,0,1-.55-1l.67-.19c-.11-.94-1.18-1.57-2-1.72a3.66,3.66,0,0,1-2.26-.85c-.28.22,0,.31.25.42s.49.27.23.5a7.61,7.61,0,0,1-1.19-.58c-.44-.21-.74-.39-.88-.35-1.21-.06-.67,1.2-1.64,1.34a.79.79,0,0,1,.08,1.19c-.57.2-1.14-.52-.87-.88.13-.09.23-.06.26,0,.14-.18.34-.4,0-.51l0,.25c-.39-.06-1.17.39-1.18-.05-.33.43,0,.44.39.37-.92.08-1.11.67-2,.94.2,0,.46.19.34.27-1.19.47-.17.68-.76,1.26-.59,0-.41-.77-.87,0-.56.15-.51-.41-.46-.69-.31.85-1.29.79-1.7,1.05l.17-.43a1.5,1.5,0,0,1-.41.55l.51.16c-.24.11-.37.28-.52.13.06.41.7.41.69,1.06-.39.08-.44.88-1,.56.83-.62-.56-.32-.06-1a.91.91,0,0,1-.42.46c-.08,0-.08-.11-.06-.19-1.1.4.25.81-.37,1.59-.21-.31-.69-.21-.73,0,.26-.33.6.2.6.65-.6.36-.21.69-.42.94l.31-.24c.23.3,0,.54-.11,1-.26-.11,0-.43-.14-.37.26.72-1.13.61-1.08,1.43-.36.17-.61-.28-.88-.1,0,.89-.81.57-.81,1.49.54,0,.44-.11.65.59l.22-1.36.3,1.06c.16-.35.05-.89.23-1.07.18.53.1.44.53.44-.87.19,0,1.13-.72,1.5l-1.1-.45c-.81.75,0,1.81-.58,2.92l.29-.33c.42.27-.12.75,0,1.17-.38-.11-.56.1-.83.23.29,0-.19.91.58,1.13l-.6.48c-.28,1,1,1.24.85,2.15-.42-.3-.71.13-1-.53,0,.33-.08.62.2.63-.25.19.53.89.15,1.19.19.12.61.15.6.5a.31.31,0,0,1-.19,0c.19,0,.31.52.72.18-.89.8-.17,1.9-.13,2.78l2.1-.35a1.08,1.08,0,0,1,.33-.8c-.2-.66-.47-1.43-.59-2,.12,0,.2,0,.17.09.21-.89-1.21-.29-1-1.29.52-.61.44.42.61.07,1.25-.4-.42-1.08.15-1.88l.12.13c.29-.59-.78-1.05-.94-1.83a.39.39,0,0,0,.19,0,4.84,4.84,0,0,1-1.77-1.88c.57,0,.38.23.81-.09-.19-.29-.74.39-1.12-.19.18-.3.22-.85.71-1.13l.27.6c.54-.58-.34-.78-.37-1.14l.31-.08c-.5-.9-1.22-.57-1.63-1.56l-.17.21c-.94-.18.18-.64-.6-.88l.61-.53a14.14,14.14,0,0,1-1.79-1.32,5.1,5.1,0,0,1,1.91.86c-.17-.34-.7-1.12-1.13-1.09.14.09.4.17.38.36a2.24,2.24,0,0,1-1.74-1.1c1.37-.73-.77-1.85-.16-3-1.28-.74-1.48-2.33-2.76-3.48-.43,1.26-.38-.32-1.15.63-.33-.2-.42-.31-.39-.39-.12-.43-.25-.87-.42-1.31,0-.46.47,0,.62-.21-.64-.63,0-.64-.26-1.27-.16.42-.63.31-1-.13.11.3.19.6.28.89-1.38-.17-.34-1.5-1.85-1.6l.56-.14c-.36-.07-1-.37-1.6-.53a2,2,0,0,0-1.8.24c-.09-.17-.18-.53.15-.54a4.75,4.75,0,0,0-2.76.11,6.06,6.06,0,0,1-2.37.37l0-.32c-.31.16-.37.71-.84.55,0-.13,0-.33-.13-.29s-.6.77-1,.82l.18-.47a2.83,2.83,0,0,0-1,.5,3,3,0,0,0-.59.79,15.26,15.26,0,0,1-.87,1.66c-.62-.67-1.67,0-2.18.42l-.09-.09c-1.25,1.37-1.14,2.9-1.53,4.39-1.31.45-1.66,2.8-2.57,4.12.22-.18.65.23.66.51-.28.29.36,1.09-.42.84l0-.12c-.83.08-.82.85-.93,1.42l1,.29c-1.79,1.22,0,3.77-1.43,4.39.22.37.18.8.41,1.16L92,158.3a7.21,7.21,0,0,0-.26,2.62l-.4-.26c-.06.67,1.6.92,1.61,1.52l-.85.16c0,1.15-.78,2.35,0,3.49-.12,0-.37-.05-.41-.24,0,.55-.5,2.16.65,1.9-.76,0,0,1.21.37,1.8l-.57,0c.75.47,1,.47,1.21,1.18-.06.18-.44.19-.31,0-.24.61.56.4.34,1.12l-.38-.22c0,.6.2.53.65.81a1,1,0,0,1-.49,1.28c.31,0,.76.31.67.67a.33.33,0,0,1-.38-.09c-.23,1.05.86,1.36.43,2.12a.53.53,0,0,0-.3.17,4.75,4.75,0,0,1-.14-1.36c-.51.07-.51.73-1.28.33.37.38,1.11.93,1.28,1.48L97,175.45a.59.59,0,0,1-.13-.32A.53.53,0,0,1,97,175l.08,0a.36.36,0,0,0-.24-.3,1.33,1.33,0,0,0-.08-.51c.34-.25-.12-.73-.22-1-.5.27-.59-.13-.85.41,0-.06.09,0,.2.19a.27.27,0,0,0,.11.1H96c.11.17.24.4.38.66-.36-.09-.7-.21-.57-.65-.39,0-.8,0-1,0,.53-.72.56-1.63,1-1.94-.67-.71-1.1-1.9-2.29-2-.23-.2.16-.41.27-.56.16.1.21.27.39.29-.47-.38-.72-1.41-1.44-1.25,0-.75.77.09.31-.72l.25,0c.43-2.1-2.84-2.09-2.09-4.52,0,.17-.06.25-.17.31-.12-2.37-2.08-4.33-1.65-6.81,0-.68-.43-.62-.88-.92l.55-.28-.84-.48c-.72-.83,1-2-.14-2.91l-.37.24c0-.45-.52-1.3,0-1.33-.08,0-.44-.05-.26-.26l.3-.08-.73-.94c.07-.86,1.25-.11,1.1-1.3-.2-.41-1.13-1.09-1.31-.89a.54.54,0,0,1-.42.55l-.23-.38c-.94.08-1.93-.09-2.4,1.05l.69.61-.4.31-.14-.59c-.35.41,0,.56.35.76a.73.73,0,0,0-.43.39l1,.53c-.34.16-.77-.18-.88.33.47.25.74-.47,1.11,0-.34.42-.7.39-.27.72a.41.41,0,0,1-.52-.09c.35.3.32.92.84,1-.44.46.39,1.16-.47,1.32a1.93,1.93,0,0,1,.93.78c-1.17-.35.23,1.23-.9,1.34,1,.21.81,1.48,1.54,2.11-.08,0-.25-.06-.23-.14,0,.45-.19.65-.29,1,.77-.16,1.14.47,1.71.68-.57.75-1-.05-1.63.32.61-.21.89.74,1.34.4-.33.54-.11.42-.67.82,1-.22.28.32,1,.47-.28.73-.83.43-.34,1C86.75,163.25,86.24,162.78,86.24,162.78Zm7.67,14.07h0l-.18-.27Zm2.7-1.86a3,3,0,0,0,.07.55c-.19.08-.39.06-.4-.07C96.42,175.52,96.48,175.2,96.61,175Zm.13-1.19c.16.14.1.25,0,.33a1.85,1.85,0,0,0-.21-.29h-.08A.84.84,0,0,1,96.74,173.8Z"/><path class="cls-2" d="M95.92,173.79s0,0-.07,0l-.07.16H96Z"/><path class="cls-2" d="M143.78,151.33v0a.21.21,0,0,1-.06.08S143.76,151.35,143.78,151.33Z"/><polygon class="cls-2" points="97.18 157.5 97.04 157.49 97.15 157.61 97.18 157.5"/><path class="cls-2" d="M143.78,158.78a.23.23,0,0,0-.12.12S143.73,158.84,143.78,158.78Z"/><path class="cls-2" d="M144.3,161.82l-.11.46A1.62,1.62,0,0,0,144.3,161.82Z"/><path class="cls-2" d="M144.47,164.19h0Z"/><path class="cls-2" d="M128.66,150.57a.29.29,0,0,0,0,.09C128.63,150.88,128.66,150.75,128.66,150.57Z"/><path class="cls-2" d="M135.64,142.92a1.86,1.86,0,0,1-.2.37C135.63,143.26,135.75,143.22,135.64,142.92Z"/><path class="cls-2" d="M126.26,161.26h0v0Z"/><path class="cls-2" d="M135,143.49a.46.46,0,0,0,.44-.2A.62.62,0,0,0,135,143.49Z"/><path class="cls-2" d="M145.52,174.35l0,.12h.09Z"/><path class="cls-2" d="M145.59,174.47l.08.12C145.67,174.53,145.66,174.48,145.59,174.47Z"/><path class="cls-2" d="M145.83,174.85l-.16-.26C145.68,174.68,145.67,174.8,145.83,174.85Z"/><path class="cls-2" d="M145.49,171.22h-.21A.62.62,0,0,0,145.49,171.22Z"/><path class="cls-2" d="M145.32,170.28c0,.23-.37.62-.2.91l.16,0C145,171.09,145.68,170.46,145.32,170.28Z"/><path class="cls-2" d="M147.27,166l0,.83c.19-.17.45-.4.56,0C148.27,165.64,147.35,167,147.27,166Z"/><path class="cls-2" d="M147.16,163.42c.17.42.31-.06.43-.06C147.35,163.12,147.29,163.07,147.16,163.42Z"/><path class="cls-2" d="M142.4,145.78l.5-.13C142.71,145.35,142.71,145.71,142.4,145.78Z"/><path class="cls-2" d="M138.64,143.92a2.29,2.29,0,0,1-.12.37l.46-.15A2.17,2.17,0,0,0,138.64,143.92Z"/><path class="cls-2" d="M138.87,139.71l.26,0a4.45,4.45,0,0,0-1-.08A4.14,4.14,0,0,1,138.87,139.71Z"/><path class="cls-2" d="M126,164.56l-.21.06-6.52,1.79,2.81-1.18.39-.16c-.15-.21-.81-.13-.62.22l4.17-.69Z"/><path class="cls-2" d="M121.58,151.6c.22-.28.23-.72-.16-.78C121.53,151.11,121.44,151.49,121.58,151.6Z"/><path class="cls-2" d="M92.64,153.38l-.16-.32c0,.19,0,.38.09.56Z"/><path class="cls-2" d="M166.14,135.67c-.17,0-.56,0-.48.11h.67Z"/><path class="cls-2" d="M165,136.36a3.63,3.63,0,0,0,1.5,0c-.64,0-.38-.1-1.14-.14-.09-.08.2-.17.44-.18-.17,0,.13-.15-.29-.16-.5.16-.5.31-.07.42A1.34,1.34,0,0,1,165,136.36Z"/><path class="cls-2" d="M164.87,145.09,165,145A.14.14,0,0,0,164.87,145.09Z"/><path class="cls-2" d="M165.25,150.48s-.09,0-.15,0A.2.2,0,0,0,165.25,150.48Z"/><path class="cls-2" d="M164.66,151.5l0-.06C164.64,151.47,164.61,151.49,164.66,151.5Z"/><path class="cls-2" d="M164.87,145.09l-.18.17C164.9,145.24,164.84,145.17,164.87,145.09Z"/><path class="cls-2" d="M166.67,137.4a.46.46,0,0,0-.18-.06.27.27,0,0,1,.08.07Z"/><path class="cls-2" d="M164.06,142.8v-.05h-.27Z"/><path class="cls-2" d="M163.75,141a4.51,4.51,0,0,0,.79,0c-.23,0-.35,0-.39,0A2.6,2.6,0,0,0,163.75,141Z"/><path class="cls-2" d="M164.44,138l-.08,0Z"/><path class="cls-2" d="M164.09,144.11l-.2,0Z"/><path class="cls-2" d="M162.45,140.52l.09,0S162.45,140.5,162.45,140.52Z"/><polygon class="cls-2" points="164.84 137.98 164.87 138 165.18 137.96 164.84 137.98"/><path class="cls-2" d="M164.21,153.28h0C164.15,153.24,164.17,153.26,164.21,153.28Z"/><path class="cls-2" d="M171.76,165.65c-.47.25-.69-.18-1.19.18C170.78,165.77,171.47,165.91,171.76,165.65Z"/><path class="cls-2" d="M166.6,137.45a.11.11,0,0,1,0,.08A.06.06,0,0,0,166.6,137.45Z"/><path class="cls-2" d="M170.57,165.83h0l-.05,0Z"/><path class="cls-2" d="M165.2,157.07l.23-.08A1,1,0,0,0,165.2,157.07Z"/><path class="cls-2" d="M165.5,154.08l-.07.08A.21.21,0,0,0,165.5,154.08Z"/><path class="cls-2" d="M166.24,158.41c0,.05-.11.07,0,.11l.06,0C166.2,158.49,166.16,158.47,166.24,158.41Z"/><path class="cls-2" d="M166.53,160l.11,0,0,0Z"/><path class="cls-2" d="M163.5,145.13c.15-.06.32-.11.49-.16C163.6,145.06,163.42,144.86,163.5,145.13Z"/><path class="cls-2" d="M166.36,137.43a.6.6,0,0,1,.24,0l0,0Z"/><path class="cls-2" d="M170.62,157.67l0,.26A.46.46,0,0,0,170.62,157.67Z"/><path class="cls-2" d="M165.45,156.1l-.07,0S165.39,156.1,165.45,156.1Z"/><path class="cls-2" d="M170.79,158.62a1.2,1.2,0,0,0-.35.21h.14Z"/><path class="cls-2" d="M164,145h0Z"/><path class="cls-2" d="M162.41,143.59c0,.24.73,0,1.15,0,.26.24-.51.22-.87.38.23.14.92.15.91.29a1,1,0,0,1-.31.06c.61.08.12.53.88.62L164,145c.36-.09.73-.16,1-.2,0,.1.49.11,0,.23,0-.06-.19,0-.34,0l.23.07c-.67.22-.27-.1-.77,0,.26.18.86.33.7.52-.67.15-.29-.34-.85,0l.21-.3c-1,.38.05-.16-1.05.21-.14.36.4.31.27.67.38,0,.54-.11.93-.1.75.35-1.62.65-.67.85.46,0,1.31-.1.91.22l-.78.05c0,.33,1.12,0,.67.42-.31,0-.29-.21-.37-.15-.57.32.45.08.48.25l-.66.15c.16.32.71.62.89,1a1.18,1.18,0,0,0-.61.1c.42.42.09,1-.23,1.56l.61.08s-.25.12-.37.1c-.19.21.37-.06.61,0,.06.1-.31.19-.49.16.54.23,1.21.72.65,1.16l-.19,0c-.19.3,1.24.09.74.43l-.11,0c-.16.6.48,1.14-.32,1.71.85-.06-.28.63.89.46-.52.42-.74.37-1.05.89,0,.13.75,0,.9.18l-.61.11.68.09-.71.24.18.11a.72.72,0,0,1,.43-.19c.31.18-.34.61-.65.67l.61.43a1.14,1.14,0,0,1-.52-.08c.67.17-.63.15,0,.31a2.18,2.18,0,0,1,.49-.06.39.39,0,0,0-.11.67l-.42,0c0,.4.34.77.4,1.21.17-.19.9-.28,1-.16l-.63.16c.41,0,.22-.18.73-.09,0,.17-.71.23-.93.17l.25.16a3.83,3.83,0,0,1-.54.05c.41,0-.59.45.12.44l-.18.05c.06.43.32.59.41.93.56-.08.46.08.92.1-.13.29-.52.65-.42,1,.31.17.48,0,.83,0-.5.1-.4.41-.79.31a1.58,1.58,0,0,0,.67.86,1,1,0,0,1,.45-.16c.1.07-.17.23-.42.26H167c.85.4-1.26,1.47-.13,1.72l-.06,0,.62.35c0,.21-.4-.06-.69.14.93.33,0,.77.64,1.06-1,.38-.5.73-.37,1.09l5.22-1c-.07-.17-.07-.34.21-.54l-.34.1c-.37,0,.17-.17.23-.26-.27.07-.29.18-.49.16-.61-.78.12-1.92.25-2.87,0-.35-1.85.18-1.1-.4l.67,0c-.91-.5-.24-1.36-1-1.87.15,0,.35,0,.36,0,.44-.23-.08-.51-.46-.44,0-.11.34-.09.52-.19s-.66-.23-.21-.39a.25.25,0,0,1,.2,0c-.24-.05,0-.43-.55-.24.22-.3-.33-.42,0-.68-.64,0,.21-.47-.66-.35.9-.15.64-.56.2-.64.27,0,.25-.19.63-.19,0-.18-.24-.31-.69-.2,1-.51-1-.5.36-.92a5.52,5.52,0,0,1-1.27-1.31c.89-.14.18.51,1.11.32-.45-.38-1.26-.51-1.12-1,.11-.14.4,0,.56,0-.44-.38-.07-.88-.62-1.2a.58.58,0,0,1,.26,0c0-.07.1-.2-.3-.13l.12.06c-.57.22-1.28-.11-1.59-.08,1.18,0,.23-.44,1.73-.47a1.08,1.08,0,0,0-.56,0c.07-.09.22-.14.54-.11-.26-.25-.68-.08-.71-.34a4.5,4.5,0,0,1,.52,0c-.41-.07-.81-.14-.68-.38.12,0,.27-.06.28,0-.12-.36-1.12-.48-.81-.94.87,0,.26-.19,1-.32l-.25-.19-.35.15c0-.2-.58-.29-.36-.49l.33.1-.2-.34-.25.24c-.41-.13-.93.16-.76-.12.08,0,0-.2.4-.36h0c-.25-.06-.51-.13-.35-.29s.82-.09,1-.14c-.64,0-.24-.43-.91-.45a2.71,2.71,0,0,0,.62-.06h-.51a.83.83,0,0,1,.53-.17c.06-.28-.92.22-.56-.15,0,0,.11,0,.2,0,.16-.35-.41-.57-.2-.9.73-.19.22.23.83,0-.2-.41-1-.76-.89-1.2l-.07.09c-1.06.08.48-.38-.05-.52a1.58,1.58,0,0,0,.48,0c.13-.3-.34-.54-.72-.92l.27,0c.22-.2.09-.46.19-.65-.28,0-.25-.13-.63,0,1.47-.74-1-1,.27-1.61,0,.06.25.12.25.07l-.3-.39c-.46.09-.27.09-.62.22-.28,0-.5-.12-.52-.22.33.15.74-.09,1-.2-.14,0-.3,0-.44,0,.79-.31-.93.07-.41-.29H166c-.14-.1-.47-.17-.41-.3.52-.11.26.1.7.05-.05-.16-1.05-.22-.53-.43.15.05.17.16.32.21.61-.23.45-.23.53-.37h0l.25-.31-.16.09c-1.41-.06-.3-.41-1.24-.6.89.19.5,0,1.11,0a.93.93,0,0,1,.5-.2c-.5-.09.36-.27-.37-.38.2,0,0-.15.5-.17-.18-.16-.34.08-.58.09-.69-.21.74-.72-.21-1-.41-.3-1.07-.3-1.43-.58a1.16,1.16,0,0,1,.72,0c.27-.2.2-.32,0-.46a1.16,1.16,0,0,0,.52-.1c-.06-.12-.71,0-.44-.21a5.24,5.24,0,0,1,.79.05c-.19-.13-.57-.25-.76-.39a1.71,1.71,0,0,1,.75.08,1.09,1.09,0,0,0-.89-.43l-.18.13c0-.06.46-.08.56,0,.43.11-.17.24-.36.26l-.14-.1c-1.12.22.23.44.18.67l-.83,0,.7.17a1.4,1.4,0,0,1-.8.05c-.39.2.31.11-.13.29a.2.2,0,0,1-.15,0l.26.14c-.17,0-.58.08-.47,0-.45.33.67.4.05.57l-.05,0c.32.36.61,0,1.35.2l-1.48.35.61,0s-.05.12-.3.13c.43.11.27-.05.67,0-.54.25.31.51-.65.66.47,0,.33-.23.68-.05-1,.17.2.22-.26.45-.54,0-.27-.2-.73,0,.92,0-.16.37,0,.5.72-.07.33.3.6.53-.25,0-.34.52-.58.78h-.12c.74,0,.63.22.8.38a1.79,1.79,0,0,1-.82,0l0,.16c.24,0,.37.05.46.15l-.55,0c.06.22.7.37.37.7.51,0,1.39-.39,1.76-.13a2.38,2.38,0,0,1-.86,0s.24.07.12.13l-.47-.06c-.19.15.39,0,.36.13-.39,0-.27.11-.58.13,0,0,.15-.11,0-.13a.9.9,0,0,1-.56.38c.22,0,.53-.06.59,0,0,.22-.46.14-.65.29.28,0,0,.2.6.13,0,.06-.27.11-.42.16.27.08.14.52.75.31l0,0s0,0,0,0h0c.63.3-.23.82.07,1.16l-.2,0c.26.19.2.48.64.58,0,.07-.33.2-.57.21.17.15.39.13.1.42-.36-.12-.29.1-.27-.14-.14.25-.45.34.12.5-.52,0-.61.26-.45.34l.34-.2a.31.31,0,0,1,0,.32l-.66,0c-.74.57,1.48.62.18,1.16.48.05.29-.3.85-.27-.06.22-1,.58-1,.64-.32.34,1,.13.8.46.22-.07.85-.2,1.1,0-.06.22-.95.4-1.15.3,0-.05,0-.08.12-.09a.39.39,0,0,0-.45,0h.24c-.23.14-.16.42-.55.41a.35.35,0,0,0,.49-.12c-.3.32.06.42-.13.73.12-.07.39-.15.4-.11-.23.45.47.11.61.37-.33.21-.86.08-.52.3-.21.21-.61.14-.82.1.5.18-.22.51-.28.67l-.21-.1a.19.19,0,0,1,.14.19l.46-.15c-.07.09-.06.16-.26.19.32,0,.77-.19,1.22-.1-.22.14.3.27-.31.41.16-.36-.62.14-.77-.12.09,0,.09.1,0,.19a.25.25,0,0,1-.17,0c-.5.4.73,0,.77.35-.36,0-.66.19-.57.23,0-.14.57-.16.86-.09-.24.25.24.19.23.31l.1-.15c.36,0,.33.1.47.22-.27.06-.21-.1-.32,0,.64.06-.58.47-.13.62-.22.14-.66.12-.8.24.49.17-.44.35,0,.55.46-.16.34-.15.83,0l-.4-.38.73.16c0-.13-.34-.22-.27-.31.4.07.28.07.66-.06-.67.3.47.28,0,.57l-1.17.19c-.46.4.7.45.47.9l.18-.17c.48,0,.11.24.32.34a2.09,2.09,0,0,0-.75.26c.29-.06,0,.3.81.19l-.48.27c-.15.36,1.17.17,1.1.51-.44,0-.69.17-1,0,0,.1,0,.21.23.16-.23.1.57.19.22.35.18,0,.59,0,.58.08l-.19,0c.19,0,.29.14.7,0-1.15.55.25.88-.73,1.35a2.51,2.51,0,0,1,.42.64c-.12,0-.2,0-.16,0-.31.35,1.14,0,.8.35-.59.29-.37-.1-.59.05-1.26.29.25.35-.45.71l-.09,0c-.39.25.57.31.53.6l-.19,0a1.72,1.72,0,0,1,1.2.58c-.51,0-.28-.06-.78.09.09.1.81-.2,1,0a3.48,3.48,0,0,1-1,.48l-.08-.22c-.67.26.08.28,0,.42l-.31.05c.17.31.94.16,1,.53l.22-.09c.8,0-.39.26.22.34l-.76.22a4,4,0,0,1,1,.49,4.34,4.34,0,0,1-1.32-.31.49.49,0,0,0,.54.41c-.09,0-.29-.06-.18-.14.64,0,1,.17,1,.43-1.5.28-.23.75-1.35,1.19.36.18.31.45.23.74l4.19-.83a1.1,1.1,0,0,0,.1-.71c-1.14.39-.06-.15-1.26.09-.1-.11-.08-.16,0-.18l.66-.5c.33-.15.28.07.55,0,0-.29.5-.2.78-.44-.42.11-.63,0-.49-.17l-.52.31c-.7-.26,1-.49.26-.77l.4.06c-.26-.16-.12-.72-1.12-.75.13-.05.46-.16.56-.09.06-.49-1.21-.86-.67-1.32h.3c-.1-.08-.58-.06-.3-.22.12,0,.3,0,.31-.06s-.56-.14-.41-.29l.35.05c.31-.52-.93-.56-1.19-.91a1.42,1.42,0,0,0,1.2-.76h.12c0-.55-.87-.78-1.3-1.21.9-.46.22-1.1.67-1.67a1.24,1.24,0,0,1-.78,0c.16-.15-.66-.22.14-.33v0c.77-.22.52-.42.51-.61l-1,.15c1.43-.74-.78-1.17.54-1.66-.28-.07-.3-.22-.59-.29l.56-.09a1,1,0,0,0-.07-.89h.42c0-.23-1.66,0-1.73-.21l.82-.2c-.08-.39.59-.91-.23-1.17.12,0,.36-.05.41,0,0-.19.44-.81-.69-.55.74-.13,0-.41-.36-.57l.55-.06c-.73-.06-.92,0-1.16-.25.06-.07.43-.12.3,0,.26-.25-.54-.06-.29-.35l.37,0c0-.21-.18-.17-.61-.21-.24-.09.07-.41.57-.52-.31,0-.74,0-.61-.16a.66.66,0,0,1,.37,0c.31-.41-.73-.4-.23-.72a1.18,1.18,0,0,0,.32-.1c0,.27,0,.5,0,.48.51-.08.56-.32,1.29-.26-.42-.11-1.3-.27-1.09-.52l.17-.06h.06s0-.09-.11-.12c.07-.08.13-.13.13-.2.41-.09.18-.29.18-.4-.55.11-.49,0-.92.16,0,0,.07,0,.1.08s0,0,.07,0H168a2.3,2.3,0,0,1,.08.27c-.29,0-.55-.09-.26-.26h-.92c.75-.28,1.12-.64,1.59-.76-.37-.28-.34-.74-1.42-.77-.15-.08.28-.16.44-.23s.11.11.26.11c-.3-.14-.19-.54-.93-.46.29-.29.69,0,.52-.28h.23c1-.84-2-.72-.66-1.69a.55.55,0,0,1-.25.13c.52-.92-.9-1.56,0-2.54.17-.26-.3-.21-.67-.29l.58-.15-.72-.12c-.56-.25,1.36-.83.34-1.09l-.4.12c.05-.17-.32-.44.15-.5-.08,0-.43,0-.23-.07l.31-.06-.59-.28c.17-.33,1.24-.17,1.23-.6a2,2,0,0,0-1.18-.2c0,.06-.17.19-.48.25l-.19-.12a5.25,5.25,0,0,0-2.46.65l.6.15-.43.15-.06-.2c-.4.19,0,.2.25.24a1.27,1.27,0,0,0-.47.19l.92.09c-.36.09-.73,0-.9.21.42,0,.78-.25,1.08-.1-.4.19-.74.21-.36.29a1,1,0,0,1-.5,0c.3.07.17.3.67.28-.49.21.21.4-.67.53.22,0,.72.1.78.21-1.08,0,0,.44-1.11.57,1,0,.51.48,1.07.67-.08,0-.23,0-.19,0-.05.16-.32.26-.48.38a4,4,0,0,1,1.49.15c-.72.31-.93,0-1.64.22.63-.12.68.22,1.2.07a2.5,2.5,0,0,1-.84.34c1-.14.19.11.8.12-.44.29-.89.21-.56.39A.84.84,0,0,1,162.41,143.59Zm2.59,5.13h0l-.05-.11Zm.09.46a.47.47,0,0,0,0-.2c.19,0,.39-.07.39,0S165.24,149.08,165.09,149.18Zm3.67-1.62c.09.06,0,.1-.12.13a.39.39,0,0,0-.09-.11h-.07Z"/><path class="cls-2" d="M168,147.56s0,0,0,0l-.12.07H168Z"/><path class="cls-2" d="M165,145v0a.09.09,0,0,1,.07,0Z"/><polygon class="cls-2" points="165.09 155.64 165.23 155.62 165.1 155.6 165.09 155.64"/><path class="cls-2" d="M166.57,142.26l.14,0Z"/><path class="cls-2" d="M166.57,141.16l.18-.18A1,1,0,0,0,166.57,141.16Z"/><path class="cls-2" d="M166.76,140.3h0Z"/><path class="cls-2" d="M169.2,153.41l0,0C169.35,153.49,169.3,153.45,169.2,153.41Z"/><path class="cls-2" d="M167.29,149.69a.92.92,0,0,1,.28.09C167.6,149.7,167.61,149.64,167.29,149.69Z"/><path class="cls-2" d="M170.62,157.64h0s0,0,0,0Z"/><path class="cls-2" d="M167.59,150c.1-.09.07-.14,0-.18S167.5,149.91,167.59,150Z"/><path class="cls-2" d="M166.65,136.65l0,0h-.09Z"/><path class="cls-2" d="M166.58,136.61l-.07,0S166.52,136.61,166.58,136.61Z"/><path class="cls-2" d="M166.36,136.49l.15.08S166.53,136.5,166.36,136.49Z"/><path class="cls-2" d="M166.5,137.78h0Z"/><path class="cls-2" d="M166.59,138.11c0-.08.41-.24.27-.34h-.16C167,137.8,166.24,138.07,166.59,138.11Z"/><path class="cls-2" d="M164.22,139.77l.14-.3c-.22.07-.5.17-.56.05C163.19,139.94,164.27,139.39,164.22,139.77Z"/><path class="cls-2" d="M164,140.69c-.11-.14-.31,0-.43,0C163.77,140.8,163.83,140.82,164,140.69Z"/><path class="cls-2" d="M164.77,147.06l-.51.05C164.35,147.22,164.46,147.08,164.77,147.06Z"/><polygon class="cls-2" points="167.56 147.91 167.85 147.75 167.38 147.76 167.56 147.91"/><polygon class="cls-2" points="164.05 149.13 163.97 149.09 164.18 149.26 164.05 149.13"/><path class="cls-2" d="M166,159.77l.61-.16C166.48,159.56,165.78,159.67,166,159.77Z"/><path class="cls-2" d="M167.53,164.21c-.29.12-.47.29-.15.3C167.4,164.4,167.62,164.25,167.53,164.21Z"/><polygon class="cls-2" points="170.28 156.01 170.5 156.06 170.3 155.92 170.28 156.01"/><path class="cls-2" d="M159.81,120.7c.17,0,.56,0,.49,0l-.66-.07Z"/><path class="cls-2" d="M161.05,120.71c-.32-.06-.87-.21-1.47-.3.62.15.36.11,1.1.25.08,0-.21,0-.45,0,.16,0-.15,0,.26.07s.53,0,.12-.06Z"/><path class="cls-2" d="M162.46,120.91l-.06,0Z"/><path class="cls-2" d="M162.94,121.24l.09,0Z"/><path class="cls-2" d="M163.43,121.45h0Z"/><path class="cls-2" d="M162.46,120.91l.16.08Z"/><path class="cls-2" d="M159.58,120l.15.07-.06,0Z"/><path class="cls-2" d="M162.76,121.05h0l.22.11Z"/><path class="cls-2" d="M162.76,121.08l-.67-.31.32.15Z"/><path class="cls-2" d="M161.73,120.79l.07,0Z"/><path class="cls-2" d="M162.91,121.12l.16.08Z"/><path class="cls-2" d="M158.33,117.88l.09.06Z"/><polygon class="cls-2" points="160.87 119.34 160.9 119.36 161.24 119.61 160.87 119.34"/><path class="cls-2" d="M163.9,121.64h0S163.92,121.65,163.9,121.64Z"/><path class="cls-2" d="M163.31,121.63l-1.2-.13Z"/><path class="cls-2" d="M159.65,120.06s0,0,0,0S159.63,120.05,159.65,120.06Z"/><path class="cls-2" d="M162.11,121.5Z"/><path class="cls-2" d="M163.64,121.65l-.17,0Z"/><path class="cls-2" d="M163.18,121.48h0Z"/><path class="cls-2" d="M163,121.59h0Z"/><path class="cls-2" d="M163,121.61h0Z"/><path class="cls-2" d="M158.22,118.58l.45.23C158.32,118.63,158.2,118.53,158.22,118.58Z"/><path class="cls-2" d="M159.87,120.14l-.22-.08h0Z"/><path class="cls-2" d="M157.69,120.92l.13,0A.36.36,0,0,1,157.69,120.92Z"/><path class="cls-2" d="M158,120l-.07,0S158,120,158,120Z"/><path class="cls-2" d="M157.71,121l.55.07-.2,0Z"/><path class="cls-2" d="M158.68,118.81h0Z"/><path class="cls-2" d="M157.61,118a9.78,9.78,0,0,0,1,.59c.16.14-.49-.25-.82-.42.16.12.74.46.71.46l-.28-.15c.5.3,0,.08.63.45l-.16-.08.89.47s.41.24,0,0l-.29-.17.18.11c-.62-.31-.2-.12-.66-.36.19.13.69.41.51.34-.61-.3-.19-.15-.74-.4l.25.09c-1-.47.07,0-1-.49-.19,0,.29.21.1.16l.83.43c.6.35-1.55-.71-.75-.27.4.21,1.18.59.76.42l-.7-.34c-.08,0,1,.5.51.31a2,2,0,0,1-.3-.17c-.57-.23.39.21.38.23l-.62-.29c.08.09.52.34.63.44a6,6,0,0,0-.58-.25c.3.19-.11.09-.51,0l.56.25-.37-.14c-.22-.06.36.14.58.24a4.52,4.52,0,0,1-.5-.19c.47.23,1,.51.41.32l-.17-.07c-.24,0,1.18.46.64.3l-.1,0c-.26,0,.28.23-.61,0,.85.28-.39,0,.81.33-.59-.15-.81-.22-1.22-.29-.05,0,.76.25.89.3l-.63-.18.67.21-.77-.2.17.06.47.12c.29.11-.44-.06-.77-.15l.55.21a4.24,4.24,0,0,1-.52-.16c.66.21-.68-.17-.08,0l.52.14c-.39-.09-.4-.05-.23,0l-.45-.11c-.11,0,.22.15.22.2.21,0,1,.21,1.09.24l-.7-.15c.43.11.26,0,.8.18a10.39,10.39,0,0,1-1-.23l.25.08-.59-.14c.44.11-.71-.11.06.07l-.22,0s.25.12.29.17c.63.12.49.11,1,.22a3.09,3.09,0,0,0-.62,0c.32.08.54.1.92.18-.58-.1-.52-.06-.94-.15a1.8,1.8,0,0,0,.62.19l.54.08a3.42,3.42,0,0,1-.52-.07h-.06c.91.18-1.69-.13-.44.08H158l.67.13c-.1,0-.46-.07-.83-.11,1,.17-.12,0,.57.16-1.82-.18.17.1-1,0l.44,0c.43,0-.25,0-.35,0l.63,0c.57.09-.58.06-1,0-.12,0,2.41.19,1.31.11l-.87-.07c1.06.11,0,0,.89,0l-.48,0c-.66-.06,0,0,.52,0l-.77-.07c-.4,0,.86.06.19,0l-.27,0c.33,0-.08,0,.7,0-.38-.06.35,0-.12-.08.9.09-.43-.09.84,0-1.31-.15-1.06-.17-.43-.11l-1-.13a4.78,4.78,0,0,1,1,.09c-.59-.09-.57-.1-.42-.09h0c.27,0,1,.09-.36-.12a14.93,14.93,0,0,0,1.6.06c-1.41-.25-.15.07-1.62-.19.57,0,1.79.19,1.46,0s-.62-.11-.86-.15a1.26,1.26,0,0,0,.26,0l.42,0c.25,0,.55,0,1,.12l-.36-.07a1.42,1.42,0,0,1,.5.09l-.2,0c.23.08.66.17,1,.24l.66.14c-1.14-.29-.28-.13-1.71-.5l.52.13a3.78,3.78,0,0,0-.53-.15c.22,0,.64.15.63.11l-.48-.14c.37.09.74.19.58.11l-.26-.07c.05,0,1,.24.61.07-.8-.27-.29-.12-1-.4l.13,0,.4.16c-.09-.05.44.13.13,0l-.28-.1a.05.05,0,0,1,0,0l.37.16c.38.13,1,.41.77.29l-.57-.25h0c.27.1.57.22.34.11l-1.17-.47c.74.29.2,0,1,.36l-.74-.31.6.25-.65-.28c-.11-.07,1.1.47.62.24l-.22-.09c-.25-.13.35.12,0,0l-.92-.39c.15,0,1,.39.77.27l.1,0c1.15.53-.59-.28-.05,0l-.51-.23c-.19-.1.27.1.6.25l-.29-.13-.3-.15.64.3a4.17,4.17,0,0,0-.55-.26l-.24-.12.23.12.64.3.46.21-1-.46.43.2c-.82-.38.91.43.34.17l-.23-.11c.11.06.41.2.33.17l-.65-.31s.95.45.42.21l-.27-.13-.56-.25h0l-.29-.12.17.07c1.31.6.21.12,1.05.52-.79-.37-.47-.22-1-.47l-.51-.21c.45.21-.37-.15.28.16l-.48-.2a5.8,5.8,0,0,0,.55.23c.6.28-.8-.26,0,.13.33.18,1,.43,1.24.57-.3-.11-.66-.27-.66-.27-.28-.08-.24,0,0,0l-.5-.18s.66.25.38.18l-.73-.28.65.34a3.9,3.9,0,0,1-.69-.26,1.47,1.47,0,0,0,.78.36l.19,0a4.39,4.39,0,0,1-.54-.13c-.4-.15.19,0,.38,0l.12.06c1.1.3-.17-.13-.08-.15l.77.29-.63-.26c.2.07.64.23.75.29.39.13-.27-.12.17,0l.13.05-.22-.09a3.61,3.61,0,0,1,.43.17c.45.15-.56-.26,0,0l0,0c-.24-.13-.56-.23-1.21-.52l1.4.56-.55-.23.29.11-.6-.25c.52.2-.19-.13.68.25l-.6-.26c.93.4-.14-.08.3.11l.64.29c-.79-.36.2.07,0,0a2.44,2.44,0,0,1-.43-.21l.61.27.1,0-.59-.28.65.31h0l-.35-.16.44.21s-.5-.24-.19-.1l-1.5-.71.78.37-.07,0,.36.17-.27-.13.48.23h0l.49.23-.45-.21.54.25-.44-.2.34.16-.51-.24,0,0h0c-.41-.19.3.15.13.08l.14.06-.37-.16.44.2c-.1,0-.26-.11,0,0l.17.07c.13.07.35.16,0,0l.35.16-.26-.11h0l.46.2c.56.25-.91-.37,0,0l-.59-.25.72.3c.25.11-.64-.25-.46-.17-.16-.06-.58-.23-.72-.27l.78.3-.09,0,.29.11-.15-.06.4.16-.34-.13c.23.09,0,0,.17.08l-.26-.09c.2.08-.28-.1-.34-.11.23.09.54.19.36.14l.52.17c-.29-.09.19.08.24.09l.12,0-.06,0-.3-.09.18.05-.77-.23c.15,0-.16,0,.24.09a3.36,3.36,0,0,1,.46.13h0l.11,0c.35.11-.45-.13-.44-.11l.38.1-.55-.14c.18.05-.13,0-.11,0l-.08,0a1,1,0,0,0-.27,0l.2,0c-.4-.08.4.12.13.06l.53.12c-.3-.06.31.07.06,0l-.54-.1.23,0-.46-.08.16,0-.43-.09c.45.1-.29,0,0,0l.77.15c.35.07-.41-.06-.23,0l-.13,0-.19,0,.53.09-.54-.07.36,0a3,3,0,0,1-.41,0h0l-.32,0,.74.09-.15,0c.17,0-.4,0-.13,0l-.41,0,.14,0-.52-.06c.89.11-.13,0,.66.1h-.14c.28,0-.9-.08-.6,0l.47,0a3.35,3.35,0,0,1,.44,0h.06c.36,0-.42,0-.36,0h.17l-.94-.07.67.06-.85-.07.91.07h0c.6,0,0,0,.06,0l.27,0-.76-.06-.21,0c-.7-.06.38,0-.15,0l.71,0-.87-.08,1.15.1-.43,0,.15,0-.88-.09,1.44.12c-.56,0,.2,0,.11,0l-1.24-.14c-.09,0-.07,0,0,0l.71.07.55.07.84.09-.47,0-.56-.07c-.67-.09,1,.12.37,0l.4,0-1-.15.58.09c.16,0-1.12-.19-.49-.1l.32.06-.28,0,.34,0-.38-.07.36.06c.42.07-.9-.16-1.14-.22l1.43.26.14,0-1.22-.28c1.07.23.43.07,1,.21l-.89-.22c.2,0-.72-.19.22,0h0l.7.18-1.23-.33c1.79.47-.69-.23.93.22l-.63-.19.68.2c.17,0,.25.07.09,0l.48.16-2-.66,1,.33s.87.28-.06,0l.49.18s.69.23-.72-.27c.92.33.09,0-.32-.14l.68.25c-.86-.33-1.1-.42-1.34-.53l.37.15c.35.12-.65-.26-.29-.13l.44.17c.05,0-.19-.08-.69-.29-.28-.11.17,0,.78.3l-.7-.3.45.19c.46.17-.79-.36-.12-.09l.4.17-.1,0,1.6.67c-.47-.2-1.5-.65-1.2-.53l.22.09.07,0-.11-.05.19.08c.52.23.28.12.31.13l-1.14-.52.11.06.07,0-.06,0,0,0c-.35-.16-.64-.3-.26-.13l-1.11-.51,2.07.92-1.53-.78.57.27.29.15c-.32-.17-.12-.08-1-.53.4.18.82.42.68.33l.27.14c1.42.72-2.24-1.25-.41-.32l-.31-.16c.8.4-.68-.53.58.18.25.14-.29-.2-.7-.46l.7.43-.79-.52c-.56-.39,1.71,1.07.63.35l-.45-.31c.09.06-.25-.2.27.16-.08-.06-.46-.32-.23-.17l.36.24-.58-.42,1.45,1-1.21-.88-.57-.39-.16-.14c-.86-.61-1.58-1.15-2.17-1.51l.45.36-.38-.26v0c-.37-.23-.06,0,.15.15l-.43-.28.72.54a8.76,8.76,0,0,0-.77-.52c.33.24.69.45.9.63-.37-.24-.65-.43-.36-.22l-.41-.28a4.59,4.59,0,0,0,.48.38c-.45-.28.08.11-.66-.37.17.12.56.4.58.43-.87-.6-.08,0-1-.61.8.53.32.3.74.6-.06,0-.19-.12-.14-.1s-.33-.17-.49-.25c.67.41.8.53,1.21.79-.66-.37-.78-.48-1.41-.85.54.33.52.36,1,.63l-.77-.43a5.54,5.54,0,0,1,.64.42c-.43-.22-.8-.45-.55-.27A6.16,6.16,0,0,1,157.61,118Zm1.25,1.45h0l0,0Zm0,.06s0,0,0,0a2,2,0,0,1,.36.16C159.12,119.56,159,119.53,158.86,119.47Zm4.34,1.81c.09,0,0,0-.18-.07l-.08,0-.09,0Z"/><path class="cls-2" d="M162.3,120.88l-.05,0-.16-.06.22.09Z"/><path class="cls-2" d="M162.39,120.88h0l-.07,0Z"/><polygon class="cls-2" points="157.73 119.85 157.88 119.9 157.75 119.85 157.73 119.85"/><path class="cls-2" d="M160.47,120l-.14-.06Z"/><path class="cls-2" d="M160.28,119.93l-.21-.08Z"/><path class="cls-2" d="M160,119.84l.23.1h0Z"/><path class="cls-2" d="M159.82,120.63h0Z"/><path class="cls-2" d="M161.07,120.48l-.28-.1C160.72,120.34,160.69,120.33,161.07,120.48Z"/><polygon class="cls-2" points="157.68 120.92 157.69 120.92 157.69 120.92 157.68 120.92"/><path class="cls-2" d="M160.85,120.42c-.15-.07-.14-.07-.06,0S160.93,120.44,160.85,120.42Z"/><path class="cls-2" d="M159.45,120.27h0l.09,0Z"/><path class="cls-2" d="M159.52,120.3l.06,0S159.57,120.32,159.52,120.3Z"/><path class="cls-2" d="M159.71,120.4l-.13-.07S159.55,120.36,159.71,120.4Z"/><path class="cls-2" d="M159.79,120.06l-.19-.07Z"/><path class="cls-2" d="M159.75,120s-.41-.13-.3-.07l.15.06C159.32,119.88,160.07,120.14,159.75,120Z"/><path class="cls-2" d="M162.17,120.86l-.16,0,.51.21C163.12,121.26,162.07,120.84,162.17,120.86Z"/><path class="cls-2" d="M162.5,121l.38.17Z"/><path class="cls-2" d="M162.81,121.1l.37.17Z"/><polygon class="cls-2" points="160.42 120.08 160.06 119.92 160.59 120.15 160.42 120.08"/><polygon class="cls-2" points="163.56 121.46 163.61 121.48 163.49 121.43 163.56 121.46"/><path class="cls-2" d="M163.35,121.65l-.48-.05Z"/><path class="cls-2" d="M162.64,121.61c.27,0,.45,0,.17,0Z"/><polygon class="cls-2" points="163.33 121.5 163.58 121.57 163.38 121.51 163.33 121.5"/><path class="cls-2" d="M217.7,161.46c-.13-.12-.5-.26-.49-.09l.55.37Z"/><path class="cls-2" d="M216.17,161.85a2.39,2.39,0,0,0,1.24.87c-.5-.43-.25-.35-.85-.84,0-.17.3-.15.51,0-.13-.12.23-.15-.11-.4-.55,0-.67.17-.4.58A1,1,0,0,1,216.17,161.85Z"/><path class="cls-2" d="M213.12,149.68l-.07.1A.17.17,0,0,0,213.12,149.68Z"/><path class="cls-2" d="M211.11,140.64a.14.14,0,0,0,.17,0C211.22,140.63,211.16,140.6,211.11,140.64Z"/><path class="cls-2" d="M211,138.82s0,.07,0,.11S211.1,138.81,211,138.82Z"/><path class="cls-2" d="M213.12,149.68l.16-.27C213.07,149.42,213.14,149.55,213.12,149.68Z"/><path class="cls-2" d="M213.66,162.67a.45.45,0,0,0,.22.05l-.12-.09Z"/><path class="cls-2" d="M214.27,153.49l0,.07h.27Z"/><path class="cls-2" d="M215,156.37c0-.07-.54,0-.79.06.24,0,.36,0,.41.06Z"/><path class="cls-2" d="M215.44,161.07l.1.05Z"/><path class="cls-2" d="M214.05,151.34a1.24,1.24,0,0,0,.19-.05Z"/><path class="cls-2" d="M181.64,140.85l.1,0C181.68,140.82,181.64,140.83,181.64,140.85Z"/><polygon class="cls-2" points="183.18 136.63 183.23 136.67 183.53 136.58 183.18 136.63"/><path class="cls-2" d="M209.87,135.71v0C210,135.76,209.93,135.73,209.87,135.71Z"/><path class="cls-2" d="M189,144.86c.52-.27.62.52,1.2.1C190,145,189.39,144.51,189,144.86Z"/><path class="cls-2" d="M213.69,162.56l-.06-.12A.17.17,0,0,0,213.69,162.56Z"/><path class="cls-2" d="M190.24,145h0l.05,0Z"/><path class="cls-2" d="M203.24,131.47a.75.75,0,0,0,0,.26A.73.73,0,0,0,203.24,131.47Z"/><path class="cls-2" d="M207.74,135.05l-.05-.15A.24.24,0,0,0,207.74,135.05Z"/><path class="cls-2" d="M200.17,131.69c-.08-.05-.1-.13-.21-.06l0,.07C200,131.63,200.09,131.59,200.17,131.69Z"/><path class="cls-2" d="M197.11,131.91l.09.1.08,0Z"/><path class="cls-2" d="M184.38,148.29a2.89,2.89,0,0,1,.44-.27C184.46,148.18,184.2,147.86,184.38,148.29Z"/><path class="cls-2" d="M214,162.53a.44.44,0,0,1-.26,0l.07.07A.56.56,0,0,0,214,162.53Z"/><path class="cls-2" d="M199.79,136.11a1.08,1.08,0,0,0-.29-.09A.82.82,0,0,0,199.79,136.11Z"/><path class="cls-2" d="M194.15,162.26l.07.08S194.21,162.27,194.15,162.26Z"/><path class="cls-2" d="M198.65,136.14a1.14,1.14,0,0,0-.22-.37s0,.08,0,.15Z"/><path class="cls-2" d="M184.83,148h0Z"/><path class="cls-2" d="M182.71,145.84c.11.38.74-.05,1.17-.1.35.38-.45.37-.76.65.28.21,1,.21,1,.43a.47.47,0,0,1-.3.11c.65.11.32.87,1.13,1a.47.47,0,0,1-.16.1,5.1,5.1,0,0,1,.95-.37c.06.17.54.17.1.38,0-.1-.2-.05-.36-.05l.25.11c-.6.37-.3-.17-.79,0,.33.28,1,.5.9.82-.62.27-.42-.54-.87,0l.11-.49c-.92.65,0-.27-1,.37,0,.6.53.49.52,1.09.4,0,.52-.22.91-.21.9.54-1.42,1.13-.38,1.4.48,0,1.31-.21,1,.33l-.77.11c.1.54,1.15-.05.83.65-.31,0-.37-.32-.43-.22-.46.54.49.12.58.39l-.62.26c.28.52,1,1,1.27,1.55-.21,0-.44,0-.59.2a3.12,3.12,0,0,1,.32,2.54l.65.1c0,.07-.21.21-.34.17-.12.36.36-.1.62,0,.1.15-.24.32-.45.27.65.36,1.5,1.12,1.08,1.86l-.2,0c-.08.49,1.3.09.91.65l-.12,0c.06,1,.9,1.83.29,2.8.84-.13-.06,1,1.08.71-.39.7-.64.62-.77,1.47l-.33,2.18,5.5-3.35h0c0-.21-.77-.21-.92-.44l.61-.08-.68-.26.71-.27-.19-.21c0,.1-.25.23-.43.23-.32-.33.33-.93.65-1l-.61-.81c.25,0,.35.13.51.23-.66-.39.64-.14,0-.51-.13.07-.37,0-.49,0a.81.81,0,0,0,.12-1.06l.43,0a19,19,0,0,0-.35-2c-.18.27-.92.26-1,.05l.65-.12c-.41-.11-.23.23-.74,0,.06-.28.73-.23,1-.09l-.25-.31a3.94,3.94,0,0,1,.55,0c-.41-.11.62-.6-.09-.75l.19,0a16,16,0,0,0-.33-1.6c-.56,0-.44-.23-.9-.39.16-.44.59-.92.53-1.44-.28-.36-.48-.1-.81-.26.51,0,.45-.55.82-.29a3.58,3.58,0,0,0-.53-1.58c-.21.09-.3.19-.47.14s.21-.33.46-.31l.05,0c-.76-.9,1.51-2,.47-2.74l0,0-.54-.75c.1-.33.38.22.71,0-.82-.82.17-1.23-.36-1.91,1.53-.41,0-1.79,1-2.37h-.36c-.33-.19.22-.18.31-.29-.27,0-.33.15-.51,0-.32-1.47.87-2.79,1.55-3.56.22-.28-1.59-1-.59-1.06l.51.43a.92.92,0,0,1,.32-1.08,1.84,1.84,0,0,0,.63-.91c.05.15.16.31.1.34.39.34.43-.25.29-.6.13,0,.19.31.34.46s.09-.73.35-.3a.23.23,0,0,1,0,.2c0-.24.45-.08.2-.58.34.16.51-.36.8-.1.09-.63.55.25.54-.63,0,.9.56.72.79.3-.08.27.16.3.06.67.22,0,.44-.14.46-.61.15.55.37.39.6.24s.45-.23.39.47a4.15,4.15,0,0,1,2.26-.22c-.43.77-.71-.23-1.07.64.66-.11,1.39-.61,1.8-.07.07.2-.29.28-.41.38a1.16,1.16,0,0,1,.78.38,1.41,1.41,0,0,0,.8.4.38.38,0,0,1-.26.08c.1.06.09.28.37,0h-.15c.28-.57,1.23-.53,1.48-.71-1,.64.19.67-1.15,1.4a.8.8,0,0,0,.52-.24c0,.14-.09.26-.41.38.43.17.68-.21.91.1a3,3,0,0,1-.47.22c.42-.09.86-.15.91.22-.11.05-.22.17-.27.09.35.42,1.41.28,1.4,1.05-.85.24-.15.33-.8.7a2.43,2.43,0,0,1,.35.2l.27-.29c.11.28.72.3.61.64l-.37-.08c.12.15.24.3.35.46l.14-.41c.47.14.85-.41.82.07-.1-.06.12.3-.23.61h0c.28.06.57.13.48.42-.21.14-.8.23-.93.33.64-.08.4.62,1.09.6a1.81,1.81,0,0,0-.61.15l.52,0c-.11.19-.17.23-.48.3,0,.45.87-.41.63.21-.06,0-.12,0-.22-.05-.05.56.59.9.47,1.44-.69.32-.29-.36-.86,0,.31.62,1.21,1.19,1.18,1.91l.05-.15c1.06-.11-.41.61.14.85a1,1,0,0,0-.48,0c-.08.49.43.89.88,1.55l-.29,0c-.19.31,0,.75-.09,1.07.28,0,.26.22.64.06-1.39,1.17,1.1,1.64,0,2.67,0-.09-.27-.19-.26-.11l.37.66c.44-.13.26-.14.59-.35.28.05.53.21.56.38-.36-.26-.73.13-1,.32.13-.05.29,0,.43-.07-.74.52.93-.1.48.5l-.25,0c.16.16.51.27.48.49-.51.18-.29-.15-.72-.08.09.28,1.11.36.64.72-.17-.09-.21-.26-.38-.35-.56.4-.39.41-.45.64v0l-.17.56.14-.17c1.44.05.41.68,1.42.94-1-.25-.5,0-1.1.16-.13.16-.26.4-.44.39.53.11-.26.5.52.63-.19.07.05.25-.44.34.24.26.31-.17.55-.21.77.25-.44,1.34.67,1.7.56.44,1.22.29,1.72.64-.21.29-.71.15-.71.15-.15.39,0,.57.32.73-.18,0-.28.14-.44.31.14.19.7-.17.58.22a4.15,4.15,0,0,1-.81.15c.29.17.74.24,1,.4-.26.23-.53.09-.78.11l.28.21,2.6,2-.11-2.1a.94.94,0,0,0-.39-.82l-.25.09c0-.11.44.14.49.26.22.32-.11.29-.34.23l-1.52,0,.13-.1h0l1.31.75-.12-.78,0-.2a.72.72,0,0,0-.45,0l-.27.12,0-.11c.09-.34-.85-.33-.94-.64l.82-.22-.79-.06c.16-.17.56-.41.75-.3.26-.41-.37-.09,0-.49.06-.05.1-.06.14-.05l-.33-.14c.18,0,.52-.27.47-.07.27-.61-.86-.46-.34-.85h.06c-.48-.51-.59.16-1.43-.06l1.31-.81-.6.14c0-.07,0-.21.25-.27-.48-.11-.24.13-.66.11.42-.48-.52-.79.4-1.13-.48,0-.26.39-.67.15,1-.38-.28-.34.11-.76.55,0,.34.3.73-.11-.92.05,0-.6-.17-.79-.71.15-.42-.46-.74-.82.25,0,.23-.85.42-1.28h.13c-.74.06-.68-.36-.88-.63a1.19,1.19,0,0,1,.84.08l-.05-.27a.6.6,0,0,1-.5-.25l.56,0c-.09-.36-.76-.63-.48-1.16-.51.06-1.35.61-1.76.16.27-.06.73-.16.87,0,0,0-.26-.12-.15-.22l.49.12c.17-.25-.4-.05-.39-.23.39-.06.26-.17.57-.19.05,0-.13.17,0,.21a.93.93,0,0,1,.52-.6c-.22.06-.53.09-.6-.05-.09-.36.45-.2.61-.44-.28,0,0-.33-.62-.24,0-.11.25-.17.4-.24-.28-.15-.21-.88-.8-.57l0,.06,0,0h0c-.68-.53.11-1.36-.25-1.94l.2,0c-.3-.33-.29-.81-.77-1,0-.1.3-.33.54-.33-.21-.26-.42-.24-.2-.72.4.21.27-.17.31.24.08-.41.37-.58-.25-.85.53,0,.55-.44.35-.58l-.28.35a1,1,0,0,1-.13-.55l.67-.08c.57-1-1.71-1-.62-2-.51,0-.17.52-.75.51,0-.37.75-1.05.7-1.17.17-.62-1.06-.11-1-.7-.19.16-.75.45-1.11.19,0-.36.74-.82,1-.68,0,.08,0,.15-.08.18.13.08.29.18.47-.05l-.24,0c.16-.27-.09-.74.31-.78-.33-.18-.4.05-.43.29.11-.59-.3-.7-.34-1.25-.08.13-.29.32-.33.25-.09-.79-.54-.07-.88-.44.17-.43.8-.35.28-.63,0-.4.5-.39.73-.38-.62-.17-.24-.92-.33-1.22l.31.11a.56.56,0,0,1-.33-.28l-.3.4c0-.18-.09-.28.07-.4-.35.06-.57.56-1.1.58.08-.3-.55-.3-.1-.75.21.62.45-.46.86-.09a.34.34,0,0,1-.23-.31.15.15,0,0,1,.17-.06c0-.85-.74.23-1.13-.25.32-.17.4-.56.27-.59.17.2-.35.49-.7.51-.08-.48-.45-.16-.57-.33l.07.26c-.31.19-.41,0-.67-.08.17-.21.3,0,.32-.12-.62.26-.1-.94-.71-.91,0-.32.39-.54.34-.78-.69.08-.19-.74-.87-.72-.11.48,0,.39-.59.61a7.17,7.17,0,0,1,.9.18l-.83.27c.2.15.6.05.68.21-.44.17-.34.09-.47.48.12-.79-.76,0-.83-.61l.59-1c-.3-.8-1.25,0-1.84-.55l.16.28c-.27.4-.47-.1-.77,0a1.29,1.29,0,0,0,0-.82c-.07.27-.57-.19-.84.55l-.21-.59c-.6-.35-.93,1-1.46.74.23-.41,0-.73.44-1-.2-.05-.38-.13-.41.14-.1-.26-.61.48-.77.09-.09.16-.14.57-.35.54a.55.55,0,0,1,0-.19c0,.19-.34.26-.16.7a.84.84,0,0,0-1.12-.5c-.42.07-.78.22-1.16-.24-.42.2-.89.53-1.26.67,0-.12-.07-.18,0-.17-.68-.12.12,1.18-.58,1.05-.59-.43.14-.45-.15-.58-.33-.56-.51-.44-.67-.2s-.3.53-.71.34l.05-.12c-.57-.15-.41.92-.85,1.22a.42.42,0,0,0-.14-.14,3.88,3.88,0,0,1-.18,1.89c-.34-.41-.1-.34-.58-.55-.06.23.71.42.61.85a2.85,2.85,0,0,1-1.18-.1l.19-.4c-.73-.16-.28.52-.48.66l-.26-.16c-.22.68.51,1,.23,1.6h.24c.62.59-.51.16-.07.67l-.78-.1a10.27,10.27,0,0,1,.6,1.43,3.31,3.31,0,0,1-1-1.3c-.08.24-.14.84.22,1-.05-.11-.22-.27-.08-.34.54.42.78.83.69,1.28-1.51-.31-.54,1.12-1.74,1.33.49.86-.36,1.56-.33,2.49,1.21-.25,0,.27,1.24.28.07.22.05.3,0,.31l-.77.61c-.36.14-.26-.22-.53-.21-.12.46-.53.17-.87.47.44,0,.62.19.44.45l.58-.35c.63.68-1,.52-.43,1.21l-.37-.22c.21.35-.05,1.26.93,1.61-.14.06-.48.13-.57,0-.16.81,1,1.81.42,2.43l-.3-.06c.09.15.57.26.27.45-.13,0-.3-.06-.32,0s.53.4.36.6l-.34-.16c-.39.79.84,1.2,1.06,1.84a1.36,1.36,0,0,0-1.28,1h-.13c-.07.93.8,1.53,1.19,2.36-.92.58-.29,1.81-.75,2.7.15-.15.69,0,.79.1-.16.22.65.5-.15.54v-.07c-.78.21-.53.61-.52.93l1.05-.05c-1.45,1,.8,2.11-.51,2.72a1.55,1.55,0,0,1,.38.39l4.21-1a.61.61,0,0,0-.25-.14l.55-.17a2.75,2.75,0,0,0-.4-1.45h.43c-.08-.38-1.7.05-1.84-.27l.77-.37c-.22-.63.27-1.5-.67-1.88.13,0,.36-.09.43,0-.08-.3.16-1.33-.9-.86.71-.24-.15-.67-.58-.91l.55-.12c-.77-.07-1,0-1.28-.36,0-.12.4-.22.3-.05.18-.41-.58-.08-.43-.56l.39,0c-.07-.34-.24-.25-.69-.3-.28-.14-.07-.67.39-.87-.31,0-.76,0-.68-.24a.51.51,0,0,1,.37,0c.18-.66-.88-.61-.49-1.15a.8.8,0,0,0,.3-.17,2.49,2.49,0,0,1,.17.78c.48-.16.45-.54,1.22-.49-.46-.16-1.42-.38-1.3-.79a.44.44,0,0,1,.15-.1h.07c0-.09-.05-.15-.15-.19a.57.57,0,0,0,.05-.33c.39-.17.08-.47,0-.65-.53.19-.52-.07-.89.29,0,0,.07,0,.13.12s0,.05.08.06h0a3.52,3.52,0,0,1,.18.42c-.32-.05-.59-.12-.36-.41-.37,0-.76,0-.94,0,.66-.48.91-1.08,1.35-1.29-.47-.44-.61-1.2-1.72-1.2-.18-.11.23-.27.36-.38.13.06.15.16.31.16-.35-.21-.39-.86-1.12-.7.19-.49.72,0,.43-.49h.24c.77-1.4-2.35-1.09-1.29-2.71a.41.41,0,0,1-.2.21c.2-1.52-1.48-2.5-.91-4.12.09-.43-.37-.33-.79-.44l.55-.27-.79-.16c-.66-.38,1.1-1.41,0-1.79l-.35.21c0-.27-.49-.7,0-.81-.08,0-.43,0-.26-.11l.3-.11-.72-.43c.07-.54,1.22-.32,1-1-.2-.21-1.11-.44-1.28-.27,0,.1-.1.32-.4.43l-.23-.18c-.9.25-1.87.37-2.29,1.14l.67.22-.39.27-.14-.32c-.34.32.06.32.35.38a.88.88,0,0,0-.42.32l1,.11c-.33.16-.75.05-.85.38.45.05.71-.43,1.07-.21-.34.32-.68.37-.27.48a.54.54,0,0,1-.5.05c.34.11.29.49.79.44-.43.36.35.63-.49.89.22,0,.77.13.87.31-1.12,0,.16.7-.94,1,1,0,.7.76,1.34,1-.08,0-.24,0-.21,0,0,.27-.24.43-.36.65.76-.22,1.06.11,1.58.17-.61.54-.93.1-1.59.42.6-.21.78.33,1.24.06-.36.38-.14.27-.72.6.94-.27.23.16.86.16-.35.49-.84.38-.44.65C183.15,146.06,182.71,145.84,182.71,145.84Zm4.49,8.22h0l-.09-.18Zm.26.73a1.77,1.77,0,0,0-.09-.32c.18-.09.38-.12.39-.05S187.58,154.63,187.46,154.79Zm3.18-2.77c.12.09,0,.16-.08.22a.92.92,0,0,0-.13-.19h-.07A1.57,1.57,0,0,1,190.64,152Z"/><path class="cls-2" d="M189.87,152s0,0-.05,0l-.1.11h.18Z"/><path class="cls-2" d="M213,149.8v0a.18.18,0,0,1-.07.05Z"/><polygon class="cls-2" points="194.52 163.06 194.38 163.08 194.51 163.13 194.52 163.06"/><path class="cls-2" d="M211.83,154.34a.29.29,0,0,0-.14.08A.41.41,0,0,0,211.83,154.34Z"/><path class="cls-2" d="M212.06,156.21l-.14.3A1,1,0,0,0,212.06,156.21Z"/><path class="cls-2" d="M212.12,157.7l.24,0h0Z"/><path class="cls-2" d="M205.17,137.8h0C205,137.79,205.05,137.81,205.17,137.8Z"/><path class="cls-2" d="M209.45,142.2a1.22,1.22,0,0,1-.32-.09C209.13,142.23,209.15,142.32,209.45,142.2Z"/><path class="cls-2" d="M199.82,136.12h0Z"/><path class="cls-2" d="M209,141.83a.19.19,0,0,0,.11.28C209.12,142,209.14,141.89,209,141.83Z"/><path class="cls-2" d="M217.35,163.21l.05-.05-.08,0Z"/><path class="cls-2" d="M217.32,163.12l0-.1A.07.07,0,0,0,217.32,163.12Z"/><path class="cls-2" d="M217.23,162.81l.06.21C217.32,163,217.36,162.92,217.23,162.81Z"/><path class="cls-2" d="M213.57,162l-.19.06Z"/><path class="cls-2" d="M213.28,161.44c0,.15-.27.51-.06.65l.16-.05C213.05,162.07,213.65,161.43,213.28,161.44Z"/><path class="cls-2" d="M214.85,158.33l0,.48c.18-.14.43-.33.54-.15C215.82,157.93,215,158.92,214.85,158.33Z"/><path class="cls-2" d="M214.78,156.87c.16.21.31-.08.43-.1C215,156.67,214.92,156.64,214.78,156.87Z"/><path class="cls-2" d="M212.87,146.38l.51-.08C213.26,146.11,213.19,146.34,212.87,146.38Z"/><polygon class="cls-2" points="209.83 145.02 209.57 145.28 210.04 145.24 209.83 145.02"/><polygon class="cls-2" points="212.98 142.81 213.08 142.88 212.79 142.6 212.98 142.81"/><path class="cls-2" d="M197.58,131.31l.17.61C197.89,131.79,197.82,131.07,197.58,131.31Z"/><path class="cls-2" d="M191,137.68c-.34,0-.61.17-.36.41C190.69,137.91,191,137.8,191,137.68Z"/><polygon class="cls-2" points="189.27 161.57 189.04 161.43 189.25 161.72 189.27 161.57"/><path class="cls-2" d="M267.23,149.6c-.14-.11-.51-.24-.5-.07l.56.36Z"/><path class="cls-2" d="M265.67,150a2.42,2.42,0,0,0,1.22.92c-.49-.45-.23-.38-.83-.88,0-.17.31-.15.52,0-.13-.12.23-.16-.11-.4-.56,0-.67.17-.4.59A.9.9,0,0,1,265.67,150Z"/><path class="cls-2" d="M254.51,157.6l.11.05A.18.18,0,0,0,254.51,157.6Z"/><path class="cls-2" d="M246.45,157.08c.07,0,.11-.06.13-.12S246.46,157,246.45,157.08Z"/><path class="cls-2" d="M245.47,155.92l.06.07C245.53,155.92,245.51,155.88,245.47,155.92Z"/><path class="cls-2" d="M254.51,157.6l-.26-.16C254.28,157.65,254.4,157.57,254.51,157.6Z"/><path class="cls-2" d="M266,152.63a.4.4,0,0,0-.07-.22.66.66,0,0,1,0,.15Z"/><path class="cls-2" d="M257.7,155.81l.06,0c0-.08-.05-.16-.08-.26Z"/><path class="cls-2" d="M260,154.29c-.06,0,.25.48.38.69-.11-.2-.14-.32-.12-.39S260.06,154.41,260,154.29Z"/><path class="cls-2" d="M263.75,151.87v-.11A.41.41,0,0,0,263.75,151.87Z"/><path class="cls-2" d="M255.87,156.49a1,1,0,0,0-.09-.18A.76.76,0,0,0,255.87,156.49Z"/><path class="cls-2" d="M231.09,143.76l0-.1C231.08,143.71,231.07,143.75,231.09,143.76Z"/><polygon class="cls-2" points="230.97 140.01 231.01 139.95 231.13 139.74 230.97 140.01"/><path class="cls-2" d="M243.82,154.15v0C243.91,154.15,243.87,154.14,243.82,154.15Z"/><path class="cls-2" d="M239.59,135.53c-.56-.11-.26-.71-.94-.75C238.84,134.89,239.15,135.57,239.59,135.53Z"/><path class="cls-2" d="M265.92,152.66a.44.44,0,0,1-.08.11C265.89,152.73,265.92,152.7,265.92,152.66Z"/><path class="cls-2" d="M238.65,134.78h0Z"/><path class="cls-2" d="M239.87,150.57a.7.7,0,0,0-.17.18A1,1,0,0,0,239.87,150.57Z"/><path class="cls-2" d="M242,154.21l0-.13A.21.21,0,0,0,242,154.21Z"/><path class="cls-2" d="M238.12,149.07c0-.08.07-.13,0-.16a.12.12,0,0,0-.05.05C238.12,149,238.17,149,238.12,149.07Z"/><path class="cls-2" d="M237.27,146.91l-.1.08.05.06Z"/><path class="cls-2" d="M239.58,144.49a2.74,2.74,0,0,1-.15-.51C239.49,144.38,239.09,144.53,239.58,144.49Z"/><path class="cls-2" d="M265.76,152.45c.11.1.15.16.16.21s0-.06,0-.1A.62.62,0,0,0,265.76,152.45Z"/><path class="cls-2" d="M234.06,150.87l-.12-.46A1.17,1.17,0,0,0,234.06,150.87Z"/><path class="cls-2" d="M254.08,132.61l.12.08C254.19,132.64,254.15,132.61,254.08,132.61Z"/><path class="cls-2" d="M233.35,149.14a1,1,0,0,0,.27-.37h-.15Z"/><path class="cls-2" d="M239.43,144Z"/><path class="cls-2" d="M236.47,145.27c.44,0,.25-.71.37-1.13.51-.19.2.55.36.93.33-.18.59-.85.82-.81,0,.12.06.17,0,.32.34-.58,1,0,1.36-.78a.61.61,0,0,1,.05.18,5.69,5.69,0,0,1-.09-1c.18,0,.31-.47.4,0-.11,0-.11.19-.16.34l.18-.22c.21.68-.24.26-.22.76.37-.23.76-.85,1.05-.67.12.67-.65.28-.22.85l-.47-.23c.41,1-.28-.05.11,1.07.62.15.65-.39,1.27-.24.1-.39-.1-.55,0-.94.73-.78.87,1.6,1.38.63.09-.47,0-1.33.52-1l0,.78c.59,0,.12-1.15.81-.75,0,.31-.39.33-.29.41.51.52.19-.48.48-.54l.2.65c.59-.26,1.13-.86,1.74-1.19,0,.2,0,.44.18.59a4,4,0,0,1,2.72-.42l.07-.68c.07,0,.23.19.2.33.39.07-.13-.35-.07-.62.15-.11.36.21.32.42.35-.68,1-1.66,1.83-1.38l0,.21c.54,0-.12-1.31.52-1l0,.13a3.61,3.61,0,0,0,.89-.44c.3-.2.57-.44.85-.64a5.9,5.9,0,0,1,.91-.54c.07,0,.19-.06.24-.12l.1-.2a2.42,2.42,0,0,1,.3-.35c-.41-.26-.25-.57-.22-.92s.07-.69-.52-.77c.3-.36.42-.53.57-.74a1.94,1.94,0,0,0,.29-1.19c0-.18-.26-.27-.49-.32s-.49-.06-.6-.19l.57-.25c-.26-.06-.53-.1-.79-.14.19-.17.38-.35.56-.54l-.29-.21a.5.5,0,0,1-.29.44c-.43-.29-.24-1.19,0-1.41a8.45,8.45,0,0,0-1.12-.57c.2-.15.39-.06.61,0-.87-.05.42-.53-.4-.56,0,.15-.29.22-.39.3.08-.44-.38-.92-.85-1.06l.34-.28a8,8,0,0,0-2.42-1.29c.22.33-.19.95-.44.91l.18-.64c-.32.29.14.34-.37.64-.26-.18.08-.76.36-.88l-.48.05c0-.19.17-.25.29-.47-.3.32-.49-.9-1-.29l0-.19a7.76,7.76,0,0,0-2.24-.17c-.06.56-.36.42-.59.87a7.73,7.73,0,0,0-.9-.34,1.62,1.62,0,0,0-1-.08c-.4.36,0,.5-.16.86-.14-.51-.76-.29-.53-.73a3.5,3.5,0,0,0-1.68,1.13c.17.14.32.19.33.37s-.43,0-.51-.27l0-.07c-.32.57-1,.53-1.69.57s-1.35.19-1.32.88v-.07a8.68,8.68,0,0,0-.27,1c-.34.21-.1-.45-.53-.47-.06,1.25-1.12,1-1.15,2-.79-.23-1.09.25-1.31.77s-.35,1.11-1,1.26l.34.12c.22.34-.3.13-.44.24.26.09.39-.07.5.13a8.21,8.21,0,0,1-1.08,2.46c-.25.4-.45.82-.68,1.25a5.36,5.36,0,0,0-.55,1.32c-.17.67,1.78.55.86,1.29l-.64-.28a4,4,0,0,1,.35,2,3.21,3.21,0,0,0,.47,1.9c-.17,0-.36,0-.38-.15-.43.34.15,1,.54.92,0,.2-.34.11-.51.27-.24.33.72.53.31.77-.07,0-.18,0-.23-.07.28.11.17.81.66.5-.13.53.46.79.29,1.24.67,0,0,.86.85.61-.87.3-.37,1.05.16,1.13-.3,0-.15.35-.54.41a.52.52,0,0,0,.83.24c-.68,1.09,1.37.64.34,1.66.45.32.92.58,1.32.86l1.15.82c-.72.55-.69-.69-1.41-.1.83.47,1.74.32,2.12,1.07.07.24-.37.19-.53.24.88.33,1.1,1.25,2,1.34a.39.39,0,0,1-.28.08c.14.08.19.33.43,0h-.18c.21-.6,1.23-.6,1.43-.84-.91.78.38.67-.81,1.63a.65.65,0,0,0,.48-.33c.07.14,0,.3-.28.47.57.12.66-.35,1.05-.08-.11.17-.23.18-.4.35.42-.19.81-.38,1.06,0-.08.09-.12.25-.22.18.66.28,1.5-.34,2,.29-.55.71.12.36-.13,1.06l.47,0,0-.4c.34.15.8-.24,1,.09l-.35.2a5.05,5.05,0,0,0,.68.06l-.27-.37c.45-.27.26-.91.62-.59-.11.05.31.1.37.57h0c.22-.18.44-.38.64-.13,0,.24-.24.79-.23,1,.3-.57.85,0,1.17-.64a1.39,1.39,0,0,0-.15.61l.21-.48c.14.19.15.27.08.57.47.17,0-1,.48-.47-.05,0,0,.12-.14.18.56.26,1.12-.24,1.63.05.14.76-.47.15-.31.79a3.51,3.51,0,0,0,1.19-.48,2.09,2.09,0,0,1,1.12-.31l-.14-.07c0-1.06.59.46.9-.08a.91.91,0,0,0,0,.48c.54.12,1-.43,1.65-.91l0,.28c.35.19.79,0,1.13,0,0-.29.2-.3,0-.65a.84.84,0,0,0,1.42-.15c.34-.4.62-.77,1.28-.4-.09.05-.12.33-.05.29l.56-.56c-.26-.39-.21-.21-.51-.46a.65.65,0,0,1,.19-.64c-.14.41.35.65.6.81-.09-.11-.12-.27-.2-.39.73.54-.38-.82.32-.61l.1.23c.1-.21.08-.58.29-.62.35.41,0,.32.17.7.24-.19-.05-1.16.46-.85,0,.19-.17.29-.2.48.59.37.53.22.77.18h0c.19,0,.38,0,.58-.07l-.21-.06c-.52-1.35.46-.66.29-1.67.16.95.25.43.6.93.22.05.48.06.55.23-.13-.54.57,0,.35-.76.14.14.21-.16.5.24.13-.33-.29-.2-.44-.4-.09-.77,1.41-.24,1.22-1.39.13-.68-.35-1.21-.29-1.81.35.05.47.55.47.55.41-.06.51-.28.49-.63.11.15.26.18.49.24.08-.23-.51-.53-.12-.62a3.25,3.25,0,0,1,.54.62c0-.33-.17-.76-.18-1.08.33.11.35.41.49.61,0-.36.17-.86-.27-1.2l-.26.08c0-.11.43.17.48.29.22.44-.37.24-.54.15V151c-1.09-.41-.23.74-.51,1.06l-.6-.6c.12.23.24.47.35.71-.23-.06-.64-.29-.63-.5-.5,0,.1.36-.41.27-.07,0-.1-.06-.11-.1l.05.35c-.11-.14-.5-.32-.31-.37-.64.05.06,1-.55.69v-.06c-.21.65.43.44.63,1.28-.45-.26-.89-.52-1.32-.79l.4.47c-.06,0-.18.09-.34-.1.13.47.22.16.4.54-.6-.16-.47.79-1.17.12.22.43.46.07.42.53-.76-.72-.17.4-.7.23-.27-.47.1-.43-.41-.61.45.81-.56.17-.63.44.42.58-.22.57-.42,1-.12-.22-.86.06-1.29,0l-.05-.11c.31.68-.1.73-.28,1a1.22,1.22,0,0,1-.19-.81l-.22.12a.56.56,0,0,1-.08.53l-.18-.52c-.28.18-.34.9-.89.71.16.49.89,1.18.56,1.69-.13-.25-.32-.69-.24-.84,0,.05-.06.27-.18.19V157c-.27-.12,0,.4-.13.42-.14-.37-.21-.22-.31-.52,0-.05.2.1.2-.07a.83.83,0,0,1-.65-.38c.09.2.18.5.08.59-.32.14-.27-.41-.52-.54,0,.28-.28.07-.11.64-.1,0-.2-.24-.28-.38-.09.3-.75.31-.4.86l.05,0,0,0h0c-.45.69-1.27,0-1.79.28l0-.2c-.31.26-.74.22-.95.68-.11,0-.28-.35-.25-.58-.25.15-.27.38-.66.06.25-.35-.1-.3.26-.26-.35-.16-.41-.47-.77.08.12-.51-.24-.63-.39-.51l.21.38a.66.66,0,0,1-.48-.05l.12-.65c-.3-.43-.6-.1-.91.15s-.61.38-.74-.32c-.25.42.3.38.06.89-.31-.14-.43-1.13-.51-1.15-.29-.46-.59.85-1,.48,0,.24-.12.87-.53,1-.3-.18-.07-1.05.17-1.18.08,0,.09.08.06.15a.31.31,0,0,0,.24-.39l-.11.21c-.08-.25-.47-.37-.25-.71-.27.13-.22.33-.1.51-.24-.47-.56-.23-.83-.59,0,.14-.05.42-.11.39-.43-.48-.43.31-.85.22,0-.43.46-.73,0-.65-.1-.33.25-.58.42-.71-.52.23-.44-.55-.54-.74l.25-.06a.29.29,0,0,1-.29-.06l-.17.46c0-.13-.12-.18,0-.35-.26.2-.35.72-.77.95,0-.29-.54-.05-.22-.6.27.44.32-.54.7-.42-.11,0-.18,0-.22-.15a.19.19,0,0,1,.13-.12c0-.69-.59.5-.94.19.26-.25.33-.6.23-.59.13.12-.29.53-.6.63-.06-.4-.38,0-.49-.17l.06.21c-.28.23-.37.1-.61,0,.16-.21.28,0,.3-.15-.62.32,0-.86-.49-.77.06-.28.46-.49.48-.69-.58.06.07-.59-.44-.61-.29.4-.18.34-.71.44a5.49,5.49,0,0,0,.68.24l-.79.18c.11.16.5.09.52.23-.42.13-.32.06-.53.4.31-.67-.69-.12-.54-.69l.9-.76c.12-.67-1-.22-1.1-.9l-.06.28c-.42.21-.27-.27-.54-.32a1.74,1.74,0,0,0,.55-.59c-.25.18-.22-.36-.91,0l.31-.5c0-.52-1.27.09-1.37-.42.44-.07.59-.38,1-.25-.07-.14,0-.3-.3-.17.18-.19-.66-.16-.39-.45-.19,0-.57.16-.62,0a.68.68,0,0,1,.18-.08c-.18.08-.37-.15-.7.17a.78.78,0,0,0,.16-1.09c-.15-.3-.35-.6.11-1a4.57,4.57,0,0,1-.57-1c.12,0,.2-.05.17,0,.25-.49-1.16,0-.86-.6.58-.37.39.19.6,0,1.26-.31-.29-.55.4-1l.09.06c.41-.29-.54-.53-.49-.95a.76.76,0,0,0,.2,0,1.79,1.79,0,0,1-1.1-1.19c.51.13.27.18.79.11-.07-.18-.83.05-1-.33a2.22,2.22,0,0,1,1.07-.36l0,.33c.7-.14,0-.42.13-.59l.31,0c-.05-.49-.83-.59-.71-1.14l-.24,0c-.73-.43.48-.18,0-.58l.79.07a3.51,3.51,0,0,1-.64-1.25,6.43,6.43,0,0,1,1,1.15.77.77,0,0,0-.27-.84c0,.1.21.24.08.28-.56-.38-.73-.79-.6-1.17,1.41.57.72-.85,1.93-.6-.23-.84.79-1,1.12-1.65-1.13-.46.09-.19-.93-.87,0-.2.11-.24.18-.21l.92,0c.35.13.1.3.33.46.29-.22.49.21.88.26-.36-.25-.38-.51-.13-.54l-.61-.17c-.12-.84,1,.39.93-.41l.15.39c0-.35.65-.58.28-1.5.12.08.36.32.32.46.28-.12.4-.5.58-.85s.41-.61.75-.41l.07.29c.06-.12,0-.59.21-.36,0,.12.06.3.11.3s.1-.6.3-.47l0,.35c.32.12.44-.14.6-.44s.3-.72.54-.82a1.7,1.7,0,0,0,.64,1.29v.13c.49.12,1-.62,1.77-.74a1.06,1.06,0,0,0,.53.92,1.24,1.24,0,0,1,.65.77,1,1,0,0,1,.56-.54c0,.23.73-.21.17.39l0-.05c-.45.67-.13.69,0,.84l.8-.68c-.36.75-.06.89.25,1.1s.63.42,0,.8c.29.06.3,0,.58.08l-.56.11c-.11.14-.18.14,0,.29l-.42-.11s1.71.55,1.72.81l-.88-.35c0,.1-.32,0-.44,0s-.15,0,0,.38a3,3,0,0,1-.2-.35l-.1,0a1.21,1.21,0,0,0-.32.11c-.18.11-.26.34.06.82-.36-.65-.57.21-.72.66l-.2-.52c.07.75.15.95-.13,1.29-.11,0-.26-.38-.09-.29-.4-.15,0,.57-.47.45v-.38c-.31.09-.21.25-.21.71-.1.29-.63.09-.85-.36.08.3.05.74-.18.67a.6.6,0,0,1-.05-.37c-.61-.17-.54.89-1.06.47a.7.7,0,0,0-.16-.3,2.19,2.19,0,0,1,.72-.14c-.17-.48-.51-.46-.49-1.22-.11.45-.3,1.38-.69,1.25,0,0,0-.09-.09-.16l0-.06c-.09,0-.14,0-.17.14a.67.67,0,0,0-.3-.09c-.15-.4-.42-.13-.59-.11.15.54-.09.51.22.91,0,0,0-.07.12-.12a.17.17,0,0,0,.06-.08v.06a3.37,3.37,0,0,1,.39-.14c0,.31-.13.57-.39.32,0,.37,0,.75,0,.93-.42-.7-.93-1-1.09-1.48-.44.4-1.12.43-1.3,1.51-.13.15-.21-.28-.29-.44s.17-.11.2-.27c-.26.31-.85.22-.85,1-.4-.3.15-.69-.35-.53l0-.23c-.55-.56-.9,0-1.31.39s-.88.85-1.43.07a.38.38,0,0,1,.13.26,3.46,3.46,0,0,0-2-.19,2,2,0,0,1-1.87-.63c-.31-.29-.43.17-.73.47l0-.6-.52.59c-.67.37-.51-1.67-1.4-.91,0,.13,0,.27-.05.41-.18-.12-.66,0-.41-.43,0,.06-.27.33-.21.11l.17-.27a.75.75,0,0,1-.51,0,1.93,1.93,0,0,1,.49-.6c.18-.17.35-.38.5-.41a1.1,1.1,0,0,1,0,.39,3.64,3.64,0,0,1-.25.5c.06-.06-.07-.08-.21.11a.33.33,0,0,1,0,.3l-.69,1.2a4.39,4.39,0,0,1-.27.45.32.32,0,0,1-.21.09c-.08,0,0-.11-.36.24l-.19.19c-.07.07-.14.14-.14.12H229a2.31,2.31,0,0,1-.07-.94c-.17.11-.32.22-.46.33a3.38,3.38,0,0,1,.3.27c-.61.17-.37-.26-.19-.39a.89.89,0,0,0-.34.51c.31-.09.63-.14.94-.24-.16.35-.67.37-.46.85.48-.14.28-.85.8-.76,0,.53-.23.8.26.66a.4.4,0,0,1-.39.35c.42-.06.91.3,1.22-.12.08.56.77.07.51.91.13-.18.56-.55.77-.54-.63.94.73.26.37,1.32.49-.87,1.1-.17,1.68-.63,0,.07-.12.22-.15.16.26.12.29.42.44.62.16-.77.61-.88.9-1.32.23.79-.32.88-.31,1.61.06-.62.67-.56.61-1.1a1.66,1.66,0,0,1,.27.91c.14-1,.26-.14.53-.72.33.52,0,.93.46.66C236.87,144.94,236.47,145.27,236.47,145.27Zm9.57-2.73h0l-.18.09Zm.77-.25a1.23,1.23,0,0,0-.34.09c-.09-.18-.12-.38,0-.4C246.43,142.12,246.64,142.17,246.81,142.29ZM244.2,139c.09-.11.15,0,.19.1a.57.57,0,0,0-.16.11v.07A1.67,1.67,0,0,1,244.2,139Z"/><path class="cls-2" d="M244.19,139.76l0,.05.09.11v-.18Z"/><path class="cls-2" d="M254.64,157.66h0l0,.07S254.65,157.68,254.64,157.66Z"/><polygon class="cls-2" points="254.85 133.53 254.72 133.58 254.86 133.62 254.85 133.53"/><path class="cls-2" d="M259.24,157.89a.29.29,0,0,0,.12.1A.69.69,0,0,0,259.24,157.89Z"/><path class="cls-2" d="M261,157h.34A1,1,0,0,0,261,157Z"/><path class="cls-2" d="M262.32,156.34a1.4,1.4,0,0,0-.13-.2h0Z"/><path class="cls-2" d="M239.66,157.13h-.06C239.42,157.11,239.52,157.14,239.66,157.13Z"/><path class="cls-2" d="M246.6,159.33a1.52,1.52,0,0,1-.29.2C246.42,159.6,246.51,159.64,246.6,159.33Z"/><polygon class="cls-2" points="234.08 150.92 234.09 150.91 234.06 150.87 234.08 150.92"/><path class="cls-2" d="M246,159.43a.22.22,0,0,0,.31.1C246.22,159.47,246.12,159.38,246,159.43Z"/><path class="cls-2" d="M266.79,151.48l0-.06a.18.18,0,0,1-.07,0Z"/><path class="cls-2" d="M266.77,151.37l0-.1S266.72,151.33,266.77,151.37Z"/><path class="cls-2" d="M266.71,151.05c0,.07,0,.15,0,.22S266.83,151.16,266.71,151.05Z"/><path class="cls-2" d="M265.46,153l.15.14A1.1,1.1,0,0,0,265.46,153Z"/><path class="cls-2" d="M265.14,153.57c.12-.09.57,0,.59-.28l-.12-.11C265.79,153.44,265,153.25,265.14,153.57Z"/><path class="cls-2" d="M261.68,153.62a3.43,3.43,0,0,0,.44-.19c-.21-.09-.48-.23-.38-.41C260.9,152.93,262.17,153.29,261.68,153.62Z"/><path class="cls-2" d="M260.46,154.27c.12-.22-.2-.25-.27-.35C260.2,154.16,260.2,154.22,260.46,154.27Z"/><path class="cls-2" d="M251.54,157.7v-.51C251.37,157.27,251.54,157.39,251.54,157.7Z"/><polygon class="cls-2" points="249.53 160.33 249.72 160.66 249.84 160.2 249.53 160.33"/><polygon class="cls-2" points="248.77 156.59 248.85 156.53 248.56 156.67 248.77 156.59"/><path class="cls-2" d="M237.86,147.15l-.58.25C237.43,147.47,238.11,147.26,237.86,147.15Z"/><path class="cls-2" d="M236.6,140.55c.31,0,.56-.18.28-.34C236.8,140.34,236.52,140.45,236.6,140.55Z"/><polygon class="cls-2" points="249.51 134.4 249.28 134.46 249.54 134.49 249.51 134.4"/></svg>