<svg id="Layer_1" data-name="Layer 1" xmlns="http://www.w3.org/2000/svg" viewBox="0 0 722 1080"><defs><style>.cls-1{fill:#202020;}</style></defs><path class="cls-1" d="M369.12,273.39c-1.32-1.49-.79-.5,2.41,4.06l1.29,1.53,1.2,1.63A61.42,61.42,0,0,0,369.12,273.39Z"/><path class="cls-1" d="M366,306.33c-4,5.1-7.9,11.48-5.1,8.34,3.38-5.43,4.62-6.4,8.59-12.11,1.73-2.16,3.16-4.12,4.08-5.47s1.32-2.08,1.18-1.62c.18-.47.49-1.22.82-2.15.13-.48.27-1,.41-1.54s.14-1.15.21-1.74a13.54,13.54,0,0,0-1.34-6.22,17.53,17.53,0,0,1,1,5.76,14.46,14.46,0,0,1-1.75,6.09,39.28,39.28,0,0,1-3.73,5.64c-1.39,1.85-2.88,3.67-4.34,5.54C364.61,308.35,365.76,306.74,366,306.33Z"/><path class="cls-1" d="M255.05,498.74l-2.94,1.86C252.93,500.12,253.93,499.48,255.05,498.74Z"/><path class="cls-1" d="M368.44,582.17a25.54,25.54,0,0,0-.06-3.72C368.43,580.8,368.37,582.74,368.44,582.17Z"/><path class="cls-1" d="M363.69,638.88c.15-1.21.28-2.23.42-3.33C363.91,636.81,363.74,638.09,363.69,638.88Z"/><path class="cls-1" d="M255.05,498.74c2.52-1.6,5-3.26,7.47-4.95C262.93,493.29,258.72,496.37,255.05,498.74Z"/><path class="cls-1" d="M326.52,369.28c1-1.58,1.82-2.91,2.54-4.14L326.62,369A1.43,1.43,0,0,1,326.52,369.28Z"/><path class="cls-1" d="M138.34,552a10,10,0,0,1,1-3.35l.35-.74.45-.7a4.76,4.76,0,0,1,.44-.64l.38-.49-.47.54a8.19,8.19,0,0,0-.53.74,9.45,9.45,0,0,0-.88,1.57A10.8,10.8,0,0,0,138.34,552Z"/><path class="cls-1" d="M179.13,509a16.48,16.48,0,0,0-3.3,3c1.1-.94,2.61-2.08,4.41-3.39C180.23,508.49,179.9,508.6,179.13,509Z"/><path class="cls-1" d="M310.91,389.31l1.78-2.63C312.22,387.36,311.44,388.52,310.91,389.31Z"/><path class="cls-1" d="M198.64,533.79a6.26,6.26,0,0,0,1-.4A3,3,0,0,0,198.64,533.79Z"/><path class="cls-1" d="M405.83,197.66c.08,0,0-.06,0-.06C405.37,197.22,405.21,197.12,405.83,197.66Z"/><path class="cls-1" d="M368.24,274.06l-1.09-1.46c-.18-.11-.36-.22-.42-.18Z"/><path class="cls-1" d="M352.58,742.9c0-.2,0-.27,0-.47C352.27,739.66,352.41,741.23,352.58,742.9Z"/><path class="cls-1" d="M531.69,809.23c-1.1-5.3.07-1.05,1.06,2.54s1.8,6.53.13-1.47C533.08,811.82,528.73,796.05,531.69,809.23Z"/><path class="cls-1" d="M324.87,371.7l-2.56,3.87C323.5,373.82,324.27,372.63,324.87,371.7Z"/><path class="cls-1" d="M532.88,810.3h0l-.36-1.64C532.67,809.34,532.76,809.72,532.88,810.3Z"/><path class="cls-1" d="M299.25,934.56l-.15-.44a1.18,1.18,0,0,1-.1-.3l0-.33,2.35-.82a14.25,14.25,0,0,0-2.34.83c.09,0,.11-.06.07,0l-.1,0s0,.06,0,.11a1,1,0,0,0,.06.37Z"/><path class="cls-1" d="M362.5,803.46l.24,4.4C362.65,806.12,362.57,804.7,362.5,803.46Z"/><path class="cls-1" d="M349.91,951.48c2.37-.53,3.18-.7,6.38-1.61-.3.08-.6.13-1,.22C354.15,950.44,352.62,950.9,349.91,951.48Z"/><path class="cls-1" d="M397.66,881.9v1.79c.06,1,.12,2.08.18,3.06Z"/><path class="cls-1" d="M499.73,186.47a42.45,42.45,0,0,1,1.7,4.23c-.2-.74,1.32,2.11,1.82,3.25.27.56.34.66-.09-.38-.21-.53-.58-1.32-1.12-2.48S500.73,188.42,499.73,186.47Z"/><path class="cls-1" d="M326.3,369.19a17.83,17.83,0,0,1-1.43,2.51c.6-.94,1.18-1.83,1.75-2.71C326.72,368.72,326.7,368.64,326.3,369.19Z"/><path class="cls-1" d="M352.91,947.29c2.46-.57,4.84-1.39,7.26-2.1l3.55-1.27,1.78-.64,1.73-.73c-1.92.87-4.24,1.59-6.65,2.49l-3.77,1.16C355.53,946.61,354.22,947,352.91,947.29Z"/><path class="cls-1" d="M440.77,490.67l-.52-3.49C440.42,488.53,440.6,489.77,440.77,490.67Z"/><path class="cls-1" d="M395.88,913.8c.12-2.62,0-5.58-.08-8.58-.07-.63-.13-1.36-.2-1.78C395.69,906.9,395.88,910.46,395.88,913.8Z"/><path class="cls-1" d="M501.44,190.73v0Z"/><path class="cls-1" d="M485.05,286.58a62.77,62.77,0,0,0,4.64-5.86,6.64,6.64,0,0,0,1.06-1.78c0-.34-.84.5-.06-.88l1.71-2.49,1.33-2c.8-1.21,1.38-2.15,1.83-2.87a17.47,17.47,0,0,1,1.51-2.18c.42-.44.2.45,1.79-2.13a93.73,93.73,0,0,0,6-13.78,110,110,0,0,0,3.49-12.46c.23-.58.58-2.17.3-.28a89.82,89.82,0,0,0,1.26-10.62,71.08,71.08,0,0,0-.51-13,73.24,73.24,0,0,0-2.94-13,76.64,76.64,0,0,0-4.42-10.82c-.38-.94-.56-1.42-.63-1.67.69,2.12.57,2.54.2,2.21-2.75-6-6-10.68-7-13,2.13,3.45,2.4,3.68,3.43,5.29q-.87-1.51-1.8-3c-.61-1-1.24-2-1.89-2.91-1.48-2.76-.14-.81,1.55,1.85s3.55,6.15,3.71,6.07a117,117,0,0,0-11.75-17.46c-4.33-5.4-8.76-10.18-12.27-14-.56-1,3.66,3.37,6.69,6.83s5,5.88.77.43A144,144,0,0,1,492.74,176a28,28,0,0,1-1.94-3.33,25.22,25.22,0,0,1,1.61,2.18c1.45,2.12,3,4.37.13-.57a128,128,0,0,0-8-10.29c-2.31-2.7-4.32-4.87-6.36-7-4.09-4.26-8.28-8.41-15.9-15.61-3.65-3,.87,1.36-2.79-1.63L447.2,128.61c-3-2.62-5.11-4.35-7.12-5.85a35.12,35.12,0,0,0-6.75-4.06,28.9,28.9,0,0,0-5.14-1.75,14.76,14.76,0,0,0-1.61-.33c-.56-.09-1.16-.21-1.76-.27-1.21-.14-2.49-.22-3.86-.31a47,47,0,0,1-7.75-.48,12.76,12.76,0,0,1-2.36-.68,11.15,11.15,0,0,1-1.27-.6,7.94,7.94,0,0,1-1.24-.92,3.53,3.53,0,0,1-.58-.58l-.21-.25c-.05-.07-.11-.13-.16-.21l-.28-.5a.21.21,0,0,1,0-.06l.05-.06.09-.12.19-.24a2.25,2.25,0,0,1,.21-.24l.29-.29.2-.2.34-.29a8,8,0,0,1,.78-.6,45.66,45.66,0,0,1,4.74-2.34c-1.22.69-3,1.56-4.22,2.4a8.41,8.41,0,0,0-.85.71l-.39.38c-.12.13-.14.17-.21.25a2.44,2.44,0,0,0-.16.23l0,.09a.64.64,0,0,0,0,.17l.18-.2.29-.3.08-.07.18-.16.31-.27a10.34,10.34,0,0,1,1.44-1c.57-.29,1.18-.57,1.8-.86l3.52-1.61.74-.34.35-.15a1.72,1.72,0,0,0,.21-.12l.37-.21a4.42,4.42,0,0,1,.5-.28l-4.17-.32-1.81-.16-1.56-.15-1-.23-.5-.11a1.79,1.79,0,0,1-.31-.16l-.55-.31-.13-.08-.07,0-.12-.1a7,7,0,0,1-1.49-1.59,6.14,6.14,0,0,1-.44-.78,2.54,2.54,0,0,1-.16-.38l-.13-.32a2,2,0,0,1-.14-.88,4.23,4.23,0,0,1,.6-.29,5.49,5.49,0,0,1,.63-.22c.27-.08.57-.16.88-.23l.51-.1c.27,0,.54-.09.83-.12a12.2,12.2,0,0,1,2,0c1.57.11,3.72.33,5.73.59-.06-.09,0-.13-.16-.25l-.42-.37-.88-.78-2-1.82c-.35-.33-.68-.65-1-1a11.13,11.13,0,0,1-.94-1c-.28-.36-.6-.71-.86-1.09l-.48-.71.83,1,.79.91c.27.31.65.64,1,1,.7.68,1.61,1.47,2.48,2.24l1.32,1.16.64.55c.09.09.25.21.29.27l.16.2c-2-.24-4.62-.52-6.51-.67a14.14,14.14,0,0,0-2.36.11l-.48.07-.29.06-.48.11c-1.23.32-1.46.45-.8.25.32-.08.63-.15.93-.2s.5-.09,1.11-.17a13.61,13.61,0,0,1,3.31,0c2.41.26,4.8.56,6.34.76-.09-.1-.17-.2-.26-.29l-.4-.35-.77-.67c-.52-.47-1-.9-1.48-1.3-.91-.81-1.8-1.56-2.43-2.16l-.94-.88-.73-.8a8.7,8.7,0,0,1-.63-.73l-.36-.43a15.24,15.24,0,0,1-1.53-2.24,18.1,18.1,0,0,1-.85-1.75q-.21-.51-.42-1.11a6.61,6.61,0,0,1-.2-.69c.1-.28.26-.43.45-.42v0a2.39,2.39,0,0,1,.74.05l.19,0,.53.16c.43.13.85.29,1.27.46l1,.51c.38.22.8.51,1.2.76s.86.74,1.3,1.1l1.52,1.5,6.24,6.29c-1.13-2.47-2.95-6.59-4.09-9.32a12.77,12.77,0,0,1-.71-1.88c-.08-.27-.17-.56-.23-.82l-.11-.73-.06-.37,0-.45,0-.33V83.6a4,4,0,0,1,.15-1.07c0-.31.18-.06.31,0l.4.36,10.05,9.38,1.35-.28.17,0c.06,0,.13,0,.08,0s-.09-.06-.09-.12,0-.24.09-.42a7.67,7.67,0,0,1,1.45-1.49c.28.11.32-.09.47-.15a1.77,1.77,0,0,1,.41-.21,1.52,1.52,0,0,1,.8-.11,4.26,4.26,0,0,1,2.06,1,19.48,19.48,0,0,1,2,2l2.11,2.31,2.11,2.31,2.17,2.26c1.43,1.52,2.9,3,4.39,4.48-1-.84-4.06-3.66-.21.45,10.76,10.69,22.93,21.29,34.51,32.22s22.58,22.28,30.84,34c1.13,1.44,2.2,2.92,3.3,4.38s2.09,3,3.14,4.51c.33.54.65,1.07.91,1.52s.42.85.52,1.09c.21.49.07.4-.64-.78,5.34,9.82.53.36,3.32,5,2.89,5.68,3.51,7.64,1.61,4.08.28.55.59,1.1.87,1.69l.83,1.8c.56,1.24,1.18,2.51,1.75,3.85l1.65,4.22.42,1.09c.13.37.25.75.37,1.13l.74,2.29a84.41,84.41,0,0,1,3.86,20.19,65.07,65.07,0,0,1-1.94,20.58A63.73,63.73,0,0,1,526,263.7l.9-1.81.81-1.84c-1.76,3.61-3.34,6.33-4.74,8.63-.7,1.16-1.35,2.21-2,3.18s-1.24,1.92-1.88,2.83A73.77,73.77,0,0,1,508.51,287c.67-.69,1.32-1.41,2-2.12-12.32,12.7-27.56,23.7-41.15,35.12-3.4,2.86-6.7,5.75-9.83,8.69s-6.12,5.86-8.91,8.86a75.9,75.9,0,0,0-7.46,9.29,50.76,50.76,0,0,0-5.13,9.82c-.08.33-.2.75-.35,1.25l-.45,1.76c-.38,1.31-.7,2.94-1.07,4.75-.14.91-.29,1.87-.44,2.86s-.2,2-.3,3.08c-.17,2.08-.29,4.2-.42,6.32-.51,8.47-.71,16.59-.29,17.74-.43,10.19-.49,13.84-.59,18.52,0,2.34-.06,4.95,0,8.76s.16,8.85.54,16c.48,7.67,1.36,11.39,2.46,20.81l-.44.28q.94,6.38,2,12.73l.33,6.86,1.29,8.79c-.45-3.51-.79-7.48-.59-7,1,6.87,2.08,15.25,2.8,22,.36,3.36.64,6.29.82,8.42a31.73,31.73,0,0,1,.18,3.52c1.36,10.81,2.47,21.65,2.92,32.51-.18-.71-.48-6.17-.88-10.47.74,8.68.59,9.48.49,10.09a7,7,0,0,0-.11,1.74c0,1.18.13,3.27.21,7.25.11-2.13.27,1.16.37,1.52,0,2-.2,4.6-.32,7.62,0,.77-.08,1.5-.09,2.36s0,1.74,0,2.63.15,1.8.22,2.73.3,1.83.46,2.77c1.47,7.49,5.3,14.82,9,20.55l-1.66-2.08a122.88,122.88,0,0,0,11.15,15.4c4.13,5,8.61,9.74,13.23,14.5s9.42,9.43,14.2,14.18,9.55,9.54,13.94,14.65c-3.11-3.71-4.3-5.15-3.94-5a34.57,34.57,0,0,1,4.82,4.89l1.7,2.74c3.57,3.72-5.26-6.47,1.87,1.35,3.23,3.91,4.08,5.38,3.8,5.23a41.32,41.32,0,0,1-3.71-4,108.33,108.33,0,0,1,7.44,9.65c.27.67-1.35-1.65-2-2.14a49.47,49.47,0,0,1,6.4,11.39c2.08,5,3.56,10.64,4.68,14.09l0,.7,13.36,60.39c.51.33,2.26,8.85,4,15.25q2.48,12,5.2,25.3l2.82,13.58c1,4.63,2.05,9.39,3.55,14.19a57.81,57.81,0,0,0,2.42,6.26c.48,1.05.65,1.28.7,1.29s-.2-.84,1.28,2a17.13,17.13,0,0,0,1.49,3.27c.23.42.48.85.72,1.3s.56.87.84,1.32c.54.91,1.17,1.76,1.74,2.55,1.15,1.56,2.14,2.79,2.41,3.13s-.27-.11-2-2.12a68.4,68.4,0,0,0,11.11,10.85c3.52,2.78,6.85,5,10.36,7.32s7.26,4.56,11.64,7.29a143.18,143.18,0,0,1,15.13,10.57c-2.32-2.19-5.22-4.37-3.63-3.35a59.82,59.82,0,0,1,6.11,5.15c1.61,1.6,2.59,2.75,2.25,2.54l-1-1a51.4,51.4,0,0,1,6.31,7.1l.44.62c.11.16.22.31.31.47l.3.49c.08.14.33.38,0,.33l-5.29.35-1.56,1.3-.1.08s-.1.08,0,.06l.2,0a.82.82,0,0,1,.38,0,1.25,1.25,0,0,1,.74.39,1.54,1.54,0,0,1,.22.31,1.46,1.46,0,0,1,.22.4l.21.52.2.74.69.17.34.09a1.28,1.28,0,0,1,.15.1l.54.41.54.41a2.65,2.65,0,0,1,.4.43,5.2,5.2,0,0,1,.44.62c.1.17.21.34.3.52a7.42,7.42,0,0,1,.44,1.1,6.53,6.53,0,0,1,.21,1,2.72,2.72,0,0,1,0,.57c0,.08,0,.22-.08.24l-.29,0-2.16.31L616,898l-4.81.72-2.43.36a1.76,1.76,0,0,0-.7.19l-.26.11-.52.15c1.4.73,3.12,1.64,4.41,2.35a14.23,14.23,0,0,1,1.72,1.08,6.05,6.05,0,0,1,1.22,1.11l.27.27.11.15.22.31c.14.2.24.41.37.61a4.68,4.68,0,0,1,.48,1.22,2,2,0,0,1-.31,1.85,2.37,2.37,0,0,1-1.73.9,6.65,6.65,0,0,1-2.64-.35,9.76,9.76,0,0,1-1.36-.52l-1.4-.73a24.15,24.15,0,0,1-2.68-1.62c-.86-.59-1.67-1.25-2.48-1.88a67.93,67.93,0,0,1-8.29-8.83c-2.47-3-4.77-6-7.09-8.65l1,1.15A61.78,61.78,0,0,0,579,878a73.59,73.59,0,0,0-12.29-7c-5.69-2.86-3.94-2.07-1.83-1.13s4.65,2.07.46-.14a91.14,91.14,0,0,1-9.29-4.8,30.53,30.53,0,0,1-7.09-5.82c-3.89-4.34-5.27-9.84-6.34-15.19-2-10.93-4.07-21.3-7.13-33.23-1.64-9.42-5.88-25.83-10.87-42.87s-10.52-34.76-13.92-47.18l.18,1.51c-1.1-3.15-1.69-5.1-2.2-6.84s-.94-3.3-1.86-5.64c.14.73,2.35,7,.78,3.07a71.07,71.07,0,0,0-4.5-9.88,52.88,52.88,0,0,0-6.41-9c-4.86-5.51-10.54-10.11-16.07-14.71a266.2,266.2,0,0,1-31-30.23c-4.79-5.46-9.41-11.09-13.89-16.83-2.24-2.87-4.44-5.78-6.61-8.7l-3.24-4.4c-1-1.35-1.95-2.94-3-4.48a47,47,0,0,0-7.18-9,16.36,16.36,0,0,0-2.56-1.9,9.48,9.48,0,0,0-3.39-1.22,7.07,7.07,0,0,0-3.92.58,7.37,7.37,0,0,0-2.9,2.63,22.37,22.37,0,0,0-2.57,5.52c-.6,1.83-1.08,3.64-1.5,5.46-.83,3.63-1.45,7.25-2,10.85-.76,5.28-1,8.67-1.22,11.2s-.22,4.13-.32,5.95-.33,3.86-.76,7.06-1.08,7.58-2,14.19l.45-7.58c-.3,2.65-.6,5.32-.9,8s-.5,5.36-.76,8l-.37,4-.3,4c-.19,2.7-.43,5.4-.59,8.11-.69,10.83-1.09,21.71-1.32,32.57s-.14,21.68.09,32.39.63,21.33,1.21,31.74c-.22-2.48-.37-2.54-.53-6.61,0,4.41.32,12.55.73,19.61.2,3.52.42,6.78.6,9.16a33.15,33.15,0,0,0,.41,3.92c.3,6.49-.19,1.52-.14,5.52.24,8.83,1.58,22.12,1.46,26.83a39.14,39.14,0,0,1-.35-4.09c.46,5.74,1.31,26.79,1.44,21.26.59,15.64,1.7,29.89,2.08,42.37.21,2,.42,4.74.53,7.6a23.38,23.38,0,0,1-1,8.41,17.85,17.85,0,0,1-4,6.12c-1.44,1.55-2.63,2.66-3,3.17.1-.3-1.18.58-3.25,2.16a97.87,97.87,0,0,1-8.67,5.56,29,29,0,0,1-2.7,1.46L371,941.12c-1.9.88-3.82,1.7-5.64,2.49s-3.62,1.4-5.22,2L355.9,947c1.53-.59-.49,0-2.51.46s-3.93.89-2.12.27c-5.39,1.35-10.64,2.36-14.3,3s-5.71,1-4.72,1.07c-7.42.72-14.89,1.38-22,2l-2.63.22-.53,0-.17,0-.35.05a.86.86,0,0,1-.18-.61.65.65,0,0,1,0-.19,3.83,3.83,0,0,1,.07-.43,5.4,5.4,0,0,1,.31-.88,6,6,0,0,1,2.46-2.75,4.28,4.28,0,0,1,3.14-.51l.15-3.19a13.43,13.43,0,0,1-2.89.12,13.29,13.29,0,0,1-2.67-.53,11.73,11.73,0,0,1-4.15-2.3c-.37-.24-.7-.53-1-.8l-.71-.64a3.2,3.2,0,0,1-.36-.41,1.46,1.46,0,0,1,.4-.26l.11-.05.15-.06.25-.08a9.27,9.27,0,0,1,1-.27,10.52,10.52,0,0,1,3.85-.13l.29-3.68a4,4,0,0,1-.68-.05,2.29,2.29,0,0,1-.34-.07l-.25-.07a1.57,1.57,0,0,1-.45-.22,1.92,1.92,0,0,1-.36-.34l-.13-.2-.06-.1s.06,0,.08-.06a3.66,3.66,0,0,1,.61-.22l.32-.07.25,0c.17,0,.35,0,.52,0a13.41,13.41,0,0,1,3.87.3l.32-3.32a1.27,1.27,0,0,1-1-.72,1.5,1.5,0,0,1-.22-.67,1,1,0,0,1,.08-.47c.07-.08.11-.18.21-.24s.11-.07.15-.11.21,0,.3,0l.37,0a10.23,10.23,0,0,1,1.93-.89c.34-.09.54-.06.63.05a.41.41,0,0,1,.06.23l0,.19v0h0c-.29-.19,2.53,1.62,1.34.85h0v-.08l0-.16c-.18-.82-.36-1.59-.52-2.29l-1.5-2.24-.33-.49-.17-.24a1.54,1.54,0,0,1,.28-.09l.62-.16,2.25-.6c1-.27,2-.53,3-.82,4-1.1,7.82-2.34,11.55-3.77a73.53,73.53,0,0,0,10.75-5,50.21,50.21,0,0,0,9.5-6.85,7.54,7.54,0,0,1-1.23,1.33,17.27,17.27,0,0,1-1.33,1.19l-1.78,1.37a57.32,57.32,0,0,1-10,5.77c-7.47,3.44-15.06,5.45-14.31,5.65a94.15,94.15,0,0,0,18.45-7.54A46.32,46.32,0,0,0,353.32,904a36.79,36.79,0,0,0,7.45-16.09,93.51,93.51,0,0,0,1.33-9.35c.32-3.21.65-6.56,1-10.09.78-7.32-.09,4.18-.22,6.67,1.24-14.26,2.49-28.06,2.95-41.55a232.31,232.31,0,0,0-1.6-39.35,13.5,13.5,0,0,1,.31,1.75c.16,1,.31,2.35.46,3.65-.21-2.52-.58-5.43-.85-7.65s-.58-3.73-.69-3.42c.25,1.62.53,3.24.74,4.87.22,4-.49-.94-1.65-6.94s-2.71-13.05-2.9-13.47c1.22,4.1.11-2.09-.84-7.66s-1.63-10.53,0-4c-.63-3.22-1.41-7.27-1.49-6.49-.65-4.83-.74-6.37.19-1.52-1.35-8.81-1.54-11.67-1.82-14.31-.14-1.32-.23-2.59-.31-4.54s-.11-4.59.08-8.62c.13.06.08,3.32.24,5-.19-8.15.21-16.42,2.24-30,0,.83.3-.74-.25,3.32.78-5.85,1.5-11.27,2.2-16.51s1.28-10.31,1.92-15.45c1.29-10.27,2.61-20.83,4.22-33.7-.22,7.68,1.23-8.74,1.89-10,.23-2.32.42-4.64.6-7s.4-4.63.54-7c-.22,1.86-.5,3.71-.76,5.56,1.13-12.18,1.4-23,1.9-33.49,0,3-.09,6.06-.13,9.09l.23-5.73c.07-1.91.09-3.82.13-5.73.11-3.82.07-7.64.06-11.47l-.12,6.49c0,2.17-.16,4.33-.24,6.49,0-6.19-.19-5.86-.31-6s-.17-.8-.1-8.93c.06,1.65,0-1.4-.07-5.67,0-2.13-.11-4.56-.19-6.86s-.1-4.47-.17-6.06v0c-.36-3-.63-6.07-1.07-9.48s-.85-7.19-1.26-11.69c-.08-2.35.82,1.82.77.29-1.11-5.88-3.22-28.41-4.53-35.86.39,2.49.7,2.59.67,1.76l-.92-4.93c-.49-5.64-.52-6.47-.19-5.58-1.76-16.92-.12,5.45-2-14.65.21,1.57.18.81.6,4.09-1-10.09-2.27-19.81-3.41-29.32q-.44-3.57-.87-7.1c-.27-2.36-.61-4.71-.77-7-.31-4.66-.27-9.34-.43-14,.16-2.77.39,1.32.5,5.29s.28,7.8.4,4.67c-.25-6.67-.24-13.57-1.34-20.51a35.36,35.36,0,0,0-1.19-5.19,11.42,11.42,0,0,0-.45-1.28,11.73,11.73,0,0,0-.53-1.27l-.64-1.24c-.21-.41-.49-.76-.74-1.15a14.07,14.07,0,0,0-3.8-4,8,8,0,0,0-5.57-1.41,11.57,11.57,0,0,0-5.11,2.18,24.62,24.62,0,0,0-4,3.55,63.07,63.07,0,0,0-6.28,8.23c-3.75,5.69-6.85,11.65-10.15,17.19.84-1.35,1.65-2.75,2.46-4.14a23.37,23.37,0,0,1-2.12,4.24c-1.12,1.88-2.58,4.17-4.19,6.73-3.22,5.1-7.07,11.2-10.41,16.85,1.65-2.75,1.85-3.8,1.47-3a248.07,248.07,0,0,1-16,23.08,131.62,131.62,0,0,1-25.21,24c.86-.71,1.71-1.42,2.54-2.15-4.19,3.1-9.86,7-15.76,10.75s-12,7.41-16.87,10.31c-2.77,1.91-8.34,5.23-4.81,3.45-14.75,8.25-28.5,16.7-41.82,25-6.66,4.12-13.22,8.19-19.75,12.14l-4.82,2.9L158.18,556l-.43.25-.21.12.1-.24.39-1,.73-1.77,1-2.31,1.52-3.78-4,.68,4.22-.84-1.7,4.68c-.1.3-.15.45-.12.4a1.14,1.14,0,0,0,.1-.23c.09-.21.2-.51.36-.91l1.56-4.1-13.49,2.64-5.31,1L141,551c-.23.12-.1-.15-.11-.27a2.13,2.13,0,0,1,.07-.44,4.29,4.29,0,0,1,.27-.86,3.77,3.77,0,0,0-.57,1,3,3,0,0,0-.17.6,1.32,1.32,0,0,0-.05.32l.31,0,4.72-.68-3,.7-1.83.41a6.36,6.36,0,0,1-1,.19,7.12,7.12,0,0,1,.12-1,7.68,7.68,0,0,1,2.17-4,10,10,0,0,1,2-1.5,9.3,9.3,0,0,1,2.3-.87,7.93,7.93,0,0,0-2.71,1.21,6.86,6.86,0,0,0-1.22,1c-.44.47-.3.43.17.08a9.52,9.52,0,0,1,2.47-1.38,7.56,7.56,0,0,1,3.75-.39l.05-1.45-2.65.08c.86,0-.88.28-.44.36-6.9.14-7.47.35-8.66.63a20.63,20.63,0,0,1-3,.45l-1.49.13s-.09,0-.08,0l0-.1,0-.22.09-.45a8.42,8.42,0,0,1,.34-1,7.79,7.79,0,0,1,1.29-2,8.8,8.8,0,0,1,2.42-1.92,6.5,6.5,0,0,0-.71.68,8.26,8.26,0,0,1,6.58-1.63l0-.49a4.69,4.69,0,0,1-3.13-.12,6.16,6.16,0,0,1-2.59-2,4.65,4.65,0,0,1-1-3.12c0-.14,0-.29,0-.43l.42-.05.86-.12,1.77-.24c.8,0,.73.07.18.19l-1.11.2-1.33.21-.36.06h-.09a.28.28,0,0,0,0,.09v.19a3.14,3.14,0,0,0,0,.75,4.13,4.13,0,0,0,1.06,2.22c.21.22.36.35.44.35a6.55,6.55,0,0,1-.49-.56,6.1,6.1,0,0,1-.37-.59,3.91,3.91,0,0,1-.41-1.16c-.05-.2,0-.42-.07-.63l0-.31c0-.11,0-.24.12-.22l1.23-.2,3.07-.51a11.52,11.52,0,0,0,1.61-.41l.8-.22.4-.11.2,0,.1,0,0,0,.44.25-.16-.3c0-.06.14,0,.21-.06l.49-.07,1-.14.48-.06.25,0h.05v.06l0,.12a.8.8,0,0,1-.31.86,1.54,1.54,0,0,1-.93.25c-.17,0-.2.07-.33.07a2.31,2.31,0,0,1-.47-.12c-.58-.19-1.19-.57-1.24-1.2-.13-.17-.29-.36-.23-.44a1.15,1.15,0,0,1,0-.32l.22-.58a2.88,2.88,0,0,1,.63-1,5.82,5.82,0,0,1,2-1.32,17.2,17.2,0,0,1,2.3-.76l2.32-.67-2.15.74c-.76.25-1.53.49-2.28.82a6.37,6.37,0,0,0-2,1.31,3.11,3.11,0,0,0-.6.95,1.78,1.78,0,0,1-.3.55,2,2,0,0,0,0,.34v.08s0,0,0,0l.09.1.39.39c-.09.47.31.79.72,1a3,3,0,0,0,.68.2c.16,0,.13-.05.17-.09s.14-.06.26-.07c.46,0,1-.23,1.08-.71a.78.78,0,0,0,0-.34l0-.16V531h-.08l-.63.09.43-.06c.14,0,.33-.1.3.11a.89.89,0,0,1-.16.78,1.22,1.22,0,0,1-.69.34,1.54,1.54,0,0,1-.37,0h-.09s0,0,0,.06l0,.13c.08.13-.12,0-.2,0a2.27,2.27,0,0,1-.3-.06,1.92,1.92,0,0,1-.48-.19.4.4,0,0,1-.14-.67l-.56-.49-.28-.24v-.08l0-.28c0-.18.31-.3.43-.45a2.56,2.56,0,0,1,.33-.61,3.71,3.71,0,0,1,1-.92,11.31,11.31,0,0,1,2.61-1.08l3-.93c1.08-.38,2.3-.79,3.72-1.34l-.72.28q4.28-1.62,8.38-3.64c2.72-1.35,5.38-2.82,8-4.36-1.35.75-2.69,1.52-4.07,2.23,5.61-3.75,11.22-7.6,17.22-11.92S196,498.8,203,493.2c-13.71,10.88-2.11,2-2.92,3.17,3.78-2.61,9.47-6.67,7.95-5.38,6.61-5.38,11.59-8.25,20.75-16.05.53-.19,7.16-5.64,5.88-4.15,8.6-7-2.2,1.44-1.59.7,6.54-5.48,14.42-11.69,22.74-18.85a272.12,272.12,0,0,0,25.32-24.42c1.77-2,3.35-3.75,4.8-5.37s2.68-3.17,3.86-4.56c2.35-2.8,4.25-5.24,6.1-7.65,3.68-4.85,7.16-9.6,12.81-17.62,2-2.62,1.35-1.44.16.4-.61.9-1.34,2-1.91,2.84l-1,1.46c6.52-8.49,11-15.16,16.46-23.64-1,1.77.24.08,2.06-2.4,4.4-6.78,2.53-4.8,8.49-13.63-.85,1.62-1.9,3.73-3.89,7.09,2.54-4,5-8.05,7.51-12.14s4.87-8.28,7.33-12.56c1.55-2.11-2.69,5.32-4.38,8.38,2.86-4.77,6.42-11,9.54-16.37s5.84-9.85,6.61-11.39q-2,2.94-3.94,5.91c2.13-3.42,1.39-1.58-.11,1-4.67,8.24-7.14,11.66-7.56,12l3.5-6.08c-2.23,2.86-5.73,9-9.77,15.79S329.1,364,325.22,369.87l2.69-5.27q-3.74,6.21-7.53,12.39c-1.86,2.47-3.32,4,.49-1.82-5.91,8.23-4.81,7.57-10.08,14.5-.6.75-.38.38.12-.36-1.86,2.73-3.73,5.44-5.64,8.12,1-1.64-1.31,1.08,2.33-3.78-5.35,7.08-9.65,12.78-13.23,17.31a119.08,119.08,0,0,1-8.83,10.19c.33-.36.64-.75,1-1.13-8.19,9.18-8.66,9.56-8.39,9.58.12,0,.37-.15-.18.56-.27.36-.75.93-1.55,1.84s-1.92,2.16-3.54,3.81L268,439.76l-4.92,3.84c-.48.66-1,1.33-1.46,2-1.9,1.69-5.66,5-5.09,4.27-6.9,6.46,1.36-.9-2.58,2.93-4.73,3.89-11.18,9.32-16.81,13.89-2.82,2.27-5.44,4.33-7.5,5.9a32.08,32.08,0,0,1-4.27,2.89c-3.25,3,9.41-7-.76,1.24-3.42,1.66-11.91,9.29-21.13,15.63,2.52-2.37,11.15-8.51,2-2.14-5,4.55-17.6,12.83-25.19,18.39,0,.32-4.12,3.42-10.09,7.12A113.17,113.17,0,0,1,160,521.31a85.18,85.18,0,0,1-11.31,4.56,13.15,13.15,0,0,0-4.35,1.69,4.67,4.67,0,0,0-1.28,1.3,4,4,0,0,0-.41.93,1.27,1.27,0,0,0,0,.69,1.34,1.34,0,0,0,.88.88,1.68,1.68,0,0,0,1.32,0,.62.62,0,0,0,.34-.58l0-.19s0-.07,0-.07H145l-.38.05-1.52.19-3.79.48-2.73.35-1.43.32s-.07,0-.08,0v.1l0,.19,0,.37c0,.26,0,.5,0,.75a6.06,6.06,0,0,0,.88,3,6.86,6.86,0,0,0,1.85,2,6,6,0,0,0,5.2,1l3.08-1-3.14-.71a9.28,9.28,0,0,0-3-.17,9.88,9.88,0,0,0-5,2,12.14,12.14,0,0,0-.94.81c-.16.16-.31.33-.46.5a3.48,3.48,0,0,0-.46.57,3.84,3.84,0,0,1,.28-.53,11.58,11.58,0,0,0-1.53,3.37c-.09.39-.21.78-.28,1.24a4,4,0,0,0-.09.66h2.23c.55,0,1.18-.09,1.78-.13l6.51-.5,6.92-.49,0-1.09a9.06,9.06,0,0,0-7.58,3,1.41,1.41,0,0,1,.33-.61,6.62,6.62,0,0,1,1.07-1.06,9.19,9.19,0,0,1,2.27-1.27,8.75,8.75,0,0,1,4-.54l5.92.58-6,1.58-.46.05.46,0,.08-2.19a9.24,9.24,0,0,0-2.83.1,10.11,10.11,0,0,0-2.63,1,10.24,10.24,0,0,0-2.24,1.62,8.31,8.31,0,0,0-1,1.12l-.52.72c-.16.25-.28.51-.42.76a9.68,9.68,0,0,0-.73,2.45c-.06.45-.15.91-.18,1.44,0,.14,0,.27,0,.41s0,.17,0,.17l.2,0,.84-.09.89-.09a9,9,0,0,0,1-.14l2.4-.49,4.39-.89-2.49.89,7.16-1.4,3.37-.68,2.1-.45c-.18.52-.37,1-.55,1.57l-1.83,4.84c-.29.78-.58,1.56-.88,2.35l-.45,1.17-.11.3s-.07.14,0,.1l.14-.08.56-.34L159.6,557l7.6-4.58,7.24-4.25c.66-.85-12.68,6.37,3.32-3.54.7-.19,1.48-.24-2.7,2.37,1.38-.85,4.84-3.12,7.67-4.72l-6.26,4.18c7-4,3.48-2.44,9.05-5.76,0,.32,4.21-2.3,3.54-1.62-1.4.88-4.9,2.82-7,4.21,6.29-3.74,13.94-8.15,16.55-9.47-.63.18-.2-.34,4.36-3.14,11.83-7.17,4.24-2.15,11.22-6.19,2.76-1.9,10.43-6.28,10.4-6.78a52.13,52.13,0,0,1,5.61-3c3-1.94,10.18-6.24,15.65-9.7s9.23-6.06,5.71-4.05l-1.56,1,1-.65,0,0,0,0c9.77-6.53,19.79-13.59,28.64-22a147.75,147.75,0,0,0,22.47-28.13l.1.11c3.72-5.89,7.66-12.56,11.33-18.8l5.23-8.9c1.58-2.81,2.93-5.4,4.1-7.59,2-3.58,5.25-8.13,4.46-6.55a67.2,67.2,0,0,1,6.83-9.47,24.18,24.18,0,0,1,4.46-3.94,9.94,9.94,0,0,1,3.49-1.52,6.07,6.07,0,0,1,4.42.73,5.74,5.74,0,0,0-1.43-.54l-.56-.14-.48,0a3.18,3.18,0,0,0-1.06.05c-.33.07,0,.06.15.05s.26,0-.49.05a10.61,10.61,0,0,0-5.19,2.56,12.9,12.9,0,0,1,3.78-2.18,6.58,6.58,0,0,1,3.36-.25,8.65,8.65,0,0,1,4.71,3.5,17.67,17.67,0,0,1,2.93,5.82,51.45,51.45,0,0,1,1.67,8.9c-.42-2.46-.24.09-.08,4.1s.21,9.5.4,12.81v-9.69c.12,3.7.23,7.15.34,10.51.06,1.68.18,3.37.36,5l.54,4.88-.9-3.46c1.31,14.07,3.08,26.68,4.6,38.48s2.84,22.77,3.5,33.51c1.15,7.39-1.42-15.28-.29-8.68,1.34,12.92,2.09,26.46,2.52,30.5.41,4.43.78,7.67,1.12,10.33.18,1.33.35,2.52.5,3.63s.27,2.16.41,3.21a135.55,135.55,0,0,1,1.3,17.8c.06-1.18.19-2.34.38-1.47a28,28,0,0,1,.3,3.08c.12,1.71.25,4.17.26,7.65a93.3,93.3,0,0,1-.59,11.82c-.23,1.34-.41,0-.38-4.07.08-3.11.11-4.61.17-4.47-.05-4.19-.12-9.69-.32-4.55l.17,1.68c-.05,3.21-.23,9.28-.43,14s-.49,8.14-.54,6c-.14,4.89-.19,5.94,0,4.86s.36-4.28.56-7.91c-.12,2.08-.24,4-.35,5.92s-.25,3.67-.38,5.4c-.21,3.48-.5,6.73-.75,10-.53,6.54-1.16,13.14-2.19,21.65.41-2.7.86-5.18.58-2.48-1.52,12.49-1.84,15.24-1.92,17a110,110,0,0,1-1.11,11c-1.58,9.57-.16-3.53-2.28,13.52-1.62,10.36-.77,2.13-.34-2-.91,7.77-2,15-3,21.39s-2,12-2.51,16.44c.26-2.76.58-5.5.9-8.24-.59,4.91-1.08,9-1.49,13.07l.86-4.67c-.31,2.41-.56,4.65-.73,6.27a13.25,13.25,0,0,1-.36,2.58c-.07,2.52.15,1.57.33,1.24s.29,0,.2,4.94a107.07,107.07,0,0,0,0,12.62c.2,4.42.65,8.28.52,9.42-.53-5.09-.63-7.51-.73-8.53s-.14-.63-.19-.15-.09,1.07-.2.45a54.81,54.81,0,0,1-.34-6.82c.06,3.36.2,7.47.62,12.37,0,.74-.18-.68-.3-2,.32,4.92.72,7.92,1.05,10s.59,3.18.86,4.32c.56,2.27,1.16,4.64,3,14.53-.74-2.46.38,4.68,1,7.88-1.47-8-.23-3.89,1.25,3.38,1,6.35,1.45,9.8,1.81,12.49s.63,4.64.91,8c-.06-1.28-.19-2.55-.29-3.83s-.2-2.55-.34-3.82c.56,2.55,1.23,9,1.6,17.91-.15.77-.5-8.12-.45-4.92,1,9.93,0,22.48-.57,36.34-.62,6.41-.53.59-1.05,6.22-.41,7.77-.91,12-1.4,16.26-.24,2.15-.49,4.32-.79,7s-.52,5.8-1.07,9.75c.54-2.24.74-3.61.73-3,0,.32-.06,1.14-.24,2.58a52.23,52.23,0,0,1-1.11,6.2,76.88,76.88,0,0,0,2-13.07l1.14-13.43c-.36,5.75-.7,11.53-1.16,17.25.88-8.06,1.45-17.1,1.93-21.94-.43,8.23-.45,7.38.19,3.53-.76,5.52-1.2,11-1.68,16.73a72.87,72.87,0,0,1-1.2,8.64,29,29,0,0,1-3.13,8.57l-.62-.73A35.69,35.69,0,0,1,346.79,906a53.62,53.62,0,0,1-11,7.31,90.15,90.15,0,0,1-13.45,5.43c-2.47.79-5.07,1.54-7.82,2.25l-2.12.55-3.27.79-1.68.4-.21,0-.1,0h-.06l0,0,.24.37.49.75,2,3-1.69-2.63-.84-1.29-.1-.16,0-.08s.06,0,.08,0l.38-.08.75-.18,5.32-1.23-.62.21c-.25.08-.43.15-.9.27l-2.78.74-1.63.41c-.05,0-.18,0-.17.07l.13.19.26.39.53.79c.35.54.72,1.09,1.1,1.66.18.28.37.57.57.86l.14.21-.12-.17-.23-.35.8,1.21.05.08-.05-.07c0-.05-.07-.11-.11-.15a1.57,1.57,0,0,0-1-.53,2,2,0,0,0-.94.07l-.14.06-.07,0-.13.07a3.23,3.23,0,0,0-.54.37,3.51,3.51,0,0,0-.87,1,3.58,3.58,0,0,0-.42,2.15,4.38,4.38,0,0,0,.68,1.88,3.85,3.85,0,0,0,3.29,1.86c-.06,0-.1,0,.13.05l.21-2.12c.18-.08-1-.52-2.65-.72a15.26,15.26,0,0,0-2.81-.06,17,17,0,0,0-4.07.86,16.59,16.59,0,0,1-2.07.92c0,.1,0,.21,0,.32a3.57,3.57,0,0,0,.2.46c.14.32.29.65.46,1a7.75,7.75,0,0,0,1.42,2.07,7.6,7.6,0,0,0,2.63,1.8,6.37,6.37,0,0,0,1.45.43,7.43,7.43,0,0,0,1.42.12l.23-2.92a13.63,13.63,0,0,0-5.85.35l-.65.2-.73.28a12.59,12.59,0,0,0-1.56.76A20.49,20.49,0,0,0,296,940a15.72,15.72,0,0,0,1.8,2.22c.36.52.84,1,1.25,1.5s.7.72,1.09,1a16.89,16.89,0,0,0,8.13,3.88,16,16,0,0,0,4.8,0l6.81-1.13-6.68-1.71a7.1,7.1,0,0,0-3.67.06,8,8,0,0,0-2.86,1.5,8.79,8.79,0,0,0-3.06,4.61,7.93,7.93,0,0,0-.24,1.4,11.34,11.34,0,0,0,.09,1.57,11.12,11.12,0,0,0,.38,1.43l.23.69c0,.16.17.09.27.11h.36a11.5,11.5,0,0,0,1.42,0l1.38-.14,2-.21,19.62-2.19c-2.91.53-2.15.54-2.29.69s-1.17.41-7.69,1.13c3.26-.28,6.35-.63,8.64-.88a22.43,22.43,0,0,0,3.8-.63c.95-.07,2.55-.28,4.5-.62l3.16-.53,3.46-.7c2.37-.44,4.77-1.06,7-1.55s4.15-1.05,5.63-1.35c1.33-.41,2.16-.83,3.57-1.35l2.63-.94c1.09-.43,2.43-.93,4.17-1.56.77-.22,0,.15,0,.15s.68-.28,1.56-.72l3-1.37a10.59,10.59,0,0,0,1.81-1c.13-.13-.32.06-1.83.6a70.8,70.8,0,0,0,15.44-8.44c1.32-1,2.59-2,3.91-3.09a34.15,34.15,0,0,0,3.78-3.47,22,22,0,0,0,3.2-4.24,16.79,16.79,0,0,0,1.83-5.06,43.17,43.17,0,0,0,.27-10.31c-.16-3.31-.32-6.53-.47-9.6-.27-6.14-.46-11.67-.49-16-.78-14.19-1.73-31.29-2.44-44.18a8.11,8.11,0,0,1,.24,2.47c-.62-17.79-1.41-10.88-2.11-31.13,0-10.36.79,10.73.65,4.28.84-2.85-1.35-24.41-1.25-38l.18,3.3C392.88,770,391.68,755,391.72,738c0,0,.09.82.15.09-.55-11.62-.34-33.66.81-50,0,5.1-.25,7.43.3,4.35.42-7.32-.82,2.1.21-12.51.62-4.72,1.9-15.2,2.54-16.53-.61,4.55-1,9.14-1.46,13.71,1.2-7,1.85-17.75,3.07-24.92l.09.95c.37-2.61.7-4.91,1-7s.49-4,.65-5.62c.31-3.34.57-6.06.83-8.83s.59-5.57,1.14-9.06c.28-1.75.62-3.67,1.11-5.82a42.66,42.66,0,0,1,2.16-7.09c-.35.68-.67,1.37-1,2.08.84-2.92,1.84-4.94,3.08-5.94a3.8,3.8,0,0,1,1.94-.72,4.23,4.23,0,0,1,1.78.23,10.32,10.32,0,0,1,3.45,2.16,38,38,0,0,1,4.67,5.08c.58,1.12,1.12,2.25,1.65,3.39l2.05,3c.39.57.82,1.18,1.3,1.81s1,1.23,1.46,1.89c2,2.63,4.39,5.61,6.9,8.74,5,6.25,10.77,13,15.7,18.44-2.95-3-7.23-7.74-11.54-12.87s-8.65-10.61-11.93-14.83c2.42,3.29,6.62,8.81,10.68,13.81s8,9.5,9.49,11c-2.2-2.45-5-5.54-6.94-8.12,6.69,7.46,15.38,17.36,27.09,28.62-1.43-.6,6.08,6.94,15.71,14.81a125.11,125.11,0,0,1,13.64,12.51,40.92,40.92,0,0,1,7.4,11.16c3.29,6.15,5.35,13,7.45,19.84s4.17,13.85,6.26,20.95C518.8,761,523,775.84,527.3,792c-2.17-11.67,2.52,9.41,2.84,7.21,2,7.52,2.61,10.42,2.74,11.1q2.46,11.52,4.56,23.11c.85,5.52-1.68-7.19-1.76-6.45,1.72,8.33,1.91,10.1,2,11.17a52.81,52.81,0,0,0,1,7c-.06-1.19.29.26,1.08,3.25a50,50,0,0,0,1.77,5.45,27.07,27.07,0,0,0,3.58,6.48,26,26,0,0,1-3.42-6.51,45.68,45.68,0,0,1-1.84-6.87c1.43,5.92,3.41,10.14,5.64,13a33.36,33.36,0,0,0,6.38,6.42,49.35,49.35,0,0,0,7.5,4.79c3.07,1.69,7,3.41,12.2,6.16-2.19-1.14-4.44-2.18-6.75-3.21A77.79,77.79,0,0,1,575.42,880a39.92,39.92,0,0,1,5.73,4.9,82,82,0,0,1,5.41,6.17c3.5,4.36,7,9,10.6,12.64a33.64,33.64,0,0,0,10.49,7.46,28.61,28.61,0,0,0,2.61,1.35c.17.08.06.11-.45,0a12.78,12.78,0,0,1-2.69-1.12,13.94,13.94,0,0,0,5.44,1.82,8.06,8.06,0,0,0,3.35-.35,6,6,0,0,0,3-2.28,5.69,5.69,0,0,0,.92-3.74,8,8,0,0,0-1.1-3.25,11.15,11.15,0,0,0-.89-1.31l-.12-.15,0,0,0-.05-.11-.1a2.25,2.25,0,0,0-.49-.37l-.15-.09s-.16-.06-.06-.06l.31-.06.67-.13,5.06-.85,1.43-.24,1.06-.18a10.84,10.84,0,0,0,1.21-.22l1.13-.29s.12,0,.12,0l0-.15,0-.3.08-.6c.06-.4.06-.79.1-1.19a4.93,4.93,0,0,0,0-1.21l0-.6a3.26,3.26,0,0,0-.1-.46,6,6,0,0,0-.23-.86,10.83,10.83,0,0,0-.68-1.6c-.14-.26-.3-.5-.45-.74a2.25,2.25,0,0,0-.24-.36l-.15-.19a2.5,2.5,0,0,0-.32-.33,2.72,2.72,0,0,0-.66-.44,3.39,3.39,0,0,0-.61-.21,1.86,1.86,0,0,0-.33,0l-.17,0h.1l1.17-.11-1,0h0l.5,0,1-.07c1.33-.09,2.6-.2,3.85-.31l.94-.08h.11s.11,0,.06,0l-.13-.21-.25-.41-1-1.62c-.69-1.09-1.29-2.13-2.05-3.17l-.76-1.08-.74-.94c-.49-.62-1-1.25-1.48-1.83-1-1.19-2.06-2.3-3.1-3.39a104.31,104.31,0,0,0-12.65-10.54l2,1.13c-4.57-3.19-8.23-5.08-13.93-8.94.36.11,2,1-.15-.38-1.25-.75-4.39-2.59-7.9-4.83A93.22,93.22,0,0,1,578.52,846c1.61,1.23,3.3,2.39,5,3.53a76.39,76.39,0,0,1-13.9-12.71,50.79,50.79,0,0,1-8-13.62A107.48,107.48,0,0,1,557,808.56c-1.25-5.1-2.47-10.46-3.79-16.33.33,0-.65-5.59-2-12.51S548.13,764.5,547,759l.18.36c-3.5-16.35-6.64-30.2-9.76-43.74-1.57-6.77-3.12-13.47-4.71-20.36S529.24,681.17,526,674a54.65,54.65,0,0,0-3.84-7.66,85.94,85.94,0,0,0-6-8.68c-2.33-3-4.93-6.06-7.66-9.23s-5.8-6.36-8.91-9.54c-6.24-6.35-12.85-12.78-19-19.22a198.71,198.71,0,0,1-16.36-19c1.35,1.89,1.15,1.82.17.74-.49-.54-1.17-1.33-1.92-2.27s-1.57-2-2.33-3.13a99.09,99.09,0,0,1-6.33-10.63l-1.12-2.43c-.32-.73-.55-1.39-.74-1.92-.39-1.05-.47-1.62-.24-1.4.26.79.58,1.56.87,2.34A53.91,53.91,0,0,1,450,569.14c-.05-2.64.11-5.91.19-9s0-6.28,0-9.21L449.3,549a240.26,240.26,0,0,0-1.14-25.63c-.85-9.16-2.1-18.64-3.36-27.66s-2.5-17.6-3.4-25-1.48-13.53-1.65-17.67c-.92-7.25-1.56-16.3-2.08-23.54l.44.37c-.42-10.12-.47-17.72-.43-25.92s.23-17,.89-29.5l0,5.12c.18-3.52.27-6.43.34-8.93a65.53,65.53,0,0,1,.49-6.67c.16-1,.26-2.09.52-3.13a29.19,29.19,0,0,1,.82-3.25,34.2,34.2,0,0,1,3.29-7.46c.82-1,1.7-2,2.59-2.9a91.63,91.63,0,0,1,12.12-13.64c4.45-4.29,9.06-8.33,13.84-12.25,9.53-7.86,19.44-15.34,28.52-23.67-.25.33-.67,1-3.73,3.6,4.5-3.74,13.13-11.19,19.33-18.34s10-13.63,8.5-12a15.92,15.92,0,0,0,2.53-3.62c.71-1.13,1.42-2.55,2.26-4.11s1.61-3.34,2.36-5.26c.41-.94.75-1.93,1.11-2.94l.54-1.52c.15-.52.31-1,.47-1.56.69-2.07,1.07-4.27,1.57-6.39a68.17,68.17,0,0,0,1.31-11.82l.29,2.15c0-1.45,0-2.72.05-3.86s-.14-2.16-.2-3.12-.12-1.82-.18-2.68-.22-1.7-.32-2.57c-.25-1.75-.39-3.65-.91-6.05-.23-1.2-.45-2.55-.78-4.07s-.81-3.2-1.29-5.13-.68-2.63-.53-2.39a18.62,18.62,0,0,1,1.15,4,61,61,0,0,0-3.53-11c-.55-1.28-1.06-2.66-2-4.53l-1.46-3.32c-.57-1.28-1.32-2.72-2.14-4.44l1.39,2.48c.47.82.92,1.65,1.33,2.51-.62-1.5-1.3-2.72-1.83-3.82L525,185.07c-.9-1.59-1.57-2.71-2.15-3.67-1.13-2-2.07-3.15-4.08-6.08-1.1-1.7-2.6-3.74-4.1-6-.81-1.08-1.63-2.2-2.45-3.31L511,164.36l-1.26-1.6-2.34-3-2.05-2.53c-1.21-1.49-2-2.6-2.3-3-.68-.56-2.26-2.09-4.32-4.16s-4.67-4.62-7.33-7.3c-.63-.82,1.39,1,2.41,2-7.52-7.68-13.51-12.94-18.83-17.68s-10.07-8.86-15.29-14a11,11,0,0,0-1.64-1.89c6.17,5.82,11.87,11,15.84,14.61s6.25,5.76,5.77,5.33c.27-.29-9.84-9.61-1.41-2.63-8.33-7.25-22.81-19.32-31.92-29.06-.41-.49-.82-1-1.11-1.37l1,1c-2.08-2.26-4-4.21-5.77-6.11l-1.93-2.21c-.6-.69-1.19-1.4-1.9-2.08A8.91,8.91,0,0,0,434,86.81a5.77,5.77,0,0,0-1.87-.47,4.73,4.73,0,0,0-2.24.4,4.5,4.5,0,0,0-1.69,1,.59.59,0,0,0-.22.31.26.26,0,0,0,0,.15.24.24,0,0,0,0,.08l0,0,0,0-.28-.29-.35-.33-1.53-1.47-3.18-3-3.48-3.3-1.26-1.2-.6-.58c-.21-.2-.37-.28-.55-.43l-2-1.46c.1.14,0,.14-.15.06,0,0-.05-.06-.06,0l0,.13c0,.1,0,.2-.07.31s-.11.44-.18.7c-.25,1-.55,2.09-.71,2.92s-.17,1.33,0,.86c.07-.23.17-.71.39-1.41l.42-1.26c.09-.24.18-.51.28-.79s.11-.29.16-.45l0-.11,0-.06s0,0,0,0l.2.16c-.29-.26-.31-.17-.2-.18l1,.77a22.47,22.47,0,0,1,2.14,1.81l2.72,2.58,2.15,2-.37-.29,5.09,4.82.55.53.07.06,0,0,0,0a1,1,0,0,1-.07-.18,1,1,0,0,1,0-.38,1.29,1.29,0,0,1,.39-.7,4.76,4.76,0,0,1,2.4-1.3,3.92,3.92,0,0,1,1.45,0,5.84,5.84,0,0,1,1.26.33,5.88,5.88,0,0,0-1.24-.29,4,4,0,0,0-1.42.07,4.67,4.67,0,0,0-2.35,1.34,1.53,1.53,0,0,0-.42.84,1,1,0,0,0,0,.46c0,.14.19.38,0,.19l-.68-.61-1-1-1.69-1.62q-1.71-1.67-3.61-3.58l-1-.84-.52-.43-.61-.52L417.78,80l-.63-.53-.57-.42c-.36-.27-.71-.54-1.06-.79l-.24-.19s-.09-.1-.11,0l-.05.17-.18.69a21.81,21.81,0,0,0-.45,2.26,14.85,14.85,0,0,0-.34,3.7,7.57,7.57,0,0,0,.57,2.56l0,.1s-.06-.06-.09-.08l-.2-.22c-.13-.15-.27-.27-.4-.41s-.55-.5-.82-.72-.55-.41-.82-.59a8,8,0,0,0-.91-.51A14.16,14.16,0,0,0,408,83.83a18,18,0,0,0-2.13-.28c-.67,0-1.43-.13-2.06-.1a37.34,37.34,0,0,0,.92,5l.15.5.12.38q.12.39.24.75c.18.47.34.93.52,1.34.69,1.65,1.34,2.75,1.58,3.27.15.23.33.45.49.68l.15.2.08.09c.1.13.21.25.32.37l.37.36.21.18c.05,0,.2.14.05.11a4.9,4.9,0,0,0-1.37,0l-.84.17c-.4.09-.79.2-1.18.31s-1,.33-1.55.54l-1.66.72a19.65,19.65,0,0,0,0,2.17,8.36,8.36,0,0,0,.38,2,9.26,9.26,0,0,0,1.57,2.88,9.68,9.68,0,0,0,1.14,1.17l.31.27a2.66,2.66,0,0,0,.26.2l.33.22a2.67,2.67,0,0,0,1,.34l.27,0h.06l-.06,0-.11,0c-.15.07-.29.16-.43.24s-.28.2-.41.3l-.19.17-.27.25a13.48,13.48,0,0,0-1.25,1.43l-.61.84-.29.42-.08.1s0,.08.06.12l.13.22c.35.59.68,1.2,1.05,1.76l.61.76a3.88,3.88,0,0,0,.52.55,12.3,12.3,0,0,0,4.95,2.78,26.75,26.75,0,0,0,5,1c3.21.34,6.14.4,8.71.71a32.78,32.78,0,0,1,6.68,1.55,23.78,23.78,0,0,1,5.16,2.67c1,.67,1.58,1.21,2.45,1.85a38.15,38.15,0,0,0-8.09-4.13,40,40,0,0,1,9,4.86,102.49,102.49,0,0,1,9.13,7.34c5.72,5.09,10.6,9.46,11.81,10.23,5.37,5.22,3.74,3.88,2.67,3s-1.57-1.4,5.8,5.74l-2.09-1.82a255.73,255.73,0,0,1,18.6,20.75,116,116,0,0,1,13.63,21.34,77.87,77.87,0,0,1,7.6,25,61.71,61.71,0,0,1,0,14.38,69.44,69.44,0,0,1-3.65,15.36c1-2.91,1.41-4.39,1.66-5-3.32,12.24-9.41,23.85-16.9,34.42a95.78,95.78,0,0,1-12.84,14.59,70.16,70.16,0,0,1-7.63,6c-1.31,1-2.74,1.74-4.11,2.6-.7.41-1.43.76-2.15,1.14s-1.42.77-2.18,1.07a44.23,44.23,0,0,1-18.68,4.28,39.52,39.52,0,0,1-9.48-1.42,42.12,42.12,0,0,1-8.84-3.65,35.07,35.07,0,0,1-13.47-13,25.76,25.76,0,0,1-3.1-8.67,25.08,25.08,0,0,1,.24-9.1,44.38,44.38,0,0,1,2.5-8c.86-2.09,1.6-3.73,2.26-5.22,1.33-3,2.43-5.32,4.18-9.37.57-.89,1.15-1.77,1.68-2.69a52.69,52.69,0,0,0,3.31-14.82,50.74,50.74,0,0,0-.85-15.23,38.39,38.39,0,0,0-5.79-13.61A34.84,34.84,0,0,0,401.78,191a30.46,30.46,0,0,0-8.43-3.2,23.8,23.8,0,0,0-4.82-.56,28.17,28.17,0,0,0-5.08.23c1.21,0,2.4,0,3.58.1-4.95-.2-12.77,2-17.9,5.78-.65.46-1.3.88-1.89,1.32L365.61,196a32.34,32.34,0,0,0-2.57,2.35l-.92.87c-.24.26-.44.48-.6.64-.31.32-.43.41-.33.23l-1.48,2c-.32.48-.69,1-1.13,1.65s-1,1.3-1.48,2.11l-.36.13a50.53,50.53,0,0,0-2.76,5.38l-1.06,2.83c-.35,1-.57,1.93-.86,2.9A46.52,46.52,0,0,0,350.67,229c0,1.16,0,2.16,0,3s.09,1.61.13,2.23c.05,1.24.12,2,.16,2.54,0,1-.08.95-.16,1.14s-.19.65.19,2.73l.33,1.89c.16.74.39,1.6.64,2.6a68,68,0,0,0,2.55,7.74,85,85,0,0,0,8.57,15.5c1.56,2.23,3,4,3.84,5.09s1.19,1.37.67.59l-1.93-2.71-1.85-2.86a20.54,20.54,0,0,1-1.84-3.46c1.63,2.58,3.32,5.12,5.16,7.54.77.47,2.33,2,2.1,1.13a19.67,19.67,0,0,0-2-3.53C366,268.1,364,265,361.5,260.08a79.68,79.68,0,0,1-6.34-13.91c-.22-.79-.34-1.61-.51-2.41s-.33-1.61-.42-2.42a69.58,69.58,0,0,0,4,12.16c-.68-1.7-1.18-3.28-1.72-4.71s-.93-2.8-1.31-4.1-.78-2.52-1.06-3.75-.62-2.45-.83-3.72c0-1.23-.18-3.36-.2-6.34a43.74,43.74,0,0,1,1.24-14.68c.39-.82,0,.82,0,1.46,0,.32,0,.39.23-.19s.58-1.86,1.57-4.11l.34-1c.11-.25.18-.45.24-.6.1-.3.1-.39,0-.35a5.54,5.54,0,0,0-.77,1.13c-.26.48-.48.83-.37.39a24,24,0,0,1,1.88-4.25,42.39,42.39,0,0,1,3.8-5.08c1-1,1.89-2.36,4.88-5.36.52-.3.45-.16-.05.35s-1.37,1.46-2.48,2.7a36.07,36.07,0,0,1,10.24-8.13c1-.55,2-.91,2.94-1.36s1.9-.65,2.74-1a18.84,18.84,0,0,1,2.35-.62c.7-.16,1.29-.34,1.76-.43.93,0,2-.06,3.2-.1l1.84.14a16.28,16.28,0,0,1,1.95.19,28.94,28.94,0,0,1,7.8,2.33,27,27,0,0,1,5.68,3.48c1.32,1,1.94,1.79,1.71,1.78a30.11,30.11,0,0,1,5.77,5.9,33.19,33.19,0,0,1,5.26,10.43,14,14,0,0,0-1-2.32c-.11-.13,0,.3.26,1.16a42.35,42.35,0,0,1,1.32,19.66c-.52,2.89-1.11,4.58-1.11,3.72a40.3,40.3,0,0,1-2.65,9.07c-1.48,3.61-3.61,7.66-5.73,12.09s-4.12,9.36-4.8,14.57a27.17,27.17,0,0,0,.07,7.7,26.5,26.5,0,0,0,2,6.86,19.08,19.08,0,0,1-1.57-4.34,28.47,28.47,0,0,0,2.16,6.12,36.53,36.53,0,0,0,2.35,4.17,35.34,35.34,0,0,0,5.5,6.46c.67.23,4,2.94,8.62,5.17a44.38,44.38,0,0,0,7.43,2.83,38.43,38.43,0,0,0,7.13,1.3c1.5.25,2.53.37,3.16.45s.89.14.86.19a10.21,10.21,0,0,1-2.74.12c-2.94-.06-6.9-.84-5.05-.15-.12-.17,1.14.06,3.06.25a43.46,43.46,0,0,0,7,.17c1.24-.07,2.44-.24,3.51-.4l2.69-.57c1.43-.3,2-.58.94-.41a58.05,58.05,0,0,0,7.83-2.13c.68-.26,1.22-.46,1.89-.69s1.47-.45,2.59-.92a7.07,7.07,0,0,1,1.77-1.3l3.2-1.95c1.24-.77,2.6-1.72,4-2.75a47.53,47.53,0,0,0,4.22-3.62c5.11-4.3,5.68-5,6.49-5.61a14.09,14.09,0,0,0,1.7-1.72l1.77-2c.72-.91,1.64-2,2.75-3.49,2.18-2.72,1.37-1.44,0,.53-.72,1-1.58,2.09-2.26,3S485.05,286.58,485.05,286.58ZM447,103.79h0c-2.1-2.08-3.84-3.91-4.95-5.09C443.1,99.78,444.5,101.28,447,103.79ZM468,123.6l-9.19-8.47c-.64-.8.27-.16,2.39,1.81C460,116,464.89,120.62,468,123.6ZM427.08,87.54l.62.55.35.35a.28.28,0,0,1,0-.27.29.29,0,0,1,.17-.21.86.86,0,0,0-.14.33.71.71,0,0,0,.06.38l-.42-.38-.35-.32-1.27-1.19-.43-.33A13.06,13.06,0,0,1,427.08,87.54Z"/><path class="cls-1" d="M420.77,82.29l-1.52-1.41,2,2.08,1.26,1Z"/><path class="cls-1" d="M251.59,500.92l.52-.32c-.43.26-.83.5-1.11.64Z"/><polygon class="cls-1" points="436.54 458.86 436.64 458.8 436.28 456.3 436.54 458.86"/><path class="cls-1" d="M146.15,543.83c-.31,0-.9,0-2.08,0C144.16,543.88,145.06,543.86,146.15,543.83Z"/><path class="cls-1" d="M154.73,525.22a89.48,89.48,0,0,0,9-4C159.88,523.13,157,524.34,154.73,525.22Z"/><path class="cls-1" d="M199.37,497.13a5.14,5.14,0,0,0,.72-.76l-.09.06Z"/><path class="cls-1" d="M365,799.6c.07.71.14,1.41.2,2C365.64,806.42,365.42,803.16,365,799.6Z"/><path class="cls-1" d="M369.33,552.26c.3,2.63.45,5.24.65,8C369.8,555.82,369.61,552.37,369.33,552.26Z"/><path class="cls-1" d="M351.3,947.7l0,0,1.64-.43Z"/><path class="cls-1" d="M370.3,571.86c0-2.22,0-4.26-.08-6.17s-.1-3.71-.24-5.43c.11,1.82.12,3.8.16,5.79S370.25,570,370.3,571.86Z"/><path class="cls-1" d="M351.34,329.4l1.34-2.14c-.05,0,0-.12.1-.29Z"/><path class="cls-1" d="M352.78,327l1.45-2.4C353.54,325.66,353,326.61,352.78,327Z"/><path class="cls-1" d="M357.37,319.57c-1.08,1.65-2.11,3.32-3.14,5C355.33,322.85,356.71,320.74,357.37,319.57Z"/><path class="cls-1" d="M313.66,388.09l-.33.74A1.64,1.64,0,0,0,313.66,388.09Z"/><path class="cls-1" d="M301.14,405.23c3.13-4,7.94-9.94,11.92-15.79l.27-.61c-.86,1.43-3.19,4.56-5.67,7.81S302.51,403.25,301.14,405.23Z"/><path class="cls-1" d="M237.13,466c4.61-3.68,9.19-7.42,13.69-11.24-1.21,1-2.65,2-3,2.23s.39-.47,3.41-3.13c-8.64,7.06-7.75,6.34-6.84,5.79.44-.28.87-.53.08.22S241.64,462.36,237.13,466Z"/><path class="cls-1" d="M193.2,499.07c7.64-5.7-.23-.12.12-.5C188.53,502.26,187.37,503.16,193.2,499.07Z"/><path class="cls-1" d="M329.65,406.12l-.22,1C333.56,401.19,329.32,407,329.65,406.12Z"/><path class="cls-1" d="M358,444.69l-.59-7.13c-.24-1.11-.52-2.24-.72-3.33C357.12,437.69,357.59,441.21,358,444.69Z"/><polygon class="cls-1" points="360.36 489.61 359.96 486.43 361.42 498.59 360.36 489.61"/><path class="cls-1" d="M398.9,899.09l-.36,2.24C398.87,906.29,399.46,907.3,398.9,899.09Z"/><path class="cls-1" d="M403.7,612.22c.3-.7.69-1.7,1.24-2.76a8.59,8.59,0,0,1,2.1-2.88l.3-.18c.11,0,.26-.09.38-.15a3.25,3.25,0,0,1,.81-.17,4.2,4.2,0,0,1,1.69.22,11.17,11.17,0,0,1,3.16,1.88A9.24,9.24,0,0,0,409.8,606a3.69,3.69,0,0,0-1.74-.06,3.57,3.57,0,0,0-.8.26,2.72,2.72,0,0,0-.62.44,8.76,8.76,0,0,0-1.91,2.85A21.49,21.49,0,0,0,403.7,612.22Z"/><path class="cls-1" d="M449.22,534.44c.2,1.94.38,3.87.51,5.81-.1-1.83-.23-3.65-.39-5.48s-.28-3.65-.47-5.47C449,531,449.1,532.73,449.22,534.44Z"/></svg>